<?xml version="1.0" encoding="utf-8"?>
<!-- Generator: Adobe Illustrator 16.0.0, SVG Export Plug-In . SVG Version: 6.00 Build 0)  -->
<!DOCTYPE svg PUBLIC "-//W3C//DTD SVG 1.1//EN" "http://www.w3.org/Graphics/SVG/1.1/DTD/svg11.dtd">
<svg version="1.1" id="Layer_1" xmlns="http://www.w3.org/2000/svg" xmlns:xlink="http://www.w3.org/1999/xlink" x="0px" y="0px"
	 width="612px" height="470.802px" viewBox="0 160.599 612 470.802" enable-background="new 0 160.599 612 470.802"
	 xml:space="preserve">
<path fill="#EF425A" d="M612,257.141c-2.34-0.213-4.466-0.213-6.806-0.213c-33.386,0-59.328,14.46-81.443,45.081
	c-0.426,0.426-0.851,1.063-1.276,1.701c-12.546,15.736-81.444-22.328-81.444-22.328l0,0
	c-41.891-74.639-120.146-120.783-205.63-120.783C105.686,160.599,0,266.285,0,396c0,129.716,105.686,235.401,235.4,235.401
	c54.226,0,107.387-18.926,149.278-53.374l3.402-2.765l3.828,2.126c32.322,18.075,57.84,18.075,75.277-1.275
	c0.425-0.426,19.563-21.265,36.575-106.537l0.426-2.126l1.701-1.488c9.994-8.719,21.902-27.22,35.299-32.961l3.19-1.488l2.764,2.126
	c19.563,14.461,34.024,21.69,58.053,21.69c2.34,0,4.679,0,6.806-0.213V257.141z M235.401,593.762
	c-109.088,0-197.762-88.674-197.762-197.763c0-109.088,88.674-197.762,197.762-197.762S433.163,286.912,433.163,396
	C433.163,505.089,344.489,593.762,235.401,593.762z"/>
</svg>
