<?xml version="1.0" encoding="utf-8"?>
<!-- Generator: Adobe Illustrator 16.0.0, SVG Export Plug-In . SVG Version: 6.00 Build 0)  -->
<!DOCTYPE svg PUBLIC "-//W3C//DTD SVG 1.1//EN" "http://www.w3.org/Graphics/SVG/1.1/DTD/svg11.dtd">
<svg version="1.1" id="Layer_1" xmlns="http://www.w3.org/2000/svg" xmlns:xlink="http://www.w3.org/1999/xlink" x="0px" y="0px"
	 width="3066.562px" height="171.637px" viewBox="0 0 3066.562 171.637" enable-background="new 0 0 3066.562 171.637"
	 xml:space="preserve">
<path fill="#FFFFFF" stroke="#FFFFFF" stroke-width="0.6851" stroke-miterlimit="10" d="M3087.899,45.996V28.467h-21.338V13.669
	l-9.666-13.092l-9.665,13.092h-0.001v14.798h-17.998V13.669l-9.667-13.092l-9.664,13.092h-0.001v14.798H2991.9V13.669l-9.666-13.092
	l-9.665,13.092v14.798h-18V13.669l-9.666-13.092l-9.664,13.092h-0.001v14.798h-17.999V13.669l-9.666-13.092l-9.665,13.092h-0.001
	v14.798h-17.998V13.669l-9.667-13.092l-9.664,13.092h-0.001v14.798h-17.999V13.669l-9.666-13.092l-9.665,13.092v14.798h-17.999
	V13.669l-9.667-13.092l-9.664,13.092h-0.001v14.798h-17.999V13.669l-9.666-13.092l-9.665,13.092v14.798h-17.999V13.669
	l-9.666-13.092l-9.665,13.092h-0.001v14.798h-17.999V13.669l-9.666-13.092l-9.665,13.092v14.798h-17.999V13.669l-9.666-13.092
	l-9.665,13.092h-0.001v14.798h-17.999V13.669l-9.666-13.092l-9.665,13.092v14.798h-17.999V13.669l-9.666-13.092l-9.665,13.092
	h-0.001v14.798h-17.999V13.669l-9.666-13.092l-9.665,13.092v14.798h-17.999V13.669l-9.666-13.092l-9.665,13.092h-0.001v14.798
	h-17.998V13.669l-9.667-13.092l-9.665,13.092v14.798h-17.999V13.669l-9.667-13.092l-9.664,13.092h-0.001v14.798h-17.999V13.669
	l-9.666-13.092l-9.664,13.092h-0.001v14.798h-17.999V13.669l-9.666-13.092l-9.665,13.092h-0.001v14.798h-17.998V13.669
	l-9.667-13.092l-9.665,13.092v14.798h-17.999V13.669l-9.666-13.092l-9.665,13.092v14.798h-18V13.669l-9.666-13.092l-9.664,13.092
	h-0.001v14.798h-17.999V13.669l-9.666-13.092l-9.665,13.092h-0.001v14.798h-17.998V13.669l-9.666-13.092l-9.666,13.092v14.798
	h-17.999V13.669l-9.666-13.092l-9.665,13.092v14.798h-18V13.669l-9.666-13.092l-9.664,13.092h-0.001v14.798h-17.999V13.669
	l-9.666-13.092l-9.665,13.092h-0.001v14.798h-17.998V13.669l-9.666-13.092l-9.666,13.092v14.798h-17.999V13.669l-9.666-13.092
	l-9.665,13.092v14.798h-18V13.669l-9.666-13.092l-9.664,13.092h-0.001v14.798h-19.593h-1.251V13.669l-9.666-13.092l-9.665,13.092
	h-0.001v14.798h-17.998V13.669l-9.667-13.092l-9.664,13.092h-0.001v14.798h-17.999V13.669l-9.666-13.092l-9.665,13.092v14.798h-18
	V13.669l-9.666-13.092l-9.664,13.092h-0.001v14.798h-17.999V13.669l-9.666-13.092l-9.665,13.092h-0.001v14.798h-17.998V13.669
	l-9.667-13.092l-9.664,13.092h-0.001v14.798h-17.999V13.669l-9.666-13.092l-9.665,13.092v14.798h-17.999V13.669l-9.667-13.092
	l-9.664,13.092h-0.001v14.798h-17.999V13.669l-9.666-13.092l-9.665,13.092v14.798h-17.999V13.669l-9.666-13.092l-9.665,13.092
	h-0.001v14.798h-17.999V13.669l-9.666-13.092l-9.665,13.092v14.798h-17.999V13.669l-9.666-13.092l-9.665,13.092h-0.001v14.798
	h-17.999V13.669l-9.666-13.092l-9.665,13.092v14.798h-17.999V13.669l-9.666-13.092l-9.665,13.092h-0.001v14.798h-17.999V13.669
	l-9.666-13.092l-9.665,13.092v14.798h-17.999V13.669l-9.667-13.092l-9.665,13.092h-0.001v14.798h-17.999V13.669l-9.667-13.092
	l-9.665,13.092h0v14.798h-17.999V13.669l-9.667-13.092l-9.665,13.092h-0.001v14.798h-17.999V13.669l-9.667-13.092l-9.665,13.092h0
	v14.798h-17.999V13.669l-9.666-13.092l-9.665,13.092h0v14.798h-17.999V13.669l-9.667-13.092l-9.665,13.092h0v14.798h-17.999V13.669
	l-9.666-13.092l-9.665,13.092h0v14.798h-17.999V13.669l-9.666-13.092l-9.665,13.092h0v14.798h-17.999V13.669l-9.666-13.092
	l-9.665,13.092h0v14.798h-17.999V13.669l-9.666-13.092l-9.665,13.092h0v14.798h-17.999V13.669L963.54,0.577l-9.665,13.092h0v14.798
	h-17.999V13.669l-9.666-13.092l-9.665,13.092h0v14.798h-17.999V13.669l-9.666-13.092l-9.665,13.092h0v14.798h-17.999V13.669
	l-9.666-13.092l-9.665,13.092h0v14.798h-17.999V13.669l-9.666-13.092l-9.665,13.092h0v14.798h-17.999V13.669l-9.666-13.092
	l-9.665,13.092h0v14.798h-19.593h-1.376V13.669l-9.666-13.092l-9.665,13.092h-0.001v14.798h-17.998V13.669l-9.667-13.092
	l-9.664,13.092h-0.001v14.798h-17.999V13.669l-9.666-13.092l-9.665,13.092v14.798h-18V13.669l-9.666-13.092l-9.664,13.092h-0.001
	v14.798H596.93V13.669l-9.666-13.092l-9.665,13.092h-0.001v14.798H559.6V13.669l-9.667-13.092l-9.664,13.092h-0.001v14.798h-17.999
	V13.669l-9.666-13.092l-9.665,13.092v14.798h-17.999V13.669l-9.667-13.092l-9.664,13.092h-0.001v14.798h-17.999V13.669
	l-9.666-13.092l-9.665,13.092v14.798h-17.999V13.669l-9.666-13.092l-9.665,13.092h-0.001v14.798h-17.999V13.669l-9.666-13.092
	l-9.665,13.092v14.798h-17.999V13.669l-9.666-13.092l-9.665,13.092h-0.001v14.798h-17.999V13.669L288.62,0.577l-9.665,13.092v14.798
	h-17.999V13.669L251.29,0.577l-9.665,13.092h-0.001v14.798h-17.999V13.669l-9.666-13.092l-9.665,13.092v14.798h-17.999V13.669
	l-9.666-13.092l-9.665,13.092h-0.001v14.798h-17.998V13.669l-9.667-13.092l-9.665,13.092v14.798h-17.999V13.669l-9.667-13.092
	l-9.664,13.092h-0.001v14.798H74.302V13.669L64.636,0.577l-9.664,13.092h-0.001v14.798H36.972V13.669L27.306,0.577l-9.665,13.092
	H17.64v14.798H0.343v17.528H17.64v83.256H0.343v17.527H17.64v24.515h19.332v-24.515h17.999v24.515h19.331v-24.515h17.999v24.515
	h19.332v-24.515h17.999v24.515h19.332v-24.515h17.998v24.515h19.332v-24.515h17.999v24.515h19.331v-24.515h17.999v24.515h19.332
	v-24.515h17.999v24.515h19.331v-24.515h17.999v24.515h19.332v-24.515h17.999v24.515h19.331v-24.515h17.999v24.515h19.332v-24.515
	h17.999v24.515h19.331v-24.515h17.999v24.515h19.332v-24.515h17.999v24.515h19.331v-24.515h17.999v24.515H559.6v-24.515h17.998
	v24.515h19.332v-24.515h17.999v24.515h19.331v-24.515h18v24.515h19.331v-24.515h17.999v24.515h19.332v-24.515h17.998v24.515h19.332
	v-24.515h1.376h19.593v24.515h19.332v-24.515h17.999v24.515h19.332v-24.515h17.999v24.515h19.332v-24.515h17.999v24.515h19.332
	v-24.515h17.999v24.515h19.332v-24.515h17.999v24.515h19.332v-24.515h17.999v24.515h19.332v-24.515h17.999v24.515h19.332v-24.515
	h17.999v24.515h19.332v-24.515h17.999v24.515h19.332v-24.515h17.999v24.515h19.332v-24.515h17.999v24.515h19.332v-24.515h17.999
	v24.515h19.332v-24.515h17.999v24.515h19.332v-24.515h17.999v24.515h19.332v-24.515h17.999v24.515h19.332v-24.515h17.999v24.515
	h19.331v-24.515h17.999v24.515h19.332v-24.515h17.999v24.515h19.331v-24.515h17.999v24.515h19.332v-24.515h17.999v24.515h19.331
	v-24.515h17.999v24.515h19.332v-24.515h17.999v24.515h19.331v-24.515h17.999v24.515h19.332v-24.515h17.999v24.515h19.331v-24.515
	h17.999v24.515h19.332v-24.515h17.998v24.515h19.332v-24.515h17.999v24.515h19.331v-24.515h18v24.515h19.331v-24.515h17.999v24.515
	h19.332v-24.515h17.998v24.515h19.332v-24.515h1.251h19.593v24.515h19.331v-24.515h18v24.515h19.331v-24.515h17.999v24.515h19.332
	v-24.515h17.998v24.515h19.332v-24.515h17.999v24.515h19.331v-24.515h18v24.515h19.331v-24.515h17.999v24.515h19.332v-24.515h17.998
	v24.515h19.332v-24.515h17.999v24.515h19.331v-24.515h18v24.515h19.331v-24.515h17.999v24.515h19.332v-24.515h17.998v24.515h19.332
	v-24.515h17.999v24.515h19.331v-24.515h17.999v24.515h19.332v-24.515h17.999v24.515h19.332v-24.515h17.998v24.515h19.332v-24.515
	h17.999v24.515h19.331v-24.515h17.999v24.515h19.332v-24.515h17.999v24.515h19.331v-24.515h17.999v24.515h19.332v-24.515h17.999
	v24.515h19.331v-24.515h17.999v24.515h19.332v-24.515h17.999v24.515h19.331v-24.515h17.999v24.515h19.332v-24.515h17.999v24.515
	h19.331v-24.515h17.999v24.515h19.332v-24.515h17.998v24.515h19.332v-24.515h17.999v24.515h19.331v-24.515h18v24.515h19.331v-24.515
	h17.999v24.515h19.332v-24.515h17.998v24.515h19.332v-24.515h21.338v-17.527h-21.338V45.996H3087.899z M54.971,129.252H36.972
	V45.996h17.999V129.252z M92.301,129.252H74.302V45.996h17.999V129.252z M129.632,129.252h-17.999V45.996h17.999V129.252z
	 M166.962,129.252h-17.998V45.996h17.998V129.252z M204.293,129.252h-17.999V45.996h17.999V129.252z M241.624,129.252h-17.999
	V45.996h17.999V129.252z M278.955,129.252h-17.999V45.996h17.999V129.252z M316.285,129.252h-17.999V45.996h17.999V129.252z
	 M353.616,129.252h-17.999V45.996h17.999V129.252z M390.946,129.252h-17.999V45.996h17.999V129.252z M428.277,129.252h-17.999
	V45.996h17.999V129.252z M465.607,129.252h-17.999V45.996h17.999V129.252z M502.938,129.252h-17.999V45.996h17.999V129.252z
	 M540.268,129.252h-17.999V45.996h17.999V129.252z M577.598,129.252H559.6V45.996h17.998V129.252z M614.929,129.252H596.93V45.996
	h17.999V129.252z M652.26,129.252h-18V45.996h18V129.252z M689.59,129.252h-17.999V45.996h17.999V129.252z M726.92,129.252h-17.998
	V45.996h17.998V129.252z M767.222,129.252h-19.593h-1.376V45.996h1.376h19.593V129.252z M804.552,129.252h-17.999V45.996h17.999
	V129.252z M841.883,129.252h-17.999V45.996h17.999V129.252z M879.213,129.252h-17.999V45.996h17.999V129.252z M916.544,129.252
	h-17.999V45.996h17.999V129.252z M953.875,129.252h-17.999V45.996h17.999V129.252z M991.205,129.252h-17.999V45.996h17.999V129.252z
	 M1028.536,129.252h-17.999V45.996h17.999V129.252z M1065.866,129.252h-17.999V45.996h17.999V129.252z M1103.197,129.252h-17.999
	V45.996h17.999V129.252z M1140.527,129.252h-17.999V45.996h17.999V129.252z M1177.858,129.252h-17.999V45.996h17.999V129.252z
	 M1215.188,129.252h-17.999V45.996h17.999V129.252z M1252.519,129.252h-17.999V45.996h17.999V129.252z M1289.85,129.252h-17.999
	V45.996h17.999V129.252z M1327.18,129.252h-17.999V45.996h17.999V129.252z M1364.511,129.252h-17.999V45.996h17.999V129.252z
	 M1401.841,129.252h-17.999V45.996h17.999V129.252z M1439.172,129.252h-17.999V45.996h17.999V129.252z M1476.502,129.252h-17.999
	V45.996h17.999V129.252z M1513.833,129.252h-17.999V45.996h17.999V129.252z M1551.163,129.252h-17.999V45.996h17.999V129.252z
	 M1588.494,129.252h-17.999V45.996h17.999V129.252z M1625.824,129.252h-17.999V45.996h17.999V129.252z M1663.155,129.252h-17.999
	V45.996h17.999V129.252z M1700.485,129.252h-17.999V45.996h17.999V129.252z M1737.815,129.252h-17.998V45.996h17.998V129.252z
	 M1775.146,129.252h-17.999V45.996h17.999V129.252z M1812.478,129.252h-18V45.996h18V129.252z M1849.808,129.252h-17.999V45.996
	h17.999V129.252z M1887.138,129.252h-17.998V45.996h17.998V129.252z M1927.313,129.252h-19.593h-1.251V45.996h1.251h19.593V129.252z
	 M1964.645,129.252h-18V45.996h18V129.252z M2001.975,129.252h-17.999V45.996h17.999V129.252z M2039.305,129.252h-17.998V45.996
	h17.998V129.252z M2076.636,129.252h-17.999V45.996h17.999V129.252z M2113.967,129.252h-18V45.996h18V129.252z M2151.297,129.252
	h-17.999V45.996h17.999V129.252z M2188.627,129.252h-17.998V45.996h17.998V129.252z M2225.958,129.252h-17.999V45.996h17.999
	V129.252z M2263.289,129.252h-18V45.996h18V129.252z M2300.619,129.252h-17.999V45.996h17.999V129.252z M2337.949,129.252h-17.998
	V45.996h17.998V129.252z M2375.28,129.252h-17.999V45.996h17.999V129.252z M2412.61,129.252h-17.999V45.996h17.999V129.252z
	 M2449.941,129.252h-17.999V45.996h17.999V129.252z M2487.271,129.252h-17.998V45.996h17.998V129.252z M2524.603,129.252h-17.999
	V45.996h17.999V129.252z M2561.933,129.252h-17.999V45.996h17.999V129.252z M2599.264,129.252h-17.999V45.996h17.999V129.252z
	 M2636.594,129.252h-17.999V45.996h17.999V129.252z M2673.925,129.252h-17.999V45.996h17.999V129.252z M2711.255,129.252h-17.999
	V45.996h17.999V129.252z M2748.586,129.252h-17.999V45.996h17.999V129.252z M2785.916,129.252h-17.999V45.996h17.999V129.252z
	 M2823.247,129.252h-17.999V45.996h17.999V129.252z M2860.577,129.252h-17.999V45.996h17.999V129.252z M2897.907,129.252h-17.998
	V45.996h17.998V129.252z M2935.238,129.252h-17.999V45.996h17.999V129.252z M2972.569,129.252h-18V45.996h18V129.252z
	 M3009.899,129.252H2991.9V45.996h17.999V129.252z M3047.229,129.252h-17.998V45.996h17.998V129.252z"/>
</svg>
