<?xml version="1.0" encoding="utf-8"?>
<!-- Generator: Adobe Illustrator 16.0.0, SVG Export Plug-In . SVG Version: 6.00 Build 0)  -->
<!DOCTYPE svg PUBLIC "-//W3C//DTD SVG 1.1//EN" "http://www.w3.org/Graphics/SVG/1.1/DTD/svg11.dtd">
<svg version="1.1" id="Layer_1" xmlns="http://www.w3.org/2000/svg" xmlns:xlink="http://www.w3.org/1999/xlink" x="0px" y="0px"
	 width="1273.429px" height="187.599px" viewBox="0 0 1273.429 187.599" enable-background="new 0 0 1273.429 187.599"
	 xml:space="preserve">
<path fill="#63629F" d="M21.531,172.041c6.856-0.359,13.939-0.58,21.242-0.645v-10.737h19.779v10.951
	c6.91,0.212,13.996,0.573,21.244,1.094v-12.045h19.778v13.843c5.572,0.611,11.222,1.309,16.967,2.123c0,0,1.512,0.217,4.276,0.595
	v-16.561h19.778v19.134c6.191,0.77,13.359,1.629,21.244,2.521v-21.655h19.779v23.79c6.818,0.699,13.94,1.389,21.243,2.044v-25.834
	h19.778v26.939h21.244v-26.939h19.778v26.939h21.244v-26.939h19.779v26.939h21.242v-26.939h19.779v26.891
	c6.657-0.617,13.75-1.299,21.243-2.027v-24.863h19.779v22.935c6.84-0.666,13.927-1.352,21.243-2.047v-20.888h19.779v19.046
	c6.926-0.631,14.013-1.261,21.243-1.881v-17.165h19.779v15.528c6.98-0.555,14.063-1.096,21.243-1.613v-13.915h19.779v12.569
	c7.018-0.449,14.1-0.873,21.243-1.264v-11.306h19.778v10.323c7.047-0.316,14.13-0.598,21.244-0.835v-9.488h19.778v8.948
	c7.072-0.152,14.157-0.262,21.244-0.314v-8.634h19.777v8.63c7.097,0.049,14.184,0.15,21.244,0.32v-8.95h19.778v9.606
	c7.122,0.299,14.21,0.662,21.243,1.108v-10.715h19.778v12.198c7.153,0.617,14.243,1.315,21.243,2.114v-14.313h19.778v16.866
	c0.86,0.124,1.728,0.24,2.585,0.367c0,0,7.021,1.371,18.658,2.691v-19.925h19.779v21.638c6.527,0.395,13.668,0.657,21.242,0.686
	v-22.323h19.779V182.5c6.912-0.371,14.029-0.974,21.243-1.87v-19.971h19.778v17.87c5.845-0.555,12.982-1.189,21.244-1.844v-16.026
	h19.778v14.585c6.64-0.443,13.739-0.874,21.243-1.277v-13.308h19.779v12.363c6.836-0.286,13.93-0.54,21.242-0.753v-11.61h19.779
	v11.155c6.928-0.117,14.018-0.193,21.243-0.218v-10.938h19.778v10.997c6.986,0.066,14.072,0.182,21.243,0.355v-11.353h19.778v11.974
	c7.025,0.272,14.112,0.603,21.244,0.996v-12.97h19.778v14.224c7.058,0.506,14.144,1.078,21.243,1.723v-15.946h19.778v17.933
	c1.687,0.187,3.374,0.375,5.06,0.57l16.184,0.998v-19.501h19.779v20.722l21.243,1.312v-22.033h19.778v23.254l21.243,1.312v-24.565
	h23.447v-19.261h-23.447V49.91h23.447V30.648h-23.447V14.388L1262.807,0l-10.621,14.388l0,0v16.261h-19.778V14.388L1221.784,0
	l-10.62,14.388l0,0v16.261h-19.779V14.388L1180.764,0l-10.621,14.388h-0.001v16.261h-19.778V14.388L1139.741,0l-10.62,14.388h-0.001
	v16.261h-19.778V14.388L1098.719,0l-10.62,14.388h-0.001v16.261h-19.778V14.388L1057.697,0l-10.621,14.388v16.261h-19.778V14.388
	L1016.676,0l-10.621,14.388l0,0v16.261h-19.779V14.388L975.654,0l-10.621,14.388l0,0v16.261h-19.779V14.388L934.633,0
	l-10.621,14.388h-0.001v16.261h-19.778V14.388L893.609,0L882.99,14.388h-0.002v16.261H863.21V14.388L852.588,0l-10.619,14.388
	h-0.002v16.261h-19.779V14.388L811.566,0l-10.62,14.388h-0.001v16.261h-19.779V14.388L770.545,0l-10.621,14.388h-0.001v16.261
	h-19.778V14.388L729.523,0l-10.621,14.388h-0.001v16.261h-19.778V14.388L688.501,0l-10.62,14.388h-0.001v16.261h-19.778V14.388
	L647.479,0l-10.62,14.388h-0.002v16.261H617.08V14.388L606.458,0l-10.621,14.388h-0.001v16.261h-19.778V14.388L565.436,0
	l-10.621,14.388h-0.001v16.261h-19.778V14.388L524.414,0l-10.621,14.388h0v16.261h-19.779V14.388L483.392,0l-10.621,14.388h0v16.261
	h-19.779V14.388L442.37,0l-10.62,14.388h-0.001v16.261H411.97V14.388L401.348,0l-10.62,14.388h-0.001v16.261h-19.779V14.388
	L360.326,0l-10.62,14.388h-0.001v16.261h-19.779V14.388L319.305,0l-10.621,14.388v16.261h-19.779V14.388L278.283,0l-10.621,14.388
	h-0.001v16.261h-19.778V14.388L237.261,0L226.64,14.388h-0.001v16.261h-19.778V14.388L196.239,0l-10.621,14.388h0v16.261h-19.779
	V14.388L155.217,0l-10.62,14.388h-0.001v16.261h-19.778V14.388L114.196,0l-10.621,14.388h0v16.261H83.796V14.388L73.174,0
	L62.553,14.388h-0.001v16.261H42.773V14.388L32.152,0L21.531,14.388v16.261H0V49.91h21.531v91.488H0v19.261h21.531V172.041z
	 M1232.407,49.91h19.778v91.488h-19.778V49.91z M1191.385,49.91h19.779v91.488h-19.779V49.91z M1150.363,49.91h19.778v91.488
	h-19.778V49.91z M1109.342,49.91h19.778v91.488h-19.778V49.91z M1068.319,49.91h19.778v91.488h-19.778V49.91z M1027.298,49.91
	h19.778v91.488h-19.778V49.91z M986.275,49.91h19.779v91.488h-19.779V49.91z M945.254,49.91h19.779v91.488h-19.779V49.91z
	 M904.232,49.91h19.778v91.488h-19.778V49.91z M863.21,49.91h19.778v91.488H863.21V49.91z M822.188,49.91h19.779v91.488h-19.779
	V49.91z M781.166,49.91h19.779v91.488h-19.779V49.91z M740.145,49.91h19.778v91.488h-19.778V49.91z M699.123,49.91h19.778v91.488
	h-19.778V49.91z M658.102,49.91h19.778v91.488h-19.778V49.91z M617.08,49.91h19.777v91.488H617.08V49.91z M576.058,49.91h19.778
	v91.488h-19.778V49.91z M535.036,49.91h19.778v91.488h-19.778V49.91z M494.014,49.91h19.779v91.488h-19.779V49.91z M452.992,49.91
	h19.779v91.488h-19.779V49.91z M411.97,49.91h19.779v91.488H411.97V49.91z M370.948,49.91h19.779v91.488h-19.779V49.91z
	 M329.926,49.91h19.779v91.488h-19.779V49.91z M288.905,49.91h19.779v91.488h-19.779V49.91z M247.883,49.91h19.778v91.488h-19.778
	V49.91z M206.861,49.91h19.778v91.488h-19.778V49.91z M165.839,49.91h19.779v91.488h-19.779V49.91z M124.817,49.91h19.778v91.488
	h-19.778V49.91z M83.796,49.91h19.778v91.488H83.796V49.91z M42.773,49.91h19.779v91.488H42.773V49.91z"/>
</svg>
