<?xml version="1.0" encoding="utf-8"?>
<!-- Generator: Adobe Illustrator 16.0.0, SVG Export Plug-In . SVG Version: 6.00 Build 0)  -->
<!DOCTYPE svg PUBLIC "-//W3C//DTD SVG 1.1//EN" "http://www.w3.org/Graphics/SVG/1.1/DTD/svg11.dtd">
<svg version="1.1" id="Layer_1" xmlns="http://www.w3.org/2000/svg" xmlns:xlink="http://www.w3.org/1999/xlink" x="0px" y="0px"
	 width="611.622px" height="239.953px" viewBox="0 552.424 611.622 239.953" enable-background="new 0 552.424 611.622 239.953"
	 xml:space="preserve">
<path fill="#FFE400" d="M493.425,552.424c-44.165,0-84.424,24.437-105.555,63.394c-9.113,4.807-32.648,15.823-37.455,9.113
	c0,0,0-0.501-0.501-0.501c-11.517-15.823-24.436-23.534-41.762-23.534c-16.824,0-30.244,7.211-41.26,23.034
	c0,0.5-0.501,0.5-0.501,1.001c-6.209,8.112-41.261-11.517-41.261-11.517l0,0c-22.032-37.455-61.891-60.99-105.154-60.99
	C53.78,552.424,0,606.203,0,672.4S53.78,792.377,119.977,792.377c27.841,0,54.68-9.614,75.812-27.34l1.902-1.402l1.903,1.001
	c16.323,9.114,29.242,9.114,38.355-0.5c0,0,10.115-10.516,18.728-54.28v-1.001l1.002-0.501c5.308-4.307,11.017-13.921,17.726-16.825
	l1.402-0.5l1.402,0.5c10.115,7.211,17.325,11.017,29.242,11.017c11.918,0,19.629-3.806,29.243-11.017l1.402-1.001l1.402,0.501
	c6.71,2.904,12.919,12.518,17.726,16.824l1.002,0.501v1.001c8.612,43.164,18.227,53.779,18.728,54.28
	c8.612,9.614,21.131,10.115,36.954,1.402l1.902-1.002l1.402,1.402c21.632,17.325,47.47,26.438,74.91,26.438
	c66.197,0,119.476-53.779,119.476-119.977C612.901,606.203,559.122,552.424,493.425,552.424z M119.977,772.748
	c-55.683,0-100.748-45.066-100.748-100.748c0-55.182,45.065-100.348,100.748-100.348c55.682,0,100.748,45.066,100.748,100.748
	C220.324,727.681,175.157,772.748,119.977,772.748z M493.425,772.748c-55.682,0-100.748-45.066-100.748-100.748
	s45.066-100.748,100.748-100.748c55.683,0,100.749,45.066,100.749,100.748C593.673,727.681,548.607,772.748,493.425,772.748z"/>
</svg>
