<?xml version="1.0" encoding="utf-8"?>
<!-- Generator: Adobe Illustrator 18.0.0, SVG Export Plug-In . SVG Version: 6.00 Build 0)  -->
<!DOCTYPE svg PUBLIC "-//W3C//DTD SVG 1.1//EN" "http://www.w3.org/Graphics/SVG/1.1/DTD/svg11.dtd">
<svg version="1.1" id="Layer_1" xmlns="http://www.w3.org/2000/svg" xmlns:xlink="http://www.w3.org/1999/xlink" x="0px" y="0px"
	 viewBox="0 0 282.1 214" style="enable-background:new 0 0 282.1 214;" xml:space="preserve">
<style type="text/css">
	.st0{fill:#6462A0;}
</style>
<g>
	<path class="st0" d="M164.3,214v-97.2l-23.1-16.2v0.4l-23.1,15.9V214H164.3z M128.3,149.5c2.2,0,4.1,1.8,4.1,4.1
		c0,2.2-1.8,4.1-4.1,4.1c-2.2,0-4.1-1.8-4.1-4.1C124.2,151.3,126,149.5,128.3,149.5z"/>
	<path class="st0" d="M257.8,25.7h-51.6V0H188v25.7H24.4L0,103.3h5.4c0,0,0.9,102.6,0,103v7.7h108.4v-94.1v-6.8v-0.5h0.7l26.7-18.8
		l27.2,18.8h0.2v0.1v7.1V214h108.1V104.8h5.4L257.8,25.7z M173.4,112.6l-32.3-22.7v0.4l-32.3,22.3v-6.8l32.3-22.7l32.3,22.3V112.6z"
		/>
</g>
</svg>
