<?xml version="1.0" encoding="utf-8"?>
<!-- Generator: Adobe Illustrator 18.0.0, SVG Export Plug-In . SVG Version: 6.00 Build 0)  -->
<!DOCTYPE svg PUBLIC "-//W3C//DTD SVG 1.1//EN" "http://www.w3.org/Graphics/SVG/1.1/DTD/svg11.dtd">
<svg version="1.1" id="Layer_1" xmlns="http://www.w3.org/2000/svg" xmlns:xlink="http://www.w3.org/1999/xlink" x="0px" y="0px"
	 viewBox="0 0 395.6 418" style="enable-background:new 0 0 395.6 418;" xml:space="preserve">
<style type="text/css">
	.st0{fill:#1B364E;}
</style>
<g>
	<g>
		<g>
			<path class="st0" d="M291.2,209.4c-0.2,0.2-8.9-4.6-19.5-9.9c-86.8-42.4-167.1-60.4-252.4-53C8.8,147.4,0,147.8,0,146.7
				c0-1,8.9-3,19.5-3.9c85.5-6.7,165.8,12.3,252.8,55.5C283,203.7,291.5,209.1,291.2,209.4z"/>
		</g>
	</g>
	<path class="st0" d="M323.5,197.7c-33.3,2.9-34.5,6.6-33,10.3c1.7,3.9,5.5,6.3,39.6,3.6c34.3-2.6,60.2-8.2,59-10.2
		C388,199.4,356.8,194.8,323.5,197.7z"/>
	<path class="st0" d="M280.2,166.1c-34.7,10.5-35.7,15.2-33.1,19.6c2.6,4.5,7.8,6.9,43.5-3.4c35.8-10.1,59.3-23.8,57.6-26.1
		C346.4,153.9,314.6,155.5,280.2,166.1z"/>
	<path class="st0" d="M235.3,141.4c-25,22.1-24.8,26.9-20.8,30.5c3.6,3.7,9.7,4.8,35.1-17c25.3-21.7,36.4-45.4,34.3-47.3
		C281.9,105.8,259.9,119.4,235.3,141.4z"/>
	<path class="st0" d="M191.1,120.1c-20.3,31-19.3,36.1-14.2,39.4c4.5,3.2,11.2,3.3,31.2-27.5c19.7-30.7,24.4-61.6,22.3-63.3
		C228.1,67.1,211,89.1,191.1,120.1z"/>
	<path class="st0" d="M146.2,105.4c-18,36.2-16.4,41.3-11,44c4.9,2.7,11.6,2,28.8-33.9c16.8-35.8,19.2-70.4,17.2-71.8
		C179.1,42.3,164,69.2,146.2,105.4z"/>
	<path class="st0" d="M101,93.7c-21.4,40.3-19.9,45.7-14.2,48.5c5.1,2.7,12.3,1.8,32.4-38.2c19.7-39.8,24-78.1,22-79.6
		C139.1,22.9,122.1,53.3,101,93.7z"/>
	<path class="st0" d="M55.5,85c-24.8,47.9-22.6,53.6-16.1,56.1c6,2.5,13.8,0.8,36.2-46.7C97.6,47,103.2,1.6,101.3,0
		C99.4-1.4,80.4,37.1,55.5,85z"/>
	<path class="st0" d="M264.8,227.4c-21.3-33.3-19-37.4-14.4-38.9c4.7-1.6,9.8,0,32,33.3c22.3,33.3,34.1,62.1,31.5,62.9
		C311.4,285.5,286.2,260.7,264.8,227.4z"/>
	<path class="st0" d="M224.8,214.4c-15.8-34.7-12.8-38.4-8.1-39.5c4.9-1.1,9.8,0.9,26.3,35.4c16.6,34.5,23.6,64.3,21.1,65
		C261.6,276,240.7,249.1,224.8,214.4z"/>
	<path class="st0" d="M184.7,205.3c-17.7-37.8-14.3-42.1-9.3-43.6c5.3-1.5,10.3,0.4,28.6,38.1c18.6,37.5,27.8,70.8,25.1,71.7
		C226.6,272.3,202.6,243.1,184.7,205.3z"/>
	<path class="st0" d="M134.8,196.3c-10.4-41.2-5.8-45.2-0.4-46c5.7-0.8,10.5,1.8,21.7,42.8c11.4,40.8,15,76.7,12.1,77.3
		C165.3,270.9,145.4,237.5,134.8,196.3z"/>
	<path class="st0" d="M90.2,193.5c-13.5-43.9-8.2-48.6-2.6-50.1c6.3-1.5,10.8,0.9,25.1,44.6c14.7,43.5,22.6,82.5,19.6,83.3
		C129.4,272,104.3,237.2,90.2,193.5z"/>
	<path class="st0" d="M38.1,200.3c-12.7-49.6-5.3-55,1-56.7c7.4-1.7,11.7,1,25.1,50.6c14.1,49.5,23.8,93.4,20.3,94.2
		C81.5,288.9,51.8,249.7,38.1,200.3z"/>
	<path class="st0" d="M318.8,236.4c-21.4-27.1-25.9-28.2-29.8-26.7c-3.8,1.4-5.4,4.9,15.3,31.8c20.7,26.9,44,46.7,46.1,46
		C352.5,286.9,340.3,263.5,318.8,236.4z"/>
</g>
<g>
	<path class="st0" d="M319.3,284.3c-3.8,2.7-7.4,5.6-10.4,8.6c-12,11.9-23.5,19.5-23.2,13.2c0.1-2.7,7.5-9.7,17.3-16.6
		c-5.8,1-11.4,0.8-16.6-2.1c-1.2-0.6-2.3-1.4-3.3-2.1c-6.4,8.2-11.3,15.4-12.4,17.2c-2.8,4.4-12.3,14.7-12.8,4.5
		c-0.6-11.6,6.4-21.6,15.4-29.5c-3.9-2.9-8.1-5.1-13.9-5.1c-6.2,0-12.2,1.4-17.8,3.8c-1.7,10.9-2,21.9-8.8,27.2
		c-7.2,5.7-3.2-8.7,2.2-23.8c-2.6,1.6-5.1,3.4-7.4,5.5c-13.8,12.2-37.2,30.5-30.9,51.5c7.9-5,14.7-9.7,24-10.6
		c5.6-0.6,41.8-2.6,62.3-4.7c4.3-0.6,8.7-1.3,13.5-2c-1.8,0.6-6.8,1.3-13.5,2c-66.3,10-78.1,16.9-89.2,34
		c-6,9.2-13.2,20.7-15.5,31.4c-2.6,12.2,5.6,20.7,8.6,31.3c0.1,0,0.2,0,0.3,0c-1.9-9.4,0.7-32.4-0.1-41.1c-1-10.7,12.5-8.5,12.3-0.6
		c-0.2,5.7-1.1,26.1-0.4,38.6c6.2-3.6,11.8-9.4,17.6-13.2c7.6-5,10.4,8.4,19.4,7.5c0.4,0,0.8-0.1,1.2-0.2
		c-10.1-14.7-18.5-50.8-13.4-45.8c5,4.9,12.9,29,20.9,43.9c10.6-4,20.5-12.8,29.1-22c-16.5-10.3-30.9-25.8-32.9-27.9
		c-3.3-3.5-5-8.4,4.3-8.4c7.7,0,19.9,14.8,36.3,27.6c2.5-2.9,4.9-5.7,7.1-8.2c1.8-2.1,4.1-3.3,6.5-4c-8.1-5.7-15.4-12.9-19.6-18.8
		c-11-15.4,13.8-11.4,33.4,2.3c10.5,7.3,19.5,6.3,25.7,3.9c3-4,5.5-8.5,8-13.4c11.5-23,29.4-41.2,53-50.3c-20.9,4-38-13.3-58.7-9.4
		C331.4,279.4,325.4,281.9,319.3,284.3z"/>
</g>
</svg>
