<?xml version="1.0" encoding="utf-8"?>
<!-- Generator: Adobe Illustrator 16.0.0, SVG Export Plug-In . SVG Version: 6.00 Build 0)  -->
<!DOCTYPE svg PUBLIC "-//W3C//DTD SVG 1.1//EN" "http://www.w3.org/Graphics/SVG/1.1/DTD/svg11.dtd">
<svg version="1.1" id="Layer_1" xmlns="http://www.w3.org/2000/svg" xmlns:xlink="http://www.w3.org/1999/xlink" x="0px" y="0px"
	 width="612.101px" height="22.503px" viewBox="2.699 769.549 612.101 22.503"
	 enable-background="new 2.699 769.549 612.101 22.503" xml:space="preserve">
<path fill="#AEACE5" d="M614.8,775.576v-2.311h-2.813v-1.908l-1.306-1.708l-1.306,1.708v1.908h-2.411v-1.908l-1.306-1.708
	l-1.307,1.708v1.908h-2.411v-1.908l-1.306-1.708l-1.306,1.708l0,0v1.908h-2.411v-1.908l-1.307-1.708l-1.306,1.708l0,0v1.908h-2.411
	v-1.908l-1.306-1.708l-1.306,1.708v1.908h-2.411v-1.908l-1.307-1.708l-1.306,1.708v1.908h-2.411v-1.908l-1.306-1.708l-1.307,1.708
	v1.908h-2.41v-1.908l-1.307-1.708l-1.306,1.708v1.908h-1.607v-1.908l-1.306-1.708l-1.307,1.708l0,0v1.908h-2.41v-1.908l-1.307-1.708
	l-1.306,1.708l0,0v1.908h-2.411v-1.908l-1.306-1.708l-1.307,1.708l0,0v1.908h-2.411v-1.908l-1.306-1.708l-1.306,1.708l0,0v1.908
	h-2.411v-1.908l-1.306-1.708l-1.307,1.708l0,0v1.908h-2.411v-1.908l-1.306-1.708l-1.306,1.708l0,0v1.908h-2.411v-1.908l-1.307-1.708
	l-1.306,1.708l0,0v1.908h-2.411v-1.908l-1.306-1.708l-1.306,1.708l0,0v1.908h-2.411v-1.908l-1.307-1.708l-1.306,1.708l0,0v1.908
	H527.4v-1.908l-1.306-1.708l-1.306,1.708l0,0v1.908h-2.411v-1.908l-1.307-1.708l-1.306,1.708l0,0v1.908h-1.406v-1.908l-1.306-1.708
	l-1.307,1.708v1.908h-2.411v-1.908l-1.306-1.708l-1.306,1.708l0,0v1.908h-2.411v-1.908l-1.306-1.708l-1.307,1.708l0,0v1.908h-2.411
	v-1.908l-1.306-1.708l-1.306,1.708l0,0v1.908h-2.411v-1.908l-1.306-1.708l-1.307,1.708v1.908h-2.411v-1.908l-1.306-1.708
	l-1.306,1.708l0,0v1.908h-2.411v-1.908l-1.306-1.708l-1.307,1.708l0,0v1.908h-2.411v-1.908l-1.306-1.708l-1.306,1.708l0,0v1.908
	h-2.411v-1.908l-1.306-1.708l-1.307,1.708l0,0v1.908h-2.411v-1.908l-1.306-1.708l-1.306,1.708l0,0v1.908h-1.407v-1.908l-1.306-1.708
	l-1.306,1.708l0,0v1.908h-2.411v-1.908l-1.307-1.708l-1.306,1.708v1.908h-2.411v-1.908l-1.306-1.708l-1.306,1.708v1.908h-2.411
	v-1.908l0,0l-1.307-1.708l-1.306,1.708v1.908h-2.411v-1.908l-1.306-1.708l-1.306,1.708v1.908h-2.411v-1.908l0,0l-1.307-1.708
	l-1.306,1.708v1.908h-2.411v-1.908l0,0l-1.306-1.708l-1.306,1.708v1.908h-2.411v-1.908l0,0l-1.307-1.708l-1.306,1.708v1.908h-2.411
	v-1.908l0,0l-1.306-1.708l-1.306,1.708v1.908h-2.411v-1.908l-1.307-1.708l-1.306,1.708v1.908h-2.411v-1.908l0,0l-1.306-1.708
	l-1.306,1.708v1.908h-2.411v-1.908l0,0l-1.307-1.708l-1.306,1.708v1.908h-1.406v-1.908l0,0l-1.307-1.708l-1.306,1.708v1.908h-2.411
	v-1.908l-1.306-1.708l-1.307,1.708v1.908h-2.41v-1.908l-1.307-1.708l-1.306,1.708v1.908h-2.411v-1.908l0,0l-1.306-1.708
	l-1.307,1.708v1.908h-2.41v-1.908l0,0l-1.307-1.708l-1.306,1.708v1.908h-2.411v-1.908l0,0l-1.306-1.708l-1.307,1.708v1.908h-2.41
	v-1.908l0,0l-1.307-1.708l-1.306,1.708v1.908h-2.411v-1.908l0,0l-1.306-1.708l-1.307,1.708v1.908h-2.41v-1.908l0,0l-1.307-1.708
	l-1.306,1.708v1.908h-2.411v-1.908l0,0l-1.306-1.708l-1.307,1.708v1.908h-2.41v-1.908l0,0l-1.307-1.708l-1.306,1.708v1.908h-1.407
	v-1.908l0,0l-1.306-1.708l-1.306,1.708v1.908h-2.411v-1.908l0,0l-1.306-1.708l-1.307,1.708v1.908h-2.411v-1.908l-1.306-1.708
	l-1.306,1.708v1.908h-2.411v-1.908l-1.306-1.708l-1.307,1.708v1.908h-2.411v-1.908l-1.306-1.708l-1.306,1.708v1.908h-2.411v-1.908
	l0,0l-1.306-1.708l-1.307,1.708v1.908h-2.411v-1.908l0,0l-1.306-1.708l-1.306,1.708v1.908h-2.411v-1.908l0,0l-1.306-1.708
	l-1.307,1.708v1.908h-2.411v-1.908l-1.306-1.708l-1.306,1.708v1.908h-2.411v-1.908l-1.306-1.708l-1.307,1.708v1.908h-2.712v-1.908
	l-1.307-1.708l-1.306,1.708v1.908h-2.411v-1.908l-1.306-1.708l-1.306,1.708v1.908h-2.411v-1.908l-1.306-1.708l-1.307,1.708l0,0
	v1.908h-2.41v-1.908l-1.307-1.708l-1.306,1.708l0,0v1.908h-1.105v-1.908l-1.306-1.708l-1.307,1.708v1.908h-2.411v-1.908
	l-1.306-1.708l-1.306,1.708v1.908h-2.411v-1.908l-1.306-1.708l-1.307,1.708v1.908h-2.411v-1.908l-1.306-1.708l-1.306,1.708v1.908
	h-2.411v-1.908l-1.306-1.708l-1.307,1.708l0,0v1.908h-2.411v-1.908l-1.306-1.708l-1.306,1.708l0,0v1.908h-2.411v-1.908l-1.306-1.708
	l-1.307,1.708l0,0v1.908h-2.411v-1.908l-1.306-1.708l-1.306,1.708l0,0v1.908h-2.411v-1.908l-1.306-1.708l-1.307,1.708l0,0v1.908
	h-2.411v-1.908l-1.306-1.708l-1.306,1.708l0,0v1.908h-1.407v-1.908l-1.306-1.708l-1.306,1.708l0,0v1.908h-2.411v-1.908l-1.307-1.708
	l-1.306,1.708l0,0v1.908h-2.411v-1.908l-1.306-1.708l-1.306,1.708l0,0v1.908h-2.411v-1.908l-1.307-1.708l-1.306,1.708l0,0v1.908
	h-2.411v-1.908l-1.306-1.708l-1.306,1.708l0,0v1.908h-2.411v-1.908l-1.307-1.708l-1.306,1.708v1.908h-2.411v-1.908l-1.306-1.708
	l-1.307,1.708l0,0v1.908h-2.41v-1.908l-1.307-1.708l-1.306,1.708l0,0v1.908h-2.411v-1.908l-1.306-1.708l-1.307,1.708l0,0v1.908
	h-2.41v-1.908l-1.307-1.708l-1.306,1.708v1.908h-1.406v-1.908l-1.307-1.708l-1.306,1.708l0,0v1.908h-2.411v-1.908l-1.306-1.708
	l-1.306,1.708l0,0v1.908h-2.411v-1.908l-1.307-1.708l-1.306,1.708l0,0v1.908h-2.411v-1.908l-1.306-1.708l-1.307,1.708l0,0v1.908
	h-2.41v-1.908l-1.307-1.708l-1.306,1.708l0,0v1.908h-2.411v-1.908l-1.306-1.708l-1.307,1.708l0,0v1.908h-2.41v-1.908l-1.307-1.708
	l-1.306,1.708v1.908h-2.512v-1.908l-1.306-1.708l-1.307,1.708v1.908h-2.41v-1.908l0,0l-1.307-1.708l-1.306,1.708v1.908h-2.411
	v-1.908l-1.306-1.708l-1.307,1.708v1.908h-2.411v-1.908l0,0l-1.306-1.708l-1.306,1.708v1.908h-2.411v-1.908l0,0l-1.306-1.708
	l-1.307,1.708v1.908h-2.411v-1.908l0,0l-1.306-1.708l-1.306,1.708v1.908h-1.307v-1.908l0,0l-1.306-1.708l-1.306,1.708v1.908h-2.411
	v-1.908l-1.306-1.708l-1.307,1.708v1.908h-2.411v-1.908l0,0l-1.306-1.708l-1.306,1.708v1.908h-2.411v-1.908l0,0l-1.306-1.708
	l-1.307,1.708v1.908h-2.411v-1.908l0,0l-1.306-1.708l-1.306,1.708v1.908h-2.411v-1.908l-1.307-1.708l-1.306,1.708v1.908h-2.411
	v-1.908l-1.306-1.708l-1.306,1.708v1.908h-2.411v-1.908l0,0l-1.307-1.708l-1.306,1.708v1.908h-2.411v-1.908l0,0l-1.306-1.708
	l-1.306,1.708v1.908h-2.411v-1.908l0,0l-1.307-1.708l-1.306,1.708v1.908h-1.406v-1.908l0,0l-1.306-1.708l-1.307,1.708v1.908h-2.411
	v-1.908l0,0l-1.306-1.708l-1.306,1.708v1.908h-2.411v-1.908l0,0l-1.307-1.708l-1.306,1.708v1.908h-2.411v-1.908l0,0l-1.306-1.708
	l-1.306,1.708v1.908h-2.411v-1.908l0,0l-1.307-1.708l-1.306,1.708v1.908h-2.411v-1.908l0,0l-1.306-1.708l-1.306,1.708v1.908H44.19
	v-1.908l0,0l-1.307-1.708l-1.306,1.708v1.908h-2.411v-1.908l-1.306-1.708l-1.306,1.708v1.908h-2.411v-1.908l-1.307-1.708
	l-1.306,1.708v1.908H29.12v-1.908l-1.306-1.708l-1.307,1.708v1.908h-1.406v-1.908l0,0l-1.306-1.708l-1.306,1.708v1.908h-2.411
	v-1.908l0,0l-1.307-1.708l-1.306,1.708v1.908h-2.411v-1.908l0,0l-1.306-1.708l-1.306,1.708v1.908h-2.411v-1.908l-1.005-1.809
	l-1.306,1.708v1.909H5.312v-1.909l-1.307-1.708l-1.306,1.708v20.494l2.512-0.201v-2.713h2.411v2.612l2.512-0.201v-2.411h2.41v2.311
	l1.909-0.101c0.201,0,0.401,0,0.603-0.1v-2.11h2.411v1.909c0.804-0.101,1.708-0.101,2.512-0.201v-1.708h2.411v1.607
	c0.904,0,1.708-0.101,2.512-0.101v-1.507h2.41v1.407c0.904,0,1.708,0,2.512,0v-1.407h2.411v1.307c0.904,0,1.708,0,2.512,0v-1.307
	h2.411v1.407c0.904,0,1.708,0.1,2.512,0.1v-1.507h2.41v1.607c0.904,0,1.708,0.101,2.512,0.201v-1.809h2.612v1.909
	c1.005,0.101,1.808,0.201,2.512,0.201v-2.11h2.311v2.411c0.903,0.101,1.707,0.201,2.511,0.201v-2.612h2.411v2.713
	c0.904,0,1.809,0,2.512-0.101v-2.612h2.411v2.411c1.406-0.201,2.21-0.301,2.21-0.301c0.101,0,0.201,0,0.302,0v-2.01h2.411v1.708
	c0.804-0.101,1.707-0.201,2.511-0.201v-1.607h2.311v1.307c0.804-0.101,1.708-0.101,2.512-0.101v-1.206h2.411v1.105
	c0.804,0,1.708,0,2.512,0v-1.005h2.411v1.005c0.804,0,1.708,0,2.511,0v-1.105h2.411v1.105c0.904,0,1.708,0.101,2.512,0.101v-1.206
	h2.411v1.407c0.904,0,1.708,0.1,2.512,0.1v-1.507h2.611v1.708c0.904,0.101,1.708,0.101,2.512,0.201v-1.909h2.411v2.01
	c0.904,0.101,1.708,0.101,2.512,0.201v-2.211h2.411v2.512c0.904,0.101,1.708,0.201,2.512,0.201v-2.713h2.41v3.014
	c0.904,0.101,1.708,0.201,2.512,0.201v-3.215h2.411v3.215h2.512v-3.215h2.411v3.215h2.511v-3.215h2.411v3.215h2.512v-3.215h2.411
	v3.114c0.904-0.101,1.708-0.2,2.512-0.2v-2.914h2.311v2.612c0.904-0.101,1.809-0.201,2.512-0.302v-2.311h2.41v2.01
	c0.302,0,0.503-0.101,0.503-0.101c0.703-0.101,1.406-0.201,2.009-0.201v-1.708h2.411v1.407c0.904-0.101,1.708-0.101,2.512-0.101
	v-1.307h2.411v1.307c0.904,0,1.708,0,2.512,0.101v-1.407h2.511v1.407c0.804,0,1.708-0.101,2.512-0.101v-1.307h2.411v1.307
	c0.804,0,1.708,0.101,2.512,0.101v-1.407h2.411v1.708c0.703,0.101,1.306,0.201,2.009,0.201c0,0,0.201,0,0.502,0.101v-2.01h2.411
	v2.311c0.703,0.101,1.607,0.201,2.512,0.302v-2.612h2.411v2.813c0.804,0.101,1.708,0.2,2.512,0.2v-3.014h2.411v3.215h2.511v-3.215
	h2.411v3.215h2.512v-3.215h2.411v3.215h2.512v-3.215h2.411v3.215c0.804-0.101,1.607-0.201,2.511-0.201v-3.014h2.411v2.713
	c0.804-0.101,1.708-0.201,2.512-0.201v-2.512h2.411v2.311c0.804-0.101,1.708-0.101,2.512-0.2v-2.01h2.411v1.809
	c0.804-0.101,1.707-0.101,2.511-0.201v-1.708h2.411v1.507c0.804-0.1,1.708-0.1,2.512-0.1v-1.407h2.411v1.206
	c0.804,0,1.708-0.101,2.512-0.101v-1.105h2.411v1.105c0.803,0,1.707,0,2.511,0v-1.005h2.411v1.005c0.804,0,1.708,0,2.512,0v-1.105
	h2.411v1.105c0.904,0,1.708,0.101,2.512,0.101v-1.206h2.41v1.507c0.904,0.101,1.708,0.201,2.512,0.201v-1.708h2.411v2.01
	c0.101,0,0.201,0,0.302,0c0,0,0.804,0.201,2.21,0.301v-2.311h2.411v2.612c0.804,0,1.607,0.101,2.512,0.101v-2.713h2.41v2.612
	c0.804,0,1.708-0.101,2.512-0.201v-2.411h2.411v2.11c0.703-0.101,1.607-0.101,2.512-0.201v-1.909h2.411v1.708
	c0.804-0.101,1.607-0.101,2.512-0.201v-1.507h2.41v1.507c0.804,0,1.708-0.1,2.512-0.1v-1.407h2.411v1.307c0.804,0,1.708,0,2.512,0
	v-1.307h2.411v1.307c0.804,0,1.708,0,2.511,0v-1.307h2.411v1.407c0.804,0,1.708,0.1,2.512,0.1v-1.507h2.411v1.708
	c0.804,0.101,1.708,0.101,2.512,0.201v-1.909h2.411v2.11c0.2,0,0.401,0,0.603,0.101l1.908,0.1v-2.311h2.411v2.512l2.512,0.201
	v-2.713h2.411v2.813l2.512,0.2v-3.014h2.712v2.914l2.512-0.201v-2.713h2.411v2.612l2.511-0.201v-2.411h2.411v2.311l1.909-0.101
	c0.201,0,0.401,0,0.603-0.1v-2.11h2.411v1.909c0.804-0.101,1.708-0.101,2.512-0.201v-1.708h2.411v1.607
	c0.904,0,1.707-0.101,2.511-0.101v-1.507h2.411v1.407c0.904,0,1.708,0,2.512,0v-1.407h2.411v1.307c0.904,0,1.708,0,2.512,0v-1.307
	h2.411v1.407c0.903,0,1.707,0.1,2.511,0.1v-1.507h2.411v1.607c0.904,0,1.708,0.101,2.512,0.201v-1.809h2.411v1.909
	c1.005,0.101,1.809,0.201,2.512,0.201v-2.11h2.411v2.411c0.903,0.101,1.707,0.201,2.511,0.201v-2.612h2.411v2.713
	c0.904,0,1.809,0,2.512-0.101v-2.612h2.411v2.411c1.406-0.201,2.21-0.301,2.21-0.301c0.101,0,0.201,0,0.302,0v-2.01h2.411v1.708
	c0.803-0.101,1.707-0.201,2.511-0.201v-1.607h2.411v1.307c0.804-0.101,1.708-0.101,2.512-0.101v-1.206h2.411v1.105
	c0.804,0,1.708,0,2.512,0v-1.005h2.411v1.005c0.803,0,1.707,0,2.511,0v-1.105h2.411v1.105c0.904,0,1.708,0.101,2.512,0.101v-1.206
	h2.411v1.407c0.904,0,1.708,0.1,2.512,0.1v-1.507h2.411v1.708c0.903,0.101,1.707,0.101,2.511,0.201v-1.909h2.411v2.01
	c0.904,0.101,1.708,0.101,2.512,0.201v-2.211h2.411v2.512c0.904,0.101,1.708,0.201,2.512,0.201v-2.713h2.41v3.014
	c0.904,0.101,1.708,0.201,2.512,0.201v-3.215h2.411v3.215h2.512v-3.215h2.411v3.215h2.512v-3.215h2.41v3.215h2.512v-3.215h2.411
	v3.114c0.904-0.101,1.708-0.2,2.512-0.2v-2.914h2.411v2.612c0.904-0.101,1.808-0.201,2.511-0.302v-2.311h2.411v2.01
	c0.302,0,0.503-0.101,0.503-0.101c0.703-0.101,1.406-0.201,2.009-0.201v-1.708h2.411v1.407c0.904-0.101,1.708-0.101,2.512-0.101
	v-1.307h2.411v1.307c0.904,0,1.708,0,2.511,0.101v-1.407h2.512v1.407c0.804,0,1.708-0.101,2.512-0.101v-1.307h2.411v1.307
	c0.804,0,1.708,0.101,2.512,0.101v-1.407h2.411v1.708c0.703,0.101,1.306,0.201,2.009,0.201c0,0,0.201,0,0.502,0.101v-2.01h2.411
	v2.311c0.703,0.101,1.607,0.201,2.512,0.302v-2.612h2.411v2.813c0.804,0.101,1.708,0.2,2.512,0.2v-3.014h2.411v3.215h2.511v-3.215
	h2.411v3.215h2.512v-3.215h2.411v3.215h2.512v-3.215h2.41v3.215c0.804-0.101,1.607-0.201,2.512-0.201v-3.014h2.411v2.713
	c0.804-0.101,1.708-0.201,2.512-0.201v-2.512h2.411v2.311c0.804-0.101,1.708-0.101,2.512-0.2v-2.01h2.41v1.809
	c0.804-0.101,1.708-0.101,2.512-0.201v-1.708h2.411v1.507c0.804-0.1,1.708-0.1,2.512-0.1v-1.407h2.411v1.206
	c0.804,0,1.708-0.101,2.512-0.101v-1.105h2.411v1.105c0.803,0,1.707,0,2.511,0v-1.005h2.411v1.005c0.804,0,1.708,0,2.512,0v-1.105
	h2.411v1.105c0.904,0,1.708,0.101,2.512,0.101v-1.206h2.411v1.507c0.903,0.101,1.707,0.201,2.511,0.201v-1.708h2.411v2.01
	c0.101,0,0.201,0,0.302,0c0,0,0.804,0.201,2.21,0.301v-2.311h2.411v2.612c0.804,0,1.607,0.101,2.512,0.101v-2.713h2.411v2.612
	c0.804,0,1.707-0.101,2.511-0.201v-2.411h2.411v2.11c0.703-0.101,1.607-0.101,2.512-0.201v-1.909h2.411v1.708
	c0.804-0.101,1.607-0.101,2.512-0.201v-1.507h2.411v1.507c0.804,0,1.707-0.1,2.511-0.1v-1.407h2.411v1.307c0.804,0,1.708,0,2.512,0
	v-1.307h2.411v1.307c0.804,0,1.708,0,2.512,0v-1.307h2.411v1.407c0.804,0,1.708,0.1,2.512,0.1v-1.507h2.41v1.708
	c0.804,0.101,1.708,0.101,2.512,0.201v-1.909h2.411v2.11c0.201,0,0.402,0,0.603,0.101l1.909,0.1v-2.311h2.411v2.512l2.512,0.201
	v-2.713h2.41v2.813l2.512,0.2v-3.014h2.411v-2.311h-2.411v-10.95H614.8L614.8,775.576z M7.723,786.526H5.312v-10.95h2.411V786.526z
	 M12.645,786.526h-2.411v-10.95h2.411V786.526L12.645,786.526z M17.568,786.526h-2.411v-10.95h2.411V786.526z M22.49,786.526h-2.411
	v-10.95h2.411V786.526z M27.412,786.526h-2.311v-10.95h2.411v10.95H27.412z M32.335,786.526h-2.411v-10.95h2.411V786.526z
	 M37.258,786.526h-2.411v-10.95h2.411V786.526z M42.18,786.526h-2.411v-10.95h2.411V786.526z M47.103,786.526h-2.411v-10.95h2.411
	V786.526z M52.026,786.526h-2.411v-10.95h2.411V786.526z M56.948,786.526h-2.411v-10.95h2.411V786.526z M61.971,786.526H59.56
	v-10.95h2.411V786.526z M66.893,786.526h-2.41v-10.95h2.41V786.526z M71.816,786.526h-2.411v-10.95h2.411V786.526z M76.739,786.526
	h-2.411v-10.95h2.411V786.526z M81.66,786.526h-2.41v-10.95h2.41V786.526z M86.583,786.526h-2.411v-10.95h2.411V786.526z
	 M91.506,786.526h-2.411v-10.95h2.411V786.526z M96.428,786.526h-2.41v-10.95h2.41V786.526z M101.351,786.526H98.94v-10.95h2.411
	V786.526z M106.274,786.526h-2.411v-10.95h2.411V786.526z M111.196,786.526h-2.41v-10.95h2.41V786.526z M116.118,786.526h-2.411
	v-10.95h2.411V786.526z M121.041,786.526h-2.411v-10.95h2.411V786.526z M125.963,786.526h-2.411v-10.95h2.411V786.526z
	 M130.886,786.526h-2.411v-10.95h2.411V786.526z M135.809,786.526h-2.411v-10.95h2.411V786.526z M140.731,786.526h-2.411v-10.95
	h2.411V786.526z M145.654,786.526h-2.411v-10.95h2.411V786.526z M150.576,786.526h-2.411v-10.95h2.411V786.526z M155.699,786.526
	h-2.512v-10.95h2.512V786.526z M160.622,786.526h-2.411v-10.95h2.411V786.526z M165.544,786.526h-2.41v-10.95h2.41V786.526z
	 M170.467,786.526h-2.411v-10.95h2.411V786.526z M175.39,786.526h-2.411v-10.95h2.411V786.526z M180.312,786.526h-2.41v-10.95h2.41
	V786.526z M185.235,786.526h-2.411v-10.95h2.411V786.526z M190.157,786.526h-2.311v-10.95h2.411v10.95H190.157z M195.079,786.526
	h-2.411v-10.95h2.411V786.526z M200.002,786.526h-2.411v-10.95h2.411V786.526z M204.925,786.526h-2.411v-10.95h2.411V786.526z
	 M209.847,786.526h-2.411v-10.95h2.411V786.526z M214.77,786.526h-2.411v-10.95h2.411V786.526z M219.693,786.526h-2.411v-10.95
	h2.411V786.526z M224.615,786.526h-2.411v-10.95h2.411V786.526z M229.537,786.526h-2.411v-10.95h2.411V786.526z M234.561,786.526
	h-2.411v-10.95h2.411V786.526z M239.483,786.526h-2.411v-10.95h2.411V786.526L239.483,786.526z M244.406,786.526h-2.411v-10.95
	h2.411V786.526z M249.328,786.526h-2.411v-10.95h2.411V786.526z M254.25,786.526h-2.411v-10.95h2.411V786.526z M259.173,786.526
	h-2.411v-10.95h2.411V786.526z M264.095,786.526h-2.41v-10.95h2.41V786.526z M269.018,786.526h-2.411v-10.95h2.411V786.526z
	 M273.941,786.526h-2.411v-10.95h2.411V786.526z M278.863,786.526h-2.41v-10.95h2.41V786.526z M283.785,786.526h-2.411v-10.95h2.411
	V786.526z M288.708,786.526h-2.411v-10.95h2.411V786.526z M293.63,786.526h-2.41v-10.95h2.41V786.526z M298.553,786.526h-2.411
	v-10.95h2.411V786.526z M303.476,786.526h-2.411v-10.95h2.411V786.526z M305.987,786.526v-10.95h2.713v10.95H305.987z
	 M313.722,786.526h-2.411v-10.95h2.411V786.526z M318.645,786.526h-2.411v-10.95h2.411V786.526z M323.568,786.526h-2.411v-10.95
	h2.411V786.526z M328.49,786.526h-2.411v-10.95h2.411V786.526z M333.412,786.526h-2.411v-10.95h2.411V786.526z M338.335,786.526
	h-2.411v-10.95h2.411V786.526z M343.257,786.526h-2.411v-10.95h2.411V786.526z M348.18,786.526h-2.411v-10.95h2.411V786.526z
	 M353.103,786.526h-2.411v-10.95h2.411V786.526z M358.025,786.526h-2.411v-10.95h2.411V786.526z M362.948,786.526h-2.411v-10.95
	h2.411V786.526z M367.87,786.526h-2.411v-10.95h2.411V786.526z M372.792,786.526h-2.411v-10.95h2.411V786.526z M377.715,786.526
	h-2.411v-10.95h2.411V786.526z M382.638,786.526h-2.411v-10.95h2.411V786.526z M387.56,786.526h-2.411v-10.95h2.411V786.526z
	 M392.483,786.526h-2.411v-10.95h2.411V786.526z M397.406,786.526h-2.411v-10.95h2.411V786.526z M402.327,786.526h-2.411v-10.95
	h2.411V786.526z M407.25,786.526h-2.411v-10.95h2.411V786.526z M412.173,786.526h-2.311v-10.95h2.41v10.95H412.173z
	 M417.095,786.526h-2.411v-10.95h2.411V786.526z M422.018,786.526h-2.411v-10.95h2.411V786.526z M426.941,786.526h-2.411v-10.95
	h2.411V786.526z M431.963,786.526h-2.411v-10.95h2.411V786.526z M436.785,786.526h-2.411v-10.95h2.411V786.526L436.785,786.526z
	 M441.808,786.526h-2.41v-10.95h2.41V786.526z M446.731,786.526h-2.411v-10.95h2.411V786.526z M451.654,786.526h-2.411v-10.95h2.411
	V786.526z M456.575,786.526h-2.41v-10.95h2.41V786.526z M461.599,786.526h-2.512v-10.95h2.512V786.526z M466.522,786.526h-2.411
	v-10.95h2.411V786.526z M471.544,786.526h-2.411v-10.95h2.411V786.526z M476.366,786.526h-2.411v-10.95h2.411V786.526z
	 M481.389,786.526h-2.41v-10.95h2.41V786.526z M486.312,786.526h-2.411v-10.95h2.411V786.526z M491.235,786.526h-2.411v-10.95h2.411
	V786.526z M496.156,786.526h-2.41v-10.95h2.41V786.526z M501.079,786.526h-2.411v-10.95h2.411V786.526z M506.002,786.526h-2.411
	v-10.95h2.411V786.526z M510.924,786.526h-2.41v-10.95h2.41V786.526z M515.847,786.526h-2.411v-10.95h2.411V786.526z
	 M520.77,786.526h-2.411v-10.95h2.411V786.526z M525.692,786.526h-2.41v-10.95h2.41V786.526z M530.615,786.526h-2.411v-10.95h2.411
	V786.526z M535.537,786.526h-2.411v-10.95h2.411V786.526z M540.459,786.526h-2.41v-10.95h2.41V786.526z M545.382,786.526h-2.411
	v-10.95h2.411V786.526z M550.305,786.526h-2.411v-10.95h2.411V786.526z M555.227,786.526h-2.41v-10.95h2.41V786.526z
	 M560.15,786.526h-2.411v-10.95h2.411V786.526z M565.073,786.526h-2.411v-10.95h2.411V786.526z M569.994,786.526h-2.41v-10.95h2.41
	V786.526z M574.917,786.526h-2.311v-10.95h2.411v10.95H574.917z M579.84,786.526h-2.411v-10.95h2.411V786.526z M584.762,786.526
	h-2.411v-10.95h2.411V786.526z M589.685,786.526h-2.411v-10.95h2.411V786.526z M594.608,786.526h-2.411v-10.95h2.411V786.526z
	 M599.63,786.526h-2.411v-10.95h2.411V786.526z M604.452,786.526h-2.411v-10.95h2.411V786.526z M609.476,786.526h-2.411v-10.95
	h2.411V786.526z"/>
</svg>
