<?xml version="1.0" encoding="utf-8"?>
<!-- Generator: Adobe Illustrator 18.0.0, SVG Export Plug-In . SVG Version: 6.00 Build 0)  -->
<!DOCTYPE svg PUBLIC "-//W3C//DTD SVG 1.1//EN" "http://www.w3.org/Graphics/SVG/1.1/DTD/svg11.dtd">
<svg version="1.1" id="Layer_1" xmlns="http://www.w3.org/2000/svg" xmlns:xlink="http://www.w3.org/1999/xlink" x="0px" y="0px"
	 viewBox="0 0 413.8 369.5" style="enable-background:new 0 0 413.8 369.5;" xml:space="preserve">
<style type="text/css">
	.st0{fill:#1B364E;}
</style>
<path class="st0" d="M135.1,241.8c5-12.1,6.3-25.4,12.3-37.1c-12.2,3.1-27.3,3.1-34.8,13.9c-12.1,17.6-13,40.5-24.1,58.5
	c9.5-21.3,6.1-43.7,11.7-65.7c-11.7,4.5-27,15.9-35.5,24.6c-5.2,5.2-7.7,11.8-7.8,18.8c0,1.5-0.3,24.4-2.7,23.2
	c-4.9-2.5-5.8-23.8-5.6-28.6c-25.6,20.9-1.3,46.1-8.5,71.4c-11-8.9-8.1-23.8-16-34.2c-8.9,18.3-24.9,38.1-24,58.9
	c1.4,32.6,59.9,17.4,77.8,9.5c-0.4-0.1-20.9-3-19.4-4.8c4.3-5.1,27.7-5.8,34.3-6.7c15.5-2.2,27.9-19.1,34.1-31.4
	c-3.7-1.8-21.8-5.2-20.2-10.8c0.5-1.9,19.8,3.5,23.9,3.5c7.9-0.2,14.3-3.8,19.2-9.2c-6.3-0.6-29.7-0.3-33.6-5.8
	c-1.7-2.4,58.7-3.1,44-20c-8.3-9.6-28.6-2.3-38.8-10.4c10.6-4.3,21.7-1.6,32.8-1.1c15.3,0.7,20.1-8.5,26.5-19.3
	c-0.1,0-16.8-2.7-14.8-4.4c1-0.4,2.1-0.7,3.1-1.1c5.7-1.2,11.5-2.3,17.2-3.3c5-7.3,10.8-14.3,18.5-19.5
	C171.6,204.7,148,213.6,135.1,241.8z"/>
<g>
	<g>
		<g>
			<path class="st0" d="M232.8,92.7c0.3,0,1.2,9.9,2.6,21.7c13.2,95.7,43,172.4,96.7,239c6.7,8.3,11.9,15.4,11,15.9
				c-0.9,0.5-7.5-5.7-14.1-14c-53.2-67.2-82.3-144.5-94.8-240.8C232.8,102.8,232.5,92.7,232.8,92.7z"/>
		</g>
	</g>
	<path class="st0" d="M205.1,72.5c21,26.1,24.7,25,26.9,21.6c2.3-3.6,2.2-8.1-19.1-34.9c-21.3-27-40.4-45.4-41.4-43.3
		C170.6,17.9,184.2,46.4,205.1,72.5z"/>
	<path class="st0" d="M203,126.1c28.1,22.9,32.5,21.2,34.7,16.5c2.3-4.7,1.4-10.3-27-34.2c-28.3-24.1-52.8-36-53.8-33.2
		C156,77.9,175.1,103.3,203,126.1z"/>
	<path class="st0" d="M207.6,177.1c32.3,8.4,36.2,5.6,36.9,0.2c1-5.1-1.4-10.7-33.7-19.7c-32.1-8.9-57.9-4.9-58.4-2.1
		C152.1,158.2,175.6,168.9,207.6,177.1z"/>
	<path class="st0" d="M214.6,225.6c37.1-0.5,40.7-4.1,40.6-10.1c0.1-5.5-3.5-11.1-40.3-10.6c-36.5,0.7-64.8,14.1-65,16.8
		C149.9,224.5,177.7,226.4,214.6,225.6z"/>
	<path class="st0" d="M227.4,271.1c40.1-5.2,43.4-9.4,42.7-15.4c-0.5-5.6-4.8-10.8-44.2-5c-39.1,6-69.1,23.3-69.2,25.8
		C156.7,279,187.4,276.6,227.4,271.1z"/>
	<path class="st0" d="M242.8,315.2c45.4-4.7,49-9,48.2-15.2c-0.6-5.8-5.4-11.2-49.7-5.6c-44,5.8-78.2,23.6-78.4,26.2
		C162.9,323,197.6,320.1,242.8,315.2z"/>
	<path class="st0" d="M261,357.7c53.6-6.1,57.1-11.1,55.6-17.9c-1.3-6.3-7.1-11.9-59-4c-51.6,8.1-92.4,28.8-92.7,31.2
		C164.8,369.5,207.4,363.8,261,357.7z"/>
	<path class="st0" d="M262.5,104.7c-15.8,36.3-20.4,36.6-24.2,33.7c-3.9-3-5.5-8.2,9.8-45.1c15.2-37.1,32.5-62.9,34.6-61.2
		C284.7,33.6,278.3,68.3,262.5,104.7z"/>
	<path class="st0" d="M274.1,145.1c-20,32.4-24.7,32.1-28.2,28.8c-3.6-3.4-4.7-8.6,14.7-41.6c19.3-33,40.2-55.5,42.2-53.8
		C304.7,80.2,294,112.6,274.1,145.1z"/>
	<path class="st0" d="M288.8,183.5c-21.5,35.8-27,35.3-31,32c-4.2-3.5-5.4-8.7,15.6-45c20.8-36.4,43.3-62.5,45.5-60.8
		C321.1,111.4,310.2,147.5,288.8,183.5z"/>
	<path class="st0" d="M309.2,229.9c-28.4,31.6-34.2,30-38,26c-3.9-4.3-4.3-9.7,23.4-41.8c27.5-32.2,55.4-55.2,57.5-53.2
		C354.1,163,337.4,198.1,309.2,229.9z"/>
	<path class="st0" d="M331.7,268.5c-28.9,35.7-35.8,33.9-40.2,30.1c-4.7-4.4-5.3-9.5,23.1-45.7c27.9-36.5,55.9-64.7,58.3-62.7
		C375.1,192.2,360.2,232.4,331.7,268.5z"/>
	<path class="st0" d="M366.4,308c-34.1,38.2-42.7,35-47.6,30.8c-5.5-5.3-5.7-10.3,28-49.1c33.2-39.3,64.3-71.8,66.8-69.4
		C415.8,222.5,399.8,269,366.4,308z"/>
	<path class="st0" d="M239.9,54.8c-10.6,32.8-9,37.2-5.6,39.6c3.3,2.3,7,1.8,17.9-30.5C263,31.7,266.4,1.4,264.7,0.1
		C263-1.3,250.4,21.9,239.9,54.8z"/>
</g>
</svg>
