<?xml version="1.0" encoding="utf-8"?>
<!-- Generator: Adobe Illustrator 18.0.0, SVG Export Plug-In . SVG Version: 6.00 Build 0)  -->
<!DOCTYPE svg PUBLIC "-//W3C//DTD SVG 1.1//EN" "http://www.w3.org/Graphics/SVG/1.1/DTD/svg11.dtd">
<svg version="1.1" id="Layer_1" xmlns="http://www.w3.org/2000/svg" xmlns:xlink="http://www.w3.org/1999/xlink" x="0px" y="0px"
	 viewBox="0 0 358.3 343" style="enable-background:new 0 0 358.3 343;" xml:space="preserve">
<style type="text/css">
	.st0{fill:#1B364E;}
</style>
<g>
	<g>
		<g>
			<path class="st0" d="M264,94.2c0.2,0.2-7.5,6.6-16.3,14.6c-71,65.6-116.8,133.9-140.7,216.1c-3,10.2-5.8,18.5-6.8,18.1
				c-0.9-0.4,0.4-9.4,3.4-19.6c24.7-82.1,71.5-150.1,143.3-215.5C255.8,99.9,263.8,93.9,264,94.2z"/>
		</g>
	</g>
	<path class="st0" d="M264.8,59.9c-9.4,32.1-6.4,34.6-2.3,34.5c4.3-0.2,7.9-2.8,17.7-35.6C290.2,25.8,294.3-0.4,292,0
		C289.8,0.4,274.2,27.8,264.8,59.9z"/>
	<path class="st0" d="M219.6,88.8c-2.7,36.2,1.2,38.8,6.3,37.9c5.1-0.8,9.3-4.7,12.6-41.8c3.6-37-0.7-63.9-3.5-63.1
		C232.2,22.7,222.3,52.9,219.6,88.8z"/>
	<path class="st0" d="M180.4,121.7c11.5,31.3,16.1,32.9,20.9,30.4c4.8-2.1,8-7.3-3.2-38.9c-11.1-31.4-29.1-50.3-31.7-49.1
		C164.1,65.4,168.8,90.8,180.4,121.7z"/>
	<path class="st0" d="M144.6,155.3c21.6,30.1,26.7,31,31.5,27.5c4.6-3,7.1-9.2-14.4-39.1c-21.5-29.5-48.6-45.1-50.9-43.7
		C108.5,101.5,122.9,125.5,144.6,155.3z"/>
	<path class="st0" d="M114.5,191.8c27.2,29.9,32.5,30.2,37,26.2c4.3-3.6,6.1-10.1-21.1-39.1c-27.3-28.7-58.6-43.4-60.7-42
		C67.7,138.3,87.3,162.1,114.5,191.8z"/>
	<path class="st0" d="M87.2,229.7c29.8,34.5,35.4,35.1,40.1,30.8c4.4-3.8,6.1-10.8-23.8-44c-30-32.8-64.1-50.6-66.3-49.3
		C35.1,168.5,57.3,195.3,87.2,229.7z"/>
	<path class="st0" d="M62.7,268.9c35.7,40.4,41.7,40.4,46.5,35.4c4.5-4.7,5.7-12.6-30.5-50.6C42.6,216,2.2,194.2,0.1,195.5
		C-1.9,196.7,27.1,228.4,62.7,268.9z"/>
	<path class="st0" d="M271.2,125.4c-38.8,7.8-41.7,4.2-41.5-0.6c0.2-4.9,3.5-9.2,42.6-17.7c39.1-8.8,70.2-9.3,70-6.6
		C342.2,103,310.1,117.5,271.2,125.4z"/>
	<path class="st0" d="M244.7,158c-38,2.2-40.4-1.9-39.7-6.7c0.7-4.9,4.3-8.8,42.5-11.7c38.1-3,68.5,1.2,68.2,3.8
		C315.4,146,282.7,155.7,244.7,158z"/>
	<path class="st0" d="M221.6,192c-41.6,2.8-44.4-1.9-44-7.1c0.5-5.4,4.1-9.4,45.8-12.9c41.7-3.7,76-0.2,75.9,2.6
		C299.2,177.3,263.3,189,221.6,192z"/>
	<path class="st0" d="M195.2,235.3c-42.1-5.2-44.2-10.9-43-16.3c1.3-5.7,5.5-9.1,47.7-4.7c42.2,4.2,77,13.8,76.5,16.7
		C275.8,233.9,237.4,240.3,195.2,235.3z"/>
	<path class="st0" d="M176.4,275.9c-45.8-3.3-48.3-10-47.7-15.7c0.9-6.4,4.8-9.8,50.7-7.2c45.9,2,85,8.8,84.8,11.9
		C263.8,267.8,222.3,278.6,176.4,275.9z"/>
	<path class="st0" d="M163.9,326.9c-50.8-6.2-53.2-15-52.5-21.4c1.2-7.5,5.2-10.6,56.3-5.1c51.2,4.8,95.7,11.7,95.1,15.1
		C262.2,318.5,214.9,332,163.9,326.9z"/>
	<path class="st0" d="M299.2,78.3c-33,10.1-35.7,13.9-35.7,18.1c0,4,2.6,6.8,35.2-2.8c32.6-9.6,59.4-24.2,59.6-26.3
		C358.4,65.1,332.2,68.1,299.2,78.3z"/>
</g>
</svg>
