<?xml version="1.0" encoding="utf-8"?>
<!-- Generator: Adobe Illustrator 16.0.0, SVG Export Plug-In . SVG Version: 6.00 Build 0)  -->
<!DOCTYPE svg PUBLIC "-//W3C//DTD SVG 1.1//EN" "http://www.w3.org/Graphics/SVG/1.1/DTD/svg11.dtd">
<svg version="1.1" id="Layer_1" xmlns="http://www.w3.org/2000/svg" xmlns:xlink="http://www.w3.org/1999/xlink" x="0px" y="0px"
	 width="416.477px" height="791.307px" viewBox="97.762 0 416.477 791.307" enable-background="new 97.762 0 416.477 791.307"
	 xml:space="preserve">
<path fill="#FFFFFF" d="M97.762,27.071L97.762,27.071c0-7.636,2.776-13.883,7.635-19.436C110.95,2.776,117.198,0,124.832,0h362.335
	c7.636,0,13.883,2.776,19.436,7.636c4.858,5.553,7.636,11.8,7.636,19.436l0,0c0,6.941-2.777,13.883-7.636,18.741
	c-5.553,5.554-11.8,8.33-19.436,8.33H124.832c-7.635,0-13.882-2.776-19.436-8.33C100.538,40.954,97.762,34.707,97.762,27.071z"/>
<path fill="#FFFFFF" d="M97.762,131.19L97.762,131.19c0-7.636,2.776-13.883,7.635-19.436c5.554-4.859,11.801-7.636,19.436-7.636
	h362.335c7.636,0,13.883,2.776,19.436,7.636c5.553,5.553,7.636,11.8,7.636,19.436l0,0c0,6.941-2.777,13.883-7.636,18.741
	c-5.553,5.554-11.8,8.33-19.436,8.33H124.832c-7.635,0-13.882-2.776-19.436-8.33C100.538,145.073,97.762,138.826,97.762,131.19z"/>
<path fill="#FFFFFF" d="M97.762,236.004L97.762,236.004c0-7.636,2.776-13.883,7.635-19.436c5.554-5.553,11.801-7.636,19.436-7.636
	h362.335c7.636,0,13.883,2.776,19.436,7.636c4.858,5.553,7.636,11.8,7.636,19.436l0,0c0,6.941-2.777,13.883-7.636,18.741
	c-5.553,5.553-11.8,8.33-19.436,8.33H124.832c-7.635,0-13.882-2.777-19.436-8.33C100.538,249.192,97.762,242.945,97.762,236.004z"/>
<path fill="#FFE400" d="M97.762,555.997L97.762,555.997c0-7.636,2.776-13.883,7.635-19.436c5.554-5.553,11.801-7.636,19.436-7.636
	h362.335c7.636,0,13.883,2.776,19.436,7.636c5.553,5.553,7.636,11.8,7.636,19.436l0,0c0,6.941-2.777,13.883-7.636,18.741
	c-5.553,5.553-11.8,8.33-19.436,8.33H124.832c-7.635,0-13.882-2.777-19.436-8.33C100.538,569.185,97.762,562.938,97.762,555.997z"/>
<path fill="#FFE400" d="M97.762,660.116L97.762,660.116c0-7.636,2.776-13.883,7.635-19.436c5.554-5.553,11.801-7.636,19.436-7.636
	h362.335c7.636,0,13.883,2.776,19.436,7.636c5.553,5.553,7.636,11.8,7.636,19.436l0,0c0,6.941-2.777,13.883-7.636,18.741
	c-5.553,5.554-11.8,8.33-19.436,8.33H124.832c-7.635,0-13.882-2.777-19.436-8.33C100.538,673.999,97.762,667.752,97.762,660.116z"/>
<path fill="#FFE400" d="M97.762,764.235L97.762,764.235c0-7.636,2.776-13.883,7.635-19.436c5.554-5.553,11.801-7.636,19.436-7.636
	h362.335c7.636,0,13.883,2.776,19.436,7.636c5.553,5.553,7.636,11.8,7.636,19.436l0,0c0,6.941-2.777,13.883-7.636,18.741
	c-5.553,5.554-11.8,8.33-19.436,8.33H124.832c-7.635,0-13.882-2.776-19.436-8.33C100.538,778.118,97.762,771.871,97.762,764.235z"/>
</svg>
