<?xml version="1.0" encoding="utf-8"?>
<!-- Generator: Adobe Illustrator 16.0.0, SVG Export Plug-In . SVG Version: 6.00 Build 0)  -->
<!DOCTYPE svg PUBLIC "-//W3C//DTD SVG 1.1//EN" "http://www.w3.org/Graphics/SVG/1.1/DTD/svg11.dtd">
<svg version="1.1" id="Layer_1" xmlns="http://www.w3.org/2000/svg" xmlns:xlink="http://www.w3.org/1999/xlink" x="0px" y="0px"
	 width="611.054px" height="239.624px" viewBox="0 276.427 611.054 239.624" enable-background="new 0 276.427 611.054 239.624"
	 xml:space="preserve">
<circle fill="#FFFFFF" cx="492.667" cy="396.24" r="103.518"/>
<circle fill="#FFFFFF" cx="118.854" cy="396.24" r="103.518"/>
<path fill="#FFE400" d="M492.667,276.427c-44.091,0-84.348,24.441-105.435,63.261c-9.106,4.793-32.589,15.815-37.382,9.105
	c0,0,0-0.479-0.479-0.479c-11.502-15.815-24.441-23.483-41.694-23.483c-16.773,0-30.192,7.188-41.215,23.004
	c0,0.479-0.479,0.479-0.479,0.958c-6.23,8.147-41.215-11.502-41.215-11.502l0,0c-22.046-37.381-61.823-60.864-104.956-60.864
	C53.676,276.427,0,330.103,0,396.24c0,66.136,53.676,119.812,119.812,119.812c27.797,0,54.635-9.585,75.722-27.316l1.917-1.438
	l1.917,0.959c16.294,9.105,29.234,9.105,38.34-0.479c0,0,10.064-10.543,18.69-54.155v-0.958l0.959-0.479
	c5.271-4.313,11.022-13.898,17.731-16.773l1.438-0.479l1.438,0.479c10.064,7.188,17.253,11.022,29.233,11.022
	c11.981,0,19.649-3.834,29.234-11.022l1.438-0.959l1.438,0.479c6.709,2.875,12.939,12.461,17.731,16.773l0.959,0.479v0.959
	c8.626,43.132,18.211,53.676,18.69,54.154c8.627,9.585,21.087,10.064,36.902,1.438l1.917-0.959l1.438,1.438
	c21.566,17.253,47.445,26.359,74.763,26.359c66.137,0,119.333-53.676,119.333-119.813C612,330.103,558.324,276.427,492.667,276.427z
	 M119.812,496.403c-55.593,0-100.642-45.05-100.642-100.643c0-55.113,45.049-100.163,100.642-100.163s100.643,45.05,100.643,100.643
	C219.975,451.353,174.926,496.403,119.812,496.403z M492.667,496.403c-55.593,0-100.643-45.05-100.643-100.643
	s45.05-100.643,100.643-100.643s100.642,45.05,100.642,100.643C592.83,451.353,547.781,496.403,492.667,496.403z"/>
</svg>
