<?xml version="1.0" encoding="utf-8"?>
<!-- Generator: Adobe Illustrator 16.0.0, SVG Export Plug-In . SVG Version: 6.00 Build 0)  -->
<!DOCTYPE svg PUBLIC "-//W3C//DTD SVG 1.1//EN" "http://www.w3.org/Graphics/SVG/1.1/DTD/svg11.dtd">
<svg version="1.1" id="Layer_1" xmlns="http://www.w3.org/2000/svg" xmlns:xlink="http://www.w3.org/1999/xlink" x="0px" y="0px"
	 width="284.197px" height="791.538px" viewBox="162.971 -0.001 284.197 791.538"
	 enable-background="new 162.971 -0.001 284.197 791.538" xml:space="preserve">
<path fill="#FFFFFF" d="M334.886,29.411c-39.215-39.216-102.939-39.216-142.504,0c-39.215,39.215-39.215,102.938,0,142.504
	c35.013,35.014,89.634,38.864,128.849,11.205l9.804,7.002c-1.051,2.45-2.101,6.651,0,9.454l0,0l0,0c0,0.35,0.351,0.35,0.7,0.699
	l3.853,3.853c0,0,1.399-0.7,3.852-0.352c0.7,0,1.75,0.352,2.45,1.052c0,0,0,0,0.351,0c1.4,0.699,3.151,2.101,4.901,4.2
	c0,0,5.252,5.952,8.754,12.256c0.35,0.699-4.902,1.751,9.104,13.654c0.351,0.351,9.104,7.354,12.604,9.805
	c1.4,1.05,2.801,2.101,3.852,2.801c1.751,8.053,5.952,13.305,8.403,15.756c0.35,0.351,0.7,0.7,0.7,0.7
	c0.7,0.7,1.05,1.051,1.05,1.051l1.051-0.7l2.451-1.399c0.35,0,2.102-1.052,4.552-3.503l9.805,9.805l-0.7,1.4l-4.202,7.354
	c0,0,16.106,12.955,32.213,4.201c1.4-0.351,2.45-1.051,3.852-2.102l0.351-0.351l0,0l0.351-0.351l0.351-0.351l0,0l0.351-0.35
	c1.05-1.4,1.75-2.451,2.102-3.853c8.753-16.105-4.202-32.212-4.202-32.212l-7.354,4.201l-1.399,0.7l-9.804-9.805
	c2.101-2.801,3.15-4.201,3.501-4.552l1.4-2.451l0.7-1.05c0,0-0.351-0.351-1.051-1.051c-0.352-0.351-0.7-0.7-0.7-0.7
	c-2.451-2.451-8.053-6.303-15.756-8.403c-1.051-1.399-2.102-2.801-2.802-3.852c-2.45-3.501-9.453-12.254-9.805-12.604
	c-11.903-14.005-12.954-8.753-13.653-9.104c-6.304-3.853-12.256-8.753-12.256-8.753c-2.101-1.751-3.15-3.502-4.201-4.902
	c0,0,0,0,0-0.35c-0.351-1.051-0.7-1.751-1.051-2.451c-0.351-2.451,0.351-3.853,0.351-3.853l-3.853-3.852c0-0.35-0.35-0.35-0.699-0.7
	l0,0l0,0c-2.45-2.101-6.652-1.05-9.453,0l-7.003-9.804C373.75,119.045,369.899,64.774,334.886,29.411z M209.889,154.409
	c-29.762-29.763-29.762-78.08,0-107.842c29.761-29.762,78.079-29.762,107.84,0c29.762,29.762,29.762,78.079,0,107.842
	C287.968,184.17,239.65,184.17,209.889,154.409z"/>
<path fill="#FFE400" d="M334.886,535.702c-39.215-39.215-102.939-39.215-142.504,0c-39.215,39.216-39.215,102.939,0,142.504
	c35.013,35.015,89.634,38.865,128.849,11.205l9.804,7.002c-1.051,2.451-2.101,6.652,0,9.454l0,0l0,0c0,0.351,0.351,0.351,0.7,0.7
	l3.853,3.853c0,0,1.399-0.7,3.852-0.352c0.7,0,1.75,0.352,2.45,1.051c0,0,0,0,0.351,0c1.4,0.7,3.151,2.102,4.901,4.201
	c0,0,5.252,5.952,8.754,12.255c0.35,0.7-4.902,1.751,9.104,13.655c0.351,0.351,9.104,7.354,12.604,9.804
	c1.4,1.051,2.801,2.102,3.852,2.802c1.751,8.053,5.952,13.305,8.403,15.756c0.35,0.351,0.7,0.7,0.7,0.7
	c0.7,0.699,1.05,1.051,1.05,1.051l1.051-0.7l2.451-1.4c0.35,0,2.102-1.051,4.552-3.502l9.805,9.805l-0.7,1.399l-4.202,7.354
	c0,0,16.106,12.955,32.213,4.201c1.4-0.351,2.45-1.051,3.852-2.102l0.351-0.351l0,0l0.351-0.351l0.351-0.351l0,0l0.351-0.35
	c1.05-1.4,1.75-2.451,2.102-3.853c8.753-16.105-4.202-32.213-4.202-32.213l-7.354,4.202l-1.399,0.7l-9.804-9.805
	c2.101-2.801,3.15-4.2,3.501-4.552l1.4-2.451l0.7-1.05c0,0-0.351-0.351-1.051-1.051c-0.352-0.352-0.7-0.7-0.7-0.7
	c-2.451-2.451-8.053-6.303-15.756-8.403c-1.051-1.399-2.102-2.801-2.802-3.852c-2.45-3.501-9.453-12.255-9.805-12.604
	c-11.903-14.006-12.954-8.754-13.653-9.104c-6.304-3.852-12.256-8.753-12.256-8.753c-2.101-1.751-3.15-3.502-4.201-4.902
	c0,0,0,0,0-0.351c-0.351-1.05-0.7-1.75-1.051-2.45c-0.351-2.451,0.351-3.852,0.351-3.852l-3.853-3.853c0-0.351-0.35-0.351-0.699-0.7
	l0,0l0,0c-2.45-2.101-6.652-1.051-9.453,0l-7.003-9.804C373.75,625.337,369.899,570.717,334.886,535.702z M209.889,660.7
	c-29.762-29.762-29.762-78.08,0-107.841c29.761-29.762,78.079-29.762,107.84,0c29.762,29.761,29.762,78.079,0,107.841
	C287.968,690.462,239.65,690.462,209.889,660.7z"/>
</svg>
