<?xml version="1.0" encoding="utf-8"?>
<!-- Generator: Adobe Illustrator 16.0.0, SVG Export Plug-In . SVG Version: 6.00 Build 0)  -->
<!DOCTYPE svg PUBLIC "-//W3C//DTD SVG 1.1//EN" "http://www.w3.org/Graphics/SVG/1.1/DTD/svg11.dtd">
<svg version="1.1" id="Layer_1" xmlns="http://www.w3.org/2000/svg" xmlns:xlink="http://www.w3.org/1999/xlink" x="0px" y="0px"
	 width="559.717px" height="554.64px" viewBox="0 0 559.717 554.64" enable-background="new 0 0 559.717 554.64"
	 xml:space="preserve">
<g>
	<path fill="#1B364E" d="M52.112,456.241c20.823,9.439,30.255,9.695,49.874,20.859c16.175,9.199,68.25,60.811,63.41,75.375
		c-14.074-2.535-30.415-0.473-46.145,0.373c-3.937-11.42-7.094-21.67-7.241-25.617c-0.211-5.475-0.004,8.99,0.74,25.875
		c-11.636,0.295-22.717-0.545-32.028-4.982c-2.714-1.266-5.231-2.779-7.65-4.383l12.37-37.232c0,0-6.341,17.896-16.63,34.219
		c-6.884-5.268-12.932-11.504-19.113-17.572c-4.688-4.76-9.737-9.111-15.155-13.059c5.949-9.172,15.056-16.168,21.341-25.188
		c-7.413,4.326-15.835,7.549-22.956,13.715c-3.599-12.607-11.471-22.654-20.253-30.559c8.674-5.244,10.021-4.711,17.881-12.539
		c-8.75-1.215-14.103,1.213-21.549-2.195C2.182,450.183,0.669,426.339,0,417.944C14.904,425.661,36.442,449.142,52.112,456.241z"/>
</g>
<g>
	<path fill="#1B364E" d="M301.498,461.62c-14.655,2.999-63.668,33.914-42.029-4.968c10.976-22.347,33.878-11.944,55.483,2.256
		c-9.319-13.678-19.849-27.636-29.894-39.819c-10.497-12.667-20.235-23.066-29.094-31.035c-8.397,8.567-30.192,23.662-41.17,41.118
		c-5.311,8.988-20.809,1.11-15.329-5.283c4.222-4.598,39.57-28.435,52.721-39.122c-12.378-10.477-23.517-16.005-34.377-18.801
		c-13.021,13.975-41.023,35.011-46.061,42.129c-7.199,10.648-25.856,6.569-18.325-0.893c5.156-5.234,42.823-27.39,60.864-42.073
		c-18.629-3.868-37.241-1.183-39.232-3.117c0.256-1.182-93.539,21.537-99.739,29.591c-4.318,9.412,7.43,22.717,10.165,31.849
		c88.932,9.192,183.717,73.909,182.391,73.362c-49.205-33.721-148.365-54.596-184.883-65.537
		c-7.779,6.596-4.497,23.125,28.977,54.897c38.815,41.239,35.696,28.497,47.567,38.23c0.457,0.437,1.103,0.965,1.729,1.476
		c-17.694-24.778-40.514-60.162-38.654-65.689c1.972-8.113,11.765-4.533,19.108,21.139c5.274,16.094,20.021,37.541,27.934,50.68
		c7.779,5.183,18.247,10.991,28.722,15.094c-12.066-19.684-31.742-60.743-29.038-67.5c3.163-8.943,13.709-5.176,16.741,20.482
		c2.606,17.51,14.088,38.776,18.412,49.266c7.627,2.597,14.984,4.201,21.176,4.873c-7.475-18.182-24.934-66.852-23.502-70.724
		c1.713-5.044,14.389,3.498,12.427,22.577c-0.703,13.467,12.446,37.964,15.368,48.495c2.478,0.112,4.703,0.091,6.458-0.112
		c4.081-0.487,9.733-2.307,16.462-4.359c-6.782-5.021-9.64-15.38-14.282-27.861c-8.714-20.762,21.463-16.91,18.882,4.97
		c-1.546,9.579,1.332,16.232,4.781,20.114c22.387-8.687,62.37-6.83,55.922,1.846c5.849,1.875,49.854-18.372,4.108-79.082
		C315.641,464.647,308.215,460.091,301.498,461.62z M231.343,432.902c6.713-4.876,42.702-27.072,43.025-18.239
		c5.409,13.938-25.817,17.801-30.597,25.322C239.677,447.3,226.864,437.776,231.343,432.902z M107.735,411.003
		c3.87-4.595,60.961-31.73,68.558-33.354c0.09,0.624-48.343,28.981-52.301,36.578C119.275,422.539,102.636,416.408,107.735,411.003z
		"/>
</g>
<g>
	<path fill="#1B364E" d="M445.285,254.002c-3.424,5.153-6.46,10.477-8.485,15.485c-8.103,20.081-18.944,35.105-23.455,28.19
		c-1.95-2.992,3.288-15.003,12.125-28.272c-7.661,4.606-16.098,7.76-25.979,7.778c-2.211,0.014-4.387-0.101-6.531-0.268
		c-2.916,12.625-4.288,23.313-4.568,25.923c-0.688,6.426-6.286,23.229-15.229,12.586c-10.131-12.048-7.681-27.04-0.869-40.956
		c-7.963-0.732-15.898-0.549-24.299,2.959c-9.006,3.766-16.708,8.806-23.035,14.792c6.165,12.67,14.337,24.706,8.707,34.535
		c-6.005,10.468-11.608-7.369-15.619-26.948c-2.515,3.271-4.694,6.734-6.489,10.39c-10.518,21.396-30.355,55.239-4.436,73.961
		c7.591-10.147,13.854-19.275,26.714-25.887c7.817-4.011,59.155-28.08,87.547-42.717c5.729-3.26,11.757-6.674,18.139-10.253
		c-2.12,1.754-8.945,5.524-18.139,10.253c-89.084,50.852-100.917,65.36-103.606,90.478c-1.437,13.475-2.966,30.185,2.198,43.148
		c5.831,14.659,24.543,18.801,37.423,28.403c0.173-0.056,0.309-0.157,0.485-0.222c-10.18-8.953-24.616-35.187-32.786-44.104
		c-9.935-10.841,11.602-16.717,17.471-8.039c4.225,6.251,19.141,28.723,29.984,41.727c6.283-7.629,9.859-17.285,15.29-24.78
		c7.188-9.924,21.949,2.697,34.343-3.751c0.549-0.286,1.044-0.636,1.583-0.934c-26.433-9.735-67.311-43.312-55.955-41.064
		c11.278,2.226,41.871,23.354,65.309,34.456c12.279-10.722,19.786-26.142,25.188-41.26c-32.233-1.077-65.693-9.059-70.191-10.08
		c-7.596-1.713-14.01-5.913-0.305-11.58c11.276-4.665,40.879,3.866,75.079,7.653c1.403-4.625,2.689-9.071,3.929-13.133
		c1.028-3.376,3.313-6.009,6.334-8.234c-16.406-1.272-32.726-4.589-43.577-8.402c-28.256-9.928,11.225-20.58,50.764-17.741
		c21.082,1.506,33.562-4.984,40.667-11.38c1.315-6.091,1.348-12.534,1.059-19.167c-1.384-31.687,10.362-62.059,37.65-86.063
		c-27.328,16.937-66.233,8.726-93.371,25.464C459.094,241.425,452.309,247.72,445.285,254.002z"/>
</g>
<g>
	<g>
		<g>
			<path fill="#1B364E" d="M361.368,162.656c-0.088-0.183,5.691-4.123,12.41-9.089c54.11-40.971,90.821-85.54,113.185-141.35
				c2.787-6.929,5.334-12.545,5.985-12.202c0.618,0.339-0.908,6.535-3.726,13.471c-22.873,55.69-60.276,100.022-114.939,140.788
				C367.513,159.251,361.471,162.885,361.368,162.656z"/>
		</g>
	</g>
	<path fill="#1B364E" d="M358.451,186.589c8.745-21.816,6.815-23.743,3.981-23.929c-2.988-0.18-5.722,1.433-14.799,23.694
		c-9.262,22.316-13.918,40.336-12.313,40.219C336.906,226.455,349.698,208.366,358.451,186.589z"/>
	<path fill="#1B364E" d="M392.01,169.449c4.393-25.086,1.794-27.21-1.8-26.934c-3.644,0.179-6.798,2.662-11.685,28.319
		c-5.051,25.639-3.907,44.723-1.868,44.363C378.65,214.796,387.68,194.368,392.01,169.449z"/>
	<path fill="#1B364E" d="M421.686,149.154c-5.923-22.653-8.963-24.091-12.55-22.708c-3.477,1.111-6.078,4.536-0.463,27.41
		c5.575,22.713,16.899,37.168,18.756,36.516C429.225,189.63,427.67,171.575,421.686,149.154z"/>
	<path fill="#1B364E" d="M449.022,128.189c-13.028-22.545-16.522-23.529-20.143-21.401c-3.414,1.809-5.59,5.953,7.359,28.301
		c12.982,22.104,30.892,34.83,32.609,34.029C470.522,168.21,462.13,150.5,449.022,128.189z"/>
	<path fill="#1B364E" d="M472.518,104.734c-16.96-22.746-20.643-23.365-24.08-20.857c-3.241,2.206-4.957,6.617,12.09,28.786
		c17.101,21.913,37.994,34.367,39.548,33.55C501.607,145.317,489.551,127.335,472.518,104.734z"/>
	<path fill="#1B364E" d="M494.196,80.108c-18.491-26.181-22.336-26.963-25.895-24.295c-3.346,2.34-5.026,7.136,13.644,32.388
		c18.708,24.967,41.328,39.773,42.939,39.028C526.454,126.413,512.761,106.159,494.196,80.108z"/>
	<path fill="#1B364E" d="M514.015,54.391c-22.165-30.714-26.395-31.136-30.052-27.907c-3.436,2.973-4.87,8.414,17.827,37.485
		c22.69,28.798,49.383,46.743,50.965,46.024C554.231,109.239,536.165,85.137,514.015,54.391z"/>
	<path fill="#1B364E" d="M358.47,140.36c27.646-2.793,29.422-0.047,28.955,3.288c-0.498,3.438-3.107,6.177-31.005,9.462
		c-27.931,3.432-49.708,1.672-49.401-0.173C307.304,151.16,330.778,143.207,358.47,140.36z"/>
	<path fill="#1B364E" d="M379.26,119.392c26.731,1.09,28.121,4.12,27.318,7.424c-0.846,3.397-3.645,5.864-30.512,5.25
		c-26.863-0.503-47.806-5.575-47.429-7.365C329.027,122.955,352.493,118.362,379.26,119.392z"/>
	<path fill="#1B364E" d="M397.71,97.216c29.298,0.915,30.888,4.405,30.244,7.977c-0.729,3.77-3.51,6.295-32.926,5.877
		c-29.406-0.245-53.161-5.046-52.867-7.007C342.451,102.193,368.353,96.43,397.71,97.216z"/>
	<path fill="#1B364E" d="M419.124,68.751c29.084,6.558,30.147,10.652,28.972,14.313c-1.294,3.864-4.449,5.982-33.666,0.017
		c-29.192-5.801-52.833-14.954-52.306-16.93C362.717,64.244,389.979,62.375,419.124,68.751z"/>
	<path fill="#1B364E" d="M435.078,41.699c31.788,5.436,33.074,10.292,32.24,14.26c-1.056,4.392-4.015,6.487-35.911,1.568
		c-31.935-4.581-58.821-12.003-58.413-14.165C373.43,41.377,403.169,36.664,435.078,41.699z"/>
	<path fill="#1B364E" d="M447.321,6.935c35.113,7.804,36.126,14.106,35.2,18.577c-1.324,5.184-4.362,7.018-39.669-0.286
		c-35.472-6.844-66.051-14.716-65.451-17.099C377.992,6.008,411.969-0.168,447.321,6.935z"/>
	<path fill="#1B364E" d="M335.702,171.333c23.745-4.801,25.885-7.283,26.195-10.167c0.302-2.798-1.332-4.92-24.8-0.493
		c-23.463,4.462-43.195,12.804-43.453,14.29C293.372,176.491,311.918,176.228,335.702,171.333z"/>
</g>
</svg>
