<?xml version="1.0" encoding="utf-8"?>
<!-- Generator: Adobe Illustrator 16.0.0, SVG Export Plug-In . SVG Version: 6.00 Build 0)  -->
<!DOCTYPE svg PUBLIC "-//W3C//DTD SVG 1.1//EN" "http://www.w3.org/Graphics/SVG/1.1/DTD/svg11.dtd">
<svg version="1.1" id="Layer_1" xmlns="http://www.w3.org/2000/svg" xmlns:xlink="http://www.w3.org/1999/xlink" x="0px" y="0px"
	 width="471.61px" height="695.508px" viewBox="0 0 471.61 695.508" enable-background="new 0 0 471.61 695.508"
	 xml:space="preserve">
<g>
	<g>
		<g>
			<path fill="#1B364E" d="M215.808,77.04c-0.043,0.214-7.46-0.091-16.33-0.112c-72.066,0.655-131.752,15.528-186.559,49.242
				c-6.813,4.179-12.579,7.382-12.907,6.671c-0.305-0.687,4.973-5.042,11.814-9.208c55.159-33.285,115.279-47.511,187.679-47.636
				C208.428,76.042,215.869,76.777,215.808,77.04z"/>
		</g>
	</g>
	<path fill="#1B364E" d="M233.674,58.316c-21.424,13.177-21.036,16.068-18.762,18.041c2.408,2.064,5.752,2.425,27.746-10.922
		c22.186-13.278,37.715-25.802,36.285-26.728C277.526,37.795,255.082,45.178,233.674,58.316z"/>
	<path fill="#1B364E" d="M194.302,51.609c-19.854,18.772-19.028,22.262-15.814,24.32c3.192,2.174,7.455,2.055,28.095-16.893
		c20.767-18.827,32.083-35.975,30.129-36.968C234.77,21.14,213.997,32.943,194.302,51.609z"/>
	<path fill="#1B364E" d="M156.179,50.099c-9.577,23.274-7.934,26.454-4.016,27.558c3.65,1.266,8.051-0.017,18.033-23.285
		c9.908-23.101,9.649-42.776,7.66-43.401C175.863,10.459,165.555,26.987,156.179,50.099z"/>
	<path fill="#1B364E" d="M119.599,50.659c-3.505,27.722-1.189,30.802,3.237,31.286c4.048,0.625,8.552-1.547,12.001-29.05
		c3.262-27.315-3.672-49.71-5.639-50.118C127.199,2.486,122.889,23.087,119.599,50.659z"/>
	<path fill="#1B364E" d="M84.662,55.816c-0.317,30.409,2.396,33.295,6.913,33.336c4.157,0.175,8.445-2.525,8.315-32.492
		C99.552,26.879,89.923,2.81,88.084,2.519C86.214,2.311,84.822,25.486,84.662,55.816z"/>
	<path fill="#1B364E" d="M50.505,63.144c-1.233,34.342,1.51,37.473,6.233,37.453c4.33,0.125,8.835-2.926,9.322-36.582
		C66.329,30.577,56.755,3.38,54.914,2.992C53.063,2.69,51.593,28.867,50.505,63.144z"/>
	<path fill="#1B364E" d="M17.217,72.598c-1.049,40.588,2.251,43.655,7.418,43.217c4.816-0.361,9.528-4.125,9.071-43.643
		c-0.63-39.278-11.622-71.778-13.42-72.17C18.553-0.294,18.298,31.989,17.217,72.598z"/>
	<path fill="#1B364E" d="M203.907,98.074c-25.146-15.27-24.878-18.769-22.339-21.338c2.635-2.639,6.602-3.327,32.276,11.679
		c25.796,14.903,43.054,30.337,41.609,31.729C254.066,121.491,229.125,113.326,203.907,98.074z"/>
	<path fill="#1B364E" d="M172.854,102.823c-21.873-18.026-21.097-21.521-18.293-23.85c2.9-2.383,6.853-2.716,29.147,14.988
		c22.361,17.604,36.784,35.354,35.314,36.652C217.568,131.867,194.796,120.816,172.854,102.823z"/>
	<path fill="#1B364E" d="M143,110.105c-24.154-19.516-23.25-23.535-20.408-26.196c3.041-2.776,7.015-3.172,31.587,15.991
		c24.677,19.008,41.649,38.323,40.139,39.823C192.87,141.146,167.287,129.546,143,110.105z"/>
	<path fill="#1B364E" d="M106.594,120.902C86.254,96.669,87.991,92.467,91.34,90.069c3.58-2.495,7.608-2.301,28.442,21.507
		c20.92,23.652,34.995,46.638,33.278,48C151.331,160.837,127.106,145.017,106.594,120.902z"/>
	<path fill="#1B364E" d="M75.711,133.974c-23.345-24.996-21.307-29.996-18.049-32.876c3.718-3.103,7.566-3.015,31.338,21.607
		c24.021,24.355,41.95,47.926,40.213,49.525C127.568,173.66,99.419,158.704,75.711,133.974z"/>
	<path fill="#1B364E" d="M42.997,156.055c-24.63-29.159-21.429-35.229-17.77-38.483c4.453-3.614,8.199-3.25,33.316,25.604
		c25.552,28.562,46.311,54.881,44.271,56.547C100.951,201.17,68.283,184.764,42.997,156.055z"/>
	<path fill="#1B364E" d="M243.067,85.982c-23.143-11.048-26.546-10.28-28.664-7.998c-2.057,2.214-2.042,5.083,20.628,16.276
		c22.685,11.159,44.717,16.599,45.891,15.484C282.137,108.605,266.304,96.977,243.067,85.982z"/>
</g>
<g>
	<g>
		<g>
			<path fill="#1B364E" d="M336.246,384.387c0.272,0.104-1.813,9.845-3.857,21.563c-15.518,95.395-9.563,177.401,22.224,256.897
				c3.936,9.881,6.831,18.172,5.822,18.458c-0.972,0.259-5.487-7.629-9.397-17.543c-31.144-79.875-36.151-162.318-19.862-258.045
				C333.261,393.935,335.916,384.253,336.246,384.387z"/>
		</g>
	</g>
	<path fill="#1B364E" d="M315.739,356.855c12.421,31.075,16.302,31.168,19.409,28.574c3.254-2.752,4.489-7.097-8.029-38.963
		c-12.38-32.102-25.285-55.249-26.825-53.553C298.774,294.596,303.361,325.808,315.739,356.855z"/>
	<path fill="#1B364E" d="M297.992,407.493c20.117,30.171,24.887,29.81,28.319,25.992c3.577-3.766,4.39-9.424-15.784-40.67
		c-19.985-31.39-39.914-49.935-41.662-47.56C267.204,347.628,277.972,377.555,297.992,407.493z"/>
	<path fill="#1B364E" d="M287.346,457.569c28.364,17.528,32.91,16.021,35.249,11.073c2.491-4.56,1.808-10.645-26.456-28.708
		c-28.063-17.928-53.937-21.702-55.209-19.204C239.804,423.258,259.15,440.342,287.346,457.569z"/>
	<path fill="#1B364E" d="M279.77,506.038c35.58,10.435,40.148,8.017,41.788,2.267c1.739-5.22-0.087-11.628-35.392-21.941
		c-35.102-10.024-66.063-5.544-67.046-3.031C218.286,485.915,244.339,495.922,279.77,506.038z"/>
	<path fill="#1B364E" d="M278.598,553.298c39.83,6.781,44.234,3.8,45.314-2.162c1.174-5.459-1.395-11.693-40.746-17.791
		c-39.156-5.783-72.926,1.909-73.726,4.277C208.741,540.052,238.835,546.74,278.598,553.298z"/>
	<path fill="#1B364E" d="M280.451,599.979c44.783,8.815,49.516,5.846,50.561-0.402c1.15-5.696-1.83-12.291-45.884-19.976
		c-43.814-7.352-81.676-0.387-82.605,1.966C201.707,583.95,235.722,591.37,280.451,599.979z"/>
	<path fill="#1B364E" d="M285.295,645.96c53.02,9.878,57.794,6.157,58.394-0.765c0.62-6.439-3.249-13.458-55.206-21.119
		c-51.684-7.386-96.826,0.345-97.751,2.639C189.95,628.943,232.253,636.033,285.295,645.96z"/>
	<path fill="#1B364E" d="M361.143,404.52c-25.75,30.044-30.28,28.958-33.075,25.063c-2.864-4.033-2.864-9.421,22.659-40.219
		c25.416-30.98,49.59-50.564,51.09-48.36C403.27,343.117,386.887,374.377,361.143,404.52z"/>
	<path fill="#1B364E" d="M360.318,446.56c-28.623,25.141-33.031,23.384-35.451,19.19c-2.467-4.333-2.006-9.625,26.289-35.392
		c28.182-25.874,54.751-41.224,56.122-39.01C408.591,393.532,388.916,421.32,360.318,446.56z"/>
	<path fill="#1B364E" d="M363.091,487.544c-31.097,27.844-36.163,25.809-39.011,21.495c-2.951-4.601-2.569-9.938,28.16-38.409
		c30.549-28.641,59.75-47.034,61.377-44.723C415.154,428.12,394.118,459.509,363.091,487.544z"/>
	<path fill="#1B364E" d="M368.985,537.925c-36.419,21.815-41.538,18.641-43.923,13.712c-2.463-5.254-1.291-10.535,34.682-33.094
		c35.791-22.704,69.15-36.5,70.549-33.945C431.554,487.147,405.291,515.857,368.985,537.925z"/>
	<path fill="#1B364E" d="M379.123,581.482c-38.105,25.628-44.203,21.889-47.242,16.979c-3.227-5.563-2.236-10.632,35.475-36.901
		c37.416-26.656,72.42-45.423,74.122-42.794C442.979,521.239,416.958,555.317,379.123,581.482z"/>
	<path fill="#1B364E" d="M400.663,629.344c-43.858,26.455-51.097,20.955-54.534,15.438c-3.73-6.643-2.402-11.518,41.167-38.682
		c43.284-27.801,82.537-49.733,84.261-46.687C473.03,562.178,444.081,601.927,400.663,629.344z"/>
	<path fill="#1B364E" d="M354.176,350.228c-19.756,28.278-19.521,32.938-17.008,36.214c2.437,3.183,6.205,3.764,26.043-23.86
		c19.799-27.649,31.943-55.634,30.747-57.42C392.736,303.318,373.883,321.813,354.176,350.228z"/>
</g>
<g>
	<path fill="#1B364E" d="M146.617,190.984c-0.15,17.064,21.836,79.18-15.03,45.663c-21.524-17.639-5.053-40.659,15.207-61.316
		c-16.864,7.084-34.313,15.45-49.741,23.708c-16.055,8.638-29.49,16.988-40.11,24.935c7.286,11.432,18.515,39.382,34.772,55.839
		c8.452,8.095-3.598,23.466-9.219,15.816c-3.976-5.82-21.488-50.993-29.961-68.237c-14.13,11.271-22.645,22.351-28.156,33.787
		c12.037,17.899,28.231,54.201,34.732,61.537c9.803,10.603,1.113,30.415-5.182,20.218c-4.446-7.016-19.616-54.368-31.262-78.032
		c-8.458,19.837-9.854,41.237-12.395,42.99c-1.212-0.57,1.629,109.497,8.871,118.358c9.135,7.087,26.165-2.797,36.622-3.641
		c30.383-96.931,121.879-186.975,120.986-185.625c-47.633,46.709-92.943,152.225-113.138,190.295
		c5.307,10.271,23.856,10.602,65.768-19.041c53.332-33.313,38.895-32.914,52.108-43.795c0.573-0.407,1.292-0.996,1.983-1.572
		c-30.744,13.738-74.089,30.631-79.606,27.223c-8.281-4.162-2.17-14.213,27.154-16.195c18.539-1.995,45.02-13.254,60.985-18.901
		c7.372-7.418,16.032-17.688,22.865-28.372c-23.968,8.695-72.697,20.709-79.344,16.059c-8.899-5.685-2.414-16.532,25.901-13.712
		c19.445,1.323,44.983-6.337,57.269-8.625c4.552-7.875,7.976-15.689,10.124-22.431c-21.291,3.94-77.701,11.643-81.539,9.111
		c-5.034-3.127,7.079-15.196,27.163-8.399c14.333,4.039,43.733-4.705,55.74-5.415c0.694-2.735,1.183-5.223,1.367-7.225
		c0.417-4.667-0.241-11.412-0.9-19.411c-6.966,6.347-18.775,7.032-33.278,9.188c-24.355,4.702-13.259-28.013,9.699-19.849
		c9.956,4.037,17.777,2.438,22.751-0.469c-4.193-27.059,7.018-71.19,14.869-61.902c3.365-6.07-8.289-60.028-84.176-23.692
		C153.135,175.949,146.516,183.126,146.617,190.984z M99.544,262.263c-3.7-8.662-19.301-54.151-9.719-52.379
		c16.247-2.66,13.211,33.087,20.204,40.233C116.96,256.451,103.758,268.437,99.544,262.263z M47.495,394.79
		c-4.052-5.423-20.108-75.635-20.105-84.497c0.692,0.049,20.059,60.902,27.323,67.149C62.575,384.712,52.139,401.781,47.495,394.79z
		"/>
</g>
<g>
	<path fill="#1B364E" d="M126.453,436.459c-2.084,6.282-3.75,12.658-4.498,18.477c-2.985,23.311-9.912,41.815-16.058,35.409
		c-2.657-2.77-0.486-16.803,4.906-32.978c-6.386,6.636-13.892,11.889-23.595,14.104c-2.171,0.508-4.334,0.869-6.482,1.166
		c0.264,14.172,1.563,25.928,1.934,28.784c0.917,7.038-0.417,26.284-11.842,16.869c-12.938-10.653-14.245-27.259-11.002-43.684
		c-8.005,0.988-15.757,2.949-23.139,8.572c-7.914,6.038-14.234,13.149-18.965,20.967c9.194,12.204,20.207,23.28,17.114,35.06
		c-3.309,12.551-13.232-5.313-22.024-25.395c-1.66,4.063-2.945,8.259-3.8,12.571c-5.031,25.259-16.133,65.923,13.97,80.218
		c4.943-12.558,8.833-23.726,19.83-33.668c6.684-6.035,51.157-43.23,75.421-65.222c4.822-4.766,9.898-9.763,15.279-15.016
		c-1.647,2.35-7.417,7.907-15.279,15.016c-74.915,74.276-82.945,92.449-79.364,119.955c1.928,14.754,4.566,32.993,12.851,45.734
		c9.363,14.408,28.772,14.685,43.805,22.108c0.159-0.099,0.264-0.237,0.424-0.345c-12.221-7.328-32.903-32.223-43.142-39.958
		c-12.444-9.408,7.257-20.489,15.171-12.497c5.699,5.76,25.923,26.514,39.799,38.036c4.283-9.569,5.404-20.709,8.882-29.947
		c4.6-12.226,22.229-1.988,32.809-11.649c0.468-0.431,0.866-0.913,1.322-1.354c-28.379-4.551-76.86-31.436-65.147-31.551
		c11.632-0.123,46.924,15.711,72.703,22.395c9.403-14.216,12.959-32.402,14.521-49.8c-31.936,6.011-66.785,4.9-71.457,4.804
		c-7.889-0.146-15.229-3.222-3.17-12.338c9.923-7.502,41.12-4.944,75.657-8.491c0.232-5.265,0.395-10.314,0.604-14.94
		c0.176-3.843,1.765-7.172,4.182-10.227c-16.433,2.281-33.287,2.357-44.892,0.684c-30.22-4.354,5.927-24.542,45.474-30.289
		c21.085-3.072,31.737-12.801,37.135-21.23c-0.217-6.818-1.783-13.728-3.711-20.768c-9.213-33.636-5.201-68.785,15.661-100.564
		c-22.651,24.215-62.908,24.066-85.42,48.032C136.903,419.917,131.797,428.167,126.453,436.459z"/>
</g>
</svg>
