<?xml version="1.0" encoding="utf-8"?>
<!-- Generator: Adobe Illustrator 16.0.0, SVG Export Plug-In . SVG Version: 6.00 Build 0)  -->
<!DOCTYPE svg PUBLIC "-//W3C//DTD SVG 1.1//EN" "http://www.w3.org/Graphics/SVG/1.1/DTD/svg11.dtd">
<svg version="1.1" id="Layer_2" xmlns="http://www.w3.org/2000/svg" xmlns:xlink="http://www.w3.org/1999/xlink" x="0px" y="0px"
	 width="359.782px" height="413.596px" viewBox="0 0 359.782 413.596" enable-background="new 0 0 359.782 413.596"
	 xml:space="preserve">
<path fill-rule="evenodd" clip-rule="evenodd" fill="#F05A71" d="M132.215,15.125c-0.497-0.634,0.709-4.72,1.195-5.929
	c1.165-2.918,2.663-4.723,5.084-6.43c4.197-2.955,8.649-2.764,13.445-2.764c3.606,0,7.347,0.113,10.809,1.363
	c4.094,1.479,8.175,4.417,10.094,8.845c1.357,3.132,3.005,6.472,3.971,9.801c0.514,1.779,1.349,5.105,0.855,7.066
	c-0.546,2.188-2.53,2.834-4.191,3.565c-4.912,2.154-10.157,3.423-15.28,4.745c-3.909,1.007-9.692,2.76-13.49,0.471
	c-2.175-1.313-5.746-4.444-6.8-7.027c-0.616-1.51-1.149-2.503-2.019-3.836c-1.508-2.314-1.672-3.43-1.672-6.355"/>
<path fill-rule="evenodd" clip-rule="evenodd" fill="#F05A71" d="M293.498,32.174c1.684-3.182,7.661-2.902,10.43-4.063
	c4.735-1.984,7.793-4.936,11.057-9.111c2.936-3.763,3.761-6.573,8.875-6.614c4.897-0.04,9.006,3.331,8.748,8.794
	c-0.432,9.085-12.679,15.234-19.688,17.278C309.024,39.59,288.329,41.951,293.498,32.174z"/>
<path fill-rule="evenodd" clip-rule="evenodd" fill="#F05A71" d="M280.671,153.718c0,0,0-0.004,0.002-0.007c0,0.003,0,0.007,0,0.007
	s0.008-0.011,0.008-0.016c0.099-0.082,0.199-0.167,0.298-0.254c-0.009-0.026-0.021-0.052-0.028-0.078
	c-0.092,0.093-0.186,0.18-0.277,0.272c0,0.019,0,0.046,0,0.068L280.671,153.718z"/>
<path fill-rule="evenodd" clip-rule="evenodd" fill="#F05A71" d="M191.896,191.172c-3.693,9.825-5.285,20.2-10.718,29.676
	c-3.16,5.508-2.439,13.822,3.044,18.548c8.712,7.514,9.663,16.06,7.587,26.296c-1.282,6.331-2.357,15.617,5.603,16.505
	c6.614,0.735,7.624-8.5,8.686-14.534c0.457-2.563,0.359-5.31,0.009-7.909c-1.336-9.811-0.331-19.553,2.812-28.726
	c3.529-10.306,2.389-19.889-1.383-29.603c4.919-2.036,6.144,2.28,8.376,4.72c2.822,3.077,5.612,4.227,9.181,0.981
	c5.353-4.864,9.982-29.028,6.721-35.465c-1.548-3.053-3.866-4.777-7.473-4.451c-2.196,0.194-3.713,2.135-3.025,3.521
	c5.747,11.578-3.558,14.107-10.953,17.84C201.146,177.531,196.844,177.984,191.896,191.172z"/>
<path fill-rule="evenodd" clip-rule="evenodd" fill="#F05A71" d="M143.4,193.022c2.965-16.03,1.367-33.847-3.42-42.54
	c-2.881-5.232-7.099-7.253-11.585-5.093c-5.254,2.536-1.697,7.168-0.85,11.264c1.299,6.3,5.049,10.745,7.708,16.014
	c2.097,4.166,4.855,9.623-0.315,12.598c-5.019,2.896-10.413-2.18-10.309-6.788c0.242-10.743-6.346-19.643-4.593-30.429
	c0.677-4.176,2.294-10.026-2.859-10.932c-3.971-0.701-6.131,4.266-7.561,8.636c-5.267,16.126,1.517,43.263,13.918,55.274
	C135.185,212.312,140.204,210.292,143.4,193.022z"/>
<path fill-rule="evenodd" clip-rule="evenodd" fill="#F05A71" d="M260.484,294.276c-1.747-2.747-3.37-5.119-7.19-5.034
	c-4.051,0.096-5.719,3.242-6.462,5.882c-3.08,10.896-3.204,21.755,3.174,31.797c1.38,2.175,3.14,4.131,6.399,4.059
	c19.059-0.486,35.571-27.176,26.893-43.72c-2.35-4.485-6.093-9.201-11.325-7.709c-5.819,1.661-7.242,7.1-5.105,13.034
	c1.035,2.873,1.595,5.996-0.393,9.347C261.736,300.554,262.066,296.766,260.484,294.276z"/>
<path fill-rule="evenodd" clip-rule="evenodd" fill="#F05A71" d="M152.04,92.49c-2.21-0.088-4.589-2.528-6.388-4.349
	c-1.931-1.962-3.44-4.376-6.626-2.626c-2.242,1.232-2.796,3.73-2.277,5.813c3.398,13.639,6.411,27.424,10.876,40.736
	c2.149,6.397,9.381,11.272,15.677,10.527c6.778-0.805,5.175-8.875,5.963-14.343c0.687-4.74,1.942-9.406,2.949-14.102
	c-0.053-0.885-0.078-1.773-0.162-2.648C170.518,95.52,167.761,93.105,152.04,92.49z"/>
<path fill-rule="evenodd" clip-rule="evenodd" fill="#F05A71" d="M49.675,112.158c-1.5,5.434-1.971,11.245-2.074,16.9
	c-0.094,5.386,2.981,8.161,8.836,6.519c8.807-2.459,17.266-5.405,21.364-14.521c7.458-16.583,2.076-33.509,1.43-50.302
	c-0.105-2.738-1.785-5.747-4.687-5.336c-2.627,0.37-3.196,3.684-4.116,6.265c-3.715,10.387,0.641,19.495,6.547,31.273
	C59.362,93.968,54.072,96.203,49.675,112.158z"/>
<path fill-rule="evenodd" clip-rule="evenodd" fill="#F05A71" d="M206.813,283.411c-4.946,9.697,3.155,31.371,12.62,37.588
	c3.705,2.446,7.41,4.913,10.908,7.622c3.135,2.426,4.984,8.892,10.428,3.453c4.201-4.201,3.652-9.898-0.689-12.86
	c-7.14-4.868-6.118-10.692-5.209-17.443c0.699-5.196,0.625-10.655-0.186-15.834c-1.015-6.472-2.891-15.144-10.665-14.416
	c-6.549,0.611-0.912,9.154-3.616,14.438C215.728,283.662,212.562,272.139,206.813,283.411z"/>
<path fill-rule="evenodd" clip-rule="evenodd" fill="#F05A71" d="M128.795,225.228c-5.645,9.534-2.467,33.955,4.339,42.13
	c2.666,3.2,5.315,6.435,7.767,9.895c2.193,3.099,2.676,10.292,8.044,5.374c4.143-3.788,4.614-9.953,1.511-13.817
	c-5.104-6.348-3.32-12.384-1.48-19.44c1.418-5.419,2.236-11.25,2.407-16.908c0.209-7.056,0.062-16.612-6.466-17.103
	c-5.507-0.416-2.234,9.614-5.318,14.8C136.11,226.948,135.358,214.15,128.795,225.228z"/>
<path fill-rule="evenodd" clip-rule="evenodd" fill="#F05A71" d="M241.938,188.428c-1.559-1.162-4.326,2.755-5.025,5.245
	c-3.531,12.565-4.432,25.087,2.212,37.068c3.78,6.819,8.75,7.185,13.917,1.526c12.194-13.357,21.104-39.283,8.053-53.659
	C253.564,180.446,255.94,198.848,241.938,188.428z"/>
<path fill-rule="evenodd" clip-rule="evenodd" fill="#F05A71" d="M227.904,94.676c8.581-4.887,7.592-13.397,6.812-21.245
	c-0.615-6.15-2.374-12.226-9.913-11.438c-5.103,2.507-8.129,2.152-10.198-2.01c-1.458-2.937-2.295-5.989-0.798-8.884
	c2.949-5.718,5.6-0.431,8.468,0.415c5.417,1.593,5.474-2.658,4.39-5.242c-1.848-4.404-4.588-8.596-7.646-12.329
	c-3.047-3.724-6.947-8.524-12.185-6.82c-5.873,1.925-5.739,8.12-6.084,13.527c-1.28,20.02,10.684,34.949,20.356,50.718
	C222.407,93.488,225.395,96.107,227.904,94.676z"/>
<path fill-rule="evenodd" clip-rule="evenodd" fill="#F05A71" d="M163.791,52.398c2.264,2.46,3.26,9.187,8.52,4.463
	c-1.035-2.818-1.679-5.957-3.201-8.38c-1.99-3.176-3.522-6.125-0.44-9.113c2.913-2.838,5.881-0.568,8.455,1.166
	c5.645,3.797,8.743,9.627,9.505,17.065c4.076,9.42,3.811,18.731-1.348,27.364c-3.282,5.497-8.018,8.899-13.705,4.356
	c-9.438-7.543-15.577-17.905-17.915-30.909c-0.609-3.433-0.78-7.496,2.347-9.421C159.261,46.991,161.454,49.866,163.791,52.398z"/>
<path fill-rule="evenodd" clip-rule="evenodd" fill="#F05A71" d="M277.798,230.925c-7.312-1.702-12.892-0.632-15.478,6.841
	c-3.899,11.274,0.541,25.08,10.728,31.515c4.419,2.799,9.642,6.979,14.731,4.37c4.197-2.155,1.633-8.002,2.004-12.24
	c0.448-5.202,1.826-10.359,1.923-15.553C291.879,236.669,290.074,228.658,277.798,230.925z"/>
<path fill-rule="evenodd" clip-rule="evenodd" fill="#F05A71" d="M157.182,150.681c-5.591-0.083-4.924,4.123-4.724,7.513
	c0.444,7.44,4.269,14.444,2.738,23.206c0.3,3.757,0.569,8.576,1.095,13.379c0.373,3.375,4.571,5.141,5.507,3.429
	c4.651-8.509,13.142-4.697,19.583-7.052c7.045-2.555,9.97-8.607,7.854-15.853C185.969,164.102,168.482,150.845,157.182,150.681z"/>
<path fill-rule="evenodd" clip-rule="evenodd" fill="#F05A71" d="M43.285,193.886c-3.102,0.548-4.354,3.619-3.739,6.181
	c2.354,9.803-2.56,17.825-5.404,26.623c-3.067,9.477,0.308,19.168,4.055,28.243c1.175,2.852,3.087,6.016,6.59,6.042
	c4.567,0.03,5.574-4.404,6.422-7.452c2.403-8.62,1.853-17.514,0.935-26.344c-0.695-9.635,1.376-19.555-2.892-28.823
	C48.124,195.915,46.4,193.327,43.285,193.886z"/>
<path fill-rule="evenodd" clip-rule="evenodd" fill="#F05A71" d="M224.822,125.891c-2.205,0.414-4.735,2.926-5.672,5.095
	c-1.177,2.731-0.876,6.063-0.964,6.894c-0.581,17.581,3.771,22.079,26.003,28.61c3.746,1.097,8.665,3.669,11.338-0.39
	c3.387-5.132,1.682-11.003-1.005-16.358c-2.018-4.018-6.19-10.46-8.806-8.599c-15.963,11.396-12.351-4.456-15.688-10.142
	C228.652,128.668,227.748,125.342,224.822,125.891z"/>
<path fill-rule="evenodd" clip-rule="evenodd" fill="#F05A71" d="M92.08,136.248c-2.729-3.432-5.694-7.179-9.206-3.861
	c-6.067,5.733-1.667,20.214-12.725,24.143c-2.037,0.727,1.92,18.933,9.034,25.636c4.09,3.854,8.354,6.091,13.737,2.721
	c7.998-5.01,6.263-13.987,6.597-24.508C100.425,152.275,97.952,143.621,92.08,136.248z"/>
<path fill-rule="evenodd" clip-rule="evenodd" fill="#F05A71" d="M241.355,72.23c-1.104,8.972,3.757,17.094,8.572,24.688
	c1.458,2.3,3.287,4.391,6.501,3.642c3.128-0.731,4.037-3.53,4.61-6.018c1.705-7.424-0.902-13.917-5.213-19.908
	c-4.451-6.181-8.166-11.599-2.711-19.989c4.023-6.182-7.373-23.971-15.27-24.416c-5.375,2.357-4.362,7.52-2.104,11.568
	C241.143,51.466,242.712,61.229,241.355,72.23z"/>
<path fill-rule="evenodd" clip-rule="evenodd" fill="#F05A71" d="M8.202,89.873c14.941-1.834,13.285,10.945,18.547,17.45
	c1.944,2.399,3.323,5.237,5.307,7.602c1.634,1.951,3.571,4.261,6.697,2.096c2.745-1.901,2.324-4.312,1.295-7.002
	c-1.708-4.456-6.967-7.109-6.736-13.586c5.337-0.102,14.035,1.998,10.035-8.244C40.736,81.508,39.45,72.332,27.933,77.6
	C18.574,81.879,9.732,80.037,0,73.783C-0.035,82.452,4.668,90.31,8.202,89.873z"/>
<path fill-rule="evenodd" clip-rule="evenodd" fill="#F05A71" d="M257.019,128.663c1.931,9.72,7.038,17.979,14.713,24.74
	c3.302,2.91,5.99,3.105,8.941,0.239c-0.281-13.253,8.476-27.115-1.938-39.856c-6.194,1.812-3.695,8.029-7.335,10.688
	c-3.112-4.371-1.892-13.95-9.466-12.014C255.121,114.206,255.84,122.729,257.019,128.663z"/>
<path fill-rule="evenodd" clip-rule="evenodd" fill="#F05A71" d="M181.854,134.237c0.494,10.609,2.088,22.865,11.223,24.66
	c9.701,1.901,13.259-9.347,15.948-20.476c1.204-4.966,1.418-10.464,1.829-13.75c-0.961-9.809,1.188-22.172-5.063-22.993
	c-6.461-0.847-2.399,12.015-4.728,17.91c-0.671,1.699-0.879,3.83-1.193,5.799c-0.64,3.992-1.166,8.756-4.608,8.566
	c-4.521-0.248-4.426-6.34-4.143-10.675c0.527-7.997,2.1-15.836,2.773-23.828c0.305-3.658,0.911-8.881-2.746-9.931
	c-3.254-0.93-4.518,3.054-5.542,7.033C182.468,108.721,181.264,121.564,181.854,134.237z"/>
<path fill-rule="evenodd" clip-rule="evenodd" fill="#F05A71" d="M337.262,221.012c7.235,2.614,10.621-3.733,13.602-8.29
	c5.42-8.299,7.315-18.037,8.733-27.602c0.685-4.637-0.359-11.513-5.878-11.947c-7.077-0.558-5.258,6.434-5.933,10.961
	c-0.493,3.273,2.44,10.366-3.658,8.74c-14.644-3.904-11.599,6.658-13.592,13.14C330.406,212.338,330.707,218.649,337.262,221.012z"
	/>
<path fill-rule="evenodd" clip-rule="evenodd" fill="#F05A71" d="M232.164,257.796c-0.06,3.833,1.139,7.887,2.652,11.484
	c2.772,6.602,3.671,17.972,11.697,16.995c9.355-1.134,6.943-12.635,8.615-21.144c-0.349-2.497-1.114-5.954-1.269-9.441
	c-0.454-10.343-8.297-12.545-16.036-11.827C229.31,244.66,232.238,252.607,232.164,257.796z"/>
<path fill-rule="evenodd" clip-rule="evenodd" fill="#F05A71" d="M86.931,277.746c4.81,1.073,8.048-3.016,11.289-5.955
	c8.07-7.303,6.83-16.228,3.51-26.014c-3.47,6.141-9.214,7.924-14.945,10.2c-5.239,2.083-6.119,7.251-5.653,12.239
	C81.499,272.179,82.536,276.767,86.931,277.746z"/>
<path fill-rule="evenodd" clip-rule="evenodd" fill="#F05A71" d="M23.497,58.101c3.902-2.234,1.823-6.29,0.362-9.507
	c-2.569-5.648-5.137-11.299-8.01-16.801c-1.415-2.705-3.148-5.517-7-5.509c-2.169-0.162-3.834,1.192-3.998,2.844
	c-0.972,9.785-1.022,19.773,6.015,27.574C13.691,59.833,19.505,60.396,23.497,58.101z"/>
<path fill-rule="evenodd" clip-rule="evenodd" fill="#F05A71" d="M221.139,255.981c3.709-7.194,4.924-15.037,5.48-19.657
	c0.413-8.656,0.354-13.993-2.976-18.598c-2.661-3.678-6.825-2.819-6.765,0.729c0.204,12.068-4.299,23.412-4.61,35.308
	c-0.054,2.11-0.077,4.643,2.444,5.604C217.988,260.612,219.919,258.341,221.139,255.981z"/>
<path fill-rule="evenodd" clip-rule="evenodd" fill="#F05A71" d="M65.166,62.866c1.774,0.347,3.987,0.647,4.742-1.342
	c2.326-6.126-2.108-10.856-4.162-15.968c-1.759-4.386-3.649-9.1-8.467-10.744c-2.677-0.269-3.854,0.98-4.711,2.599
	C49.117,43.905,57.767,61.405,65.166,62.866z"/>
<path fill-rule="evenodd" clip-rule="evenodd" fill="#F05A71" d="M243.117,131.979c4.36,2.906,5.464-2.184,5.358-7.269
	c-1.574-3.673-3.575-8.527-5.735-13.302c-1.271-2.82-2.682-6.271-6.368-5.928c-4.376,0.406-5.677,4.666-5.838,7.91
	C230.085,122.254,236.796,127.769,243.117,131.979z"/>
<path fill-rule="evenodd" clip-rule="evenodd" fill="#F05A71" d="M162.187,276.755c-6.361,4.166,0.505,10.214,0.882,15.477
	c0.16,2.125,1.385,4.159,1.843,6.292c0.676,3.147,1.691,6.713,5.271,6.701c4.348-0.015,3.411-4.321,4.03-7.116
	c1.113-5.01-0.868-10.503,2.425-15.182C171.883,280.333,168.264,272.779,162.187,276.755z"/>
<path fill-rule="evenodd" clip-rule="evenodd" fill="#F05A71" d="M104.816,280.058c-0.05,6.458,3.536,10.026,9.727,10.364
	c7.564-1.552,11.664-5.461,11.162-12.661c-0.423-6.062-3.052-11.019-10.25-10.303C108.156,268.175,104.868,273.28,104.816,280.058z"
	/>
<path fill-rule="evenodd" clip-rule="evenodd" fill="#F05A71" d="M114.581,87.879c-5.241-1.853-11.251-4.419-17.26,8.996
	c-5.437,12.136-4.913,22.759-0.75,28.993c1.963,2.942,4.678,5.147,7.733,5.518c8.473,1.034,18.641,2.034,26.257-18.673
	c7.423-20.16-4.661-16.906-8.233-20.729C118.775,90.07,116.795,88.653,114.581,87.879z M119.592,108.786
	c-3.331,8.708-6.697,7.54-9.516,6.786c-3.172-0.854-5.356-4.917-2.417-11.915c3.527-8.41,7.778-6.689,11.155-6.604
	C122.522,97.133,121.098,103.214,119.592,108.786z"/>
<path fill-rule="evenodd" clip-rule="evenodd" fill="#F05A71" d="M315.685,223.163c11.159-2.442,8.437-14.95,10.15-23.765
	c1.403-7.2-0.073-14.255-1.673-21.028c-3.366-14.275-12.896-19.507-26.945-15.912c-2.404,6.436,0.661,10.965,5.385,15.003
	c3.384,2.89,6.845,5.739,9.894,8.952c3.065,3.224,5.995,6.824,4.237,11.736c-1.214,3.37-4.022,4.618-7.531,4.258
	c-5.42-0.565-9.149-3.504-11.265-8.296c-4.84-10.953-8.307-22.16-6.052-34.31c-9.178-3.471-11.458,3.486-13.021,9.22
	c-4.306,15.816,2.897,29.527,11.365,41.854C295.738,218.903,306.282,225.23,315.685,223.163z"/>
<path fill-rule="evenodd" clip-rule="evenodd" fill="#F05A71" d="M59.62,171.043c-0.845-3.185-2.581-6.146-5.681-8.764
	c-1.488-1.258-3.78-0.473-4.198,1.448c-1.095,5.031-0.72,9.657,1.503,13.682l-0.021,0.057c0.46,1.275,1.247,2.514,1.958,3.628
	c0.671,1.053,1.256,2.088,2.176,2.895c1.021,0.895,2.252,1.644,3.578,1.514c1.707-0.171,2.265-1.972,2.509-3.742
	C61.941,178.103,61.508,174.096,59.62,171.043z"/>
<path fill-rule="evenodd" clip-rule="evenodd" fill="#F05A71" d="M122.518,220.365c-0.139-1.433-0.495-2.791-0.699-4.2
	c-0.2-1.381-0.431-2.52-0.841-3.84c-0.283-0.92-0.464-1.832-1.029-2.594c-0.188-0.25-0.416-0.452-0.665-0.633
	c-1.008-1.291-2.447-2.304-4.586-2.844c-5.099-1.29-5.589,4.697-5.056,8.508c0.883,6.234,0.521,14.204,8.711,15.728
	c2.498,0.465,3.375-0.747,3.711-2.505c0.065-0.213,0.13-0.424,0.2-0.628c0.345-1.028,0.31-2.341,0.319-3.431
	C122.597,222.74,122.636,221.538,122.518,220.365z"/>
<path fill-rule="evenodd" clip-rule="evenodd" fill="#F05A71" d="M102.771,229.808c-0.284-2.265-0.789-4.486-1.651-6.544
	c-0.984-2.361-1.871-4.62-3.103-6.774c-0.525-1.457-1.092-2.905-1.681-4.345c-2.341-5.729-4.349-13.21-10.501-14.635
	c-5.491-1.271-5.998,7.313-10.17,10.263c-1.043,0.732-1.434,2.332-2.463,3.104c-15.376,11.554-19.943,32.775-10.574,49.063
	c1.356,2.358,2.547,5.094,5.721,4.716c3.68-0.438,3.074-3.708,3.152-6.216c0.066-2.202,0.345-4.567-0.327-6.59
	c-4.264-12.817,7.575-15.062,14.118-20.765c2.474-2.153,4.399-2.211,6.117-1.413c0.505,0.35,0.924,0.859,1.355,1.319
	c0.637,0.682,1.325,1.275,1.94,1.98c0.936,1.065,1.784,1.938,3.069,2.444c1.108,0.441,2.869,0.901,3.876,0.062
	C102.885,234.46,102.969,231.378,102.771,229.808z"/>
<path fill-rule="evenodd" clip-rule="evenodd" fill="#F05A71" d="M251.741,356.154c-0.45-0.308-0.867-0.534-1.247-0.724
	c-1.413-1.341-3.58-2.25-5.18-1.341c-2.031,1.159-3.265,4.295-4.021,6.569c-0.542,1.63-2.341,5.381-1.896,7.295
	c-4.085,9.182-7.422,19.279-19.052,27.585c2.517-14.288,9.223-23.561,13.417-33.544c0.129-0.567,0.334-1.121,0.683-1.674
	c-0.754-7.073-1.709-14.104-7.652-19.157c-3.139-2.668-3.048-10.377-8.534-8.238c-5.074,1.988-8.5,7.343-8.045,13.953
	c1.258,18.076,2.636,36.161-0.201,54.258c-0.818,5.22,1.137,9.676,6.626,11.677c6.073,2.225,12.324-0.554,13.926-5.077
	c4.696-13.234,17.755-20.646,22.603-33.914C255.748,366.744,257.607,360.072,251.741,356.154z"/>
<path fill-rule="evenodd" clip-rule="evenodd" fill="#F05A71" d="M185.003,277.935c0.414-0.093,0.769-0.324,1.131-0.554
	c5.43-3.814,3.49-10.853,1.196-15.373c-9.282-18.254-18.654-36.001-11.912-57.246c0.123-0.381-0.095-0.865-0.135-1.301
	c-0.264-2.889-1.674-5.711-4.511-5.799c-2.905-0.093-3.699,2.802-4.519,5.561c-4.861,16.353-5.921,32.136,0.082,48.918
	c2.974,8.323,8.881,14.772,12.558,22.382C180.367,276.755,182.08,278.592,185.003,277.935z"/>
<path fill-rule="evenodd" clip-rule="evenodd" fill="#F05A71" d="M227.904,94.676c8.581-4.887,7.592-13.394,6.812-21.245
	c-0.615-6.15-2.374-12.221-9.913-11.438c-5.103,2.507-8.129,2.152-10.198-2.01c-1.458-2.937-2.295-5.989-0.798-8.884
	c2.949-5.715,5.6-0.427,8.468,0.415c5.417,1.593,5.474-2.658,4.39-5.242c-1.848-4.404-4.588-8.593-7.646-12.329
	c-3.047-3.724-6.947-8.524-12.185-6.82c-5.873,1.925-5.739,8.12-6.084,13.527c-1.28,20.02,10.684,34.949,20.356,50.718
	C222.407,93.488,225.395,96.107,227.904,94.676z"/>
<path fill-rule="evenodd" clip-rule="evenodd" fill="#F05A71" d="M23.497,58.101c3.902-2.234,1.823-6.29,0.362-9.507
	c-2.569-5.648-5.137-11.299-8.01-16.801c-1.415-2.705-3.148-5.512-7-5.509c-2.169-0.162-3.834,1.192-3.998,2.844
	c-0.972,9.788-1.022,19.773,6.015,27.574C13.691,59.833,19.505,60.396,23.497,58.101z"/>
<path fill-rule="evenodd" clip-rule="evenodd" fill="#F05A71" d="M65.166,62.866c1.774,0.347,3.987,0.647,4.742-1.342
	c2.326-6.126-2.108-10.853-4.162-15.965c-1.759-4.389-3.649-9.104-8.467-10.744c-2.677-0.272-3.854,0.977-4.711,2.596
	C49.117,43.905,57.767,61.41,65.166,62.866z"/>
<path fill-rule="evenodd" clip-rule="evenodd" fill="#F05A71" d="M27.741,38.161c1.109-2.389,5.036-4.453,7.506-3.307
	c2.813,1.298,2.897,5.814,2.655,8.677c-0.209,2.501-3.026,8.687,0.761,8.587c3.503-0.087,3.431-7.09,6.76-2.481
	c4.892,6.784-1.049,20.074-9.392,14.147C31.022,60.225,24.961,44.145,27.741,38.161z"/>
<path fill-rule="evenodd" clip-rule="evenodd" fill="#F05A71" d="M320.604,294.657c-0.605-10.04,6.104-61.793-9.257-58.906
	c-22.528,4.238,7.168,46.518-2.968,50.781c-1.344-4.52-3.339-8.728-6.397-10.986c-2.911-2.157-6.06-2.011-8.318,0.714
	c-0.463,0.212-0.938,0.458-1.42,0.751c-0.085,0.75-0.111,1.471-0.09,2.175c-0.706,2.698-0.131,5.839-0.259,8.586
	c-0.359,7.773-0.774,15.934,0.294,23.659c0.479,3.469,2.752,17.443,7.569,16.993l0.286-0.28c1.637,1.416,3.529,2.539,5.613,3.135
	C322.47,336.154,319.17,319,324.6,309.336C328.373,302.63,339.571,289.864,320.604,294.657z"/>
<path fill-rule="evenodd" clip-rule="evenodd" fill="#F05A71" d="M174.455,335.274c-1.534-11.571,11.946-48.685,22.468-25.038
	c3.023,6.811,1.487,13.244,0.188,19.678c-1.798,8.933,0.052,14.004,0.962,22.558c0.831,7.806-0.231,14.214,0.894,21.841
	c0.995,6.752-0.423,27.588-9.304,13.4c-3.034-4.854-3.92-17.137-6.252-23.229C179.761,354.961,175.807,345.472,174.455,335.274z"/>
</svg>
