<?xml version="1.0" encoding="utf-8"?>
<!-- Generator: Adobe Illustrator 16.0.0, SVG Export Plug-In . SVG Version: 6.00 Build 0)  -->
<!DOCTYPE svg PUBLIC "-//W3C//DTD SVG 1.1//EN" "http://www.w3.org/Graphics/SVG/1.1/DTD/svg11.dtd">
<svg version="1.1" id="Layer_1" xmlns="http://www.w3.org/2000/svg" xmlns:xlink="http://www.w3.org/1999/xlink" x="0px" y="0px"
	 width="371.497px" height="371.498px" viewBox="0 0 371.497 371.498" enable-background="new 0 0 371.497 371.498"
	 xml:space="preserve">
<g>
	<defs>
		<circle id="SVGID_1_" cx="185.748" cy="185.749" r="185.748"/>
	</defs>
	<clipPath id="SVGID_2_">
		<use xlink:href="#SVGID_1_"  overflow="visible"/>
	</clipPath>
	<g clip-path="url(#SVGID_2_)">
		<rect x="-162.65" y="-184.646" fill="#1BA53B" width="820" height="666.667"/>
		<path fill="#231F20" d="M447.379,28.534c0,0,65.305,137.486,8.638,239.486c0,0-190.001-48.462-188.667-51.564
			s134-173.769,134-173.769l42.49-17.301"/>
		<g>
			<path fill="#FFFFFF" d="M110.34,8.301c0,0,16.371,64.807,44.564,110.741c0,0,35.68,55.46,45.06,75.472
				c0,0,15.944,40.154,82.602,18.057c66.658-22.095,129.763-106.063,129.763-106.063s54.556-55.377,57.984-103.47
				c0,0-152.291-123.414-154.45-124.372s-78.357-2.392-85.393-2.069c-7.034,0.324-61.321,15.508-66.787,19.282
				c-5.466,3.776-28.001,19.616-31.324,23.997c-3.323,4.384-14.668,18.298-14.668,18.298s-4.027,4.415-4.503,9.371
				C112.71-47.499,103.045-16.603,110.34,8.301z"/>
			<g>
				<path d="M262.881,91.684c0,0-1.631-0.55-4.316-1.441c-11.883-3.948-44.434-14.647-47.877-14.49
					c-4.22,0.193-25.324,1.164-25.324,1.164l-17.457,3.624l-3.227,6.49l4.132,13.205l3.905,8.279c0,0,2.37,5.53,3.938,8.982
					c1.568,3.454,11.87,12.85,15.418,13.392c3.55,0.54,25.163-4.683,29.352-5.579c4.188-0.896,25-8.197,25-8.197"/>
			</g>
			<path fill="#EF4430" d="M279.225,80.907L229.47,61.008c-17.002-10.671-33.688-7.671-41.696-0.264
				c-8.008,7.406-15.809,6.199-15.809,6.199c-27.911,5.809-8.368,35.773-8.368,35.773c1.902,3.34,3.122,8.998,3.122,8.998
				c-2.943,29.91,25.828,32.422,25.828,32.422c49.535-3.471,91.446-48.92,91.446-48.92
				C294.918,84.222,279.225,80.907,279.225,80.907z M200.371,113.721c0,0-29.068-10.703-31.122-25.294
				c0,0,11.355,3.761,28.209-2.913c0,0,9.636-7.576,31.146-1.024l29.649,5.71C258.254,90.199,210.101,101.751,200.371,113.721z"/>
		</g>
		<path fill="#054BAA" d="M421.769,218.773c0,0-90.278-18.394-127.777-32.236c0,0-80.795-36.081-151.588,58.037
			c0,0-61.162,85.901-64.893,92.905c-3.73,7.005,152.533,111.476,155.219,112.68c2.686,1.203,76.118,1.89,90.137-10.274
			c14.02-12.166,48.165-16.058,76.238-41.9c28.068-25.845,59.835-38.521,72.83-70.197c12.997-31.673,17.9-54.878,14.882-68.119
			c-3.02-13.244-12.849-33.259-22.3-36.709C455.064,219.508,421.769,218.773,421.769,218.773z"/>
	</g>
</g>
</svg>
