<?xml version="1.0" encoding="utf-8"?>
<!-- Generator: Adobe Illustrator 16.0.0, SVG Export Plug-In . SVG Version: 6.00 Build 0)  -->
<!DOCTYPE svg PUBLIC "-//W3C//DTD SVG 1.1//EN" "http://www.w3.org/Graphics/SVG/1.1/DTD/svg11.dtd">
<svg version="1.1" id="Layer_1" xmlns="http://www.w3.org/2000/svg" xmlns:xlink="http://www.w3.org/1999/xlink" x="0px" y="0px"
	 width="612px" height="37.309px" viewBox="0 377.345 612 37.309" enable-background="new 0 377.345 612 37.309"
	 xml:space="preserve">
<g>
	<polygon fill="#FFFFFF" points="30.282,396.921 30.115,396.586 22.419,377.512 14.556,396.921 14.388,396.586 6.86,378.014 
		0,378.014 14.556,414.152 22.419,394.745 30.282,414.152 44.837,378.014 37.978,378.014 	"/>
	<polygon fill="#FFFFFF" points="75.789,398.76 75.789,392.403 61.401,392.403 61.401,384.373 76.96,384.373 76.96,378.014 
		55.043,378.014 55.043,413.651 78.131,413.651 78.131,407.126 61.401,407.126 61.401,398.76 	"/>
	<path fill="#FFFFFF" d="M114.771,383.201c-3.514-3.513-7.696-5.187-12.548-5.187H92.018v35.637h10.205
		c4.852,0,9.202-1.674,12.548-5.187c3.514-3.514,5.187-7.696,5.187-12.548C120.124,390.897,118.284,386.715,114.771,383.201z
		 M110.254,403.947c-2.176,2.175-4.853,3.346-8.031,3.346h-3.848v-22.92h3.848c3.179,0,5.855,1.171,8.031,3.346
		c2.175,2.175,3.346,4.852,3.346,8.03S112.596,401.604,110.254,403.947z"/>
	<polygon fill="#FFFFFF" points="157.768,378.014 157.768,400.266 131.334,377.345 131.334,413.651 137.692,413.651 
		137.692,391.399 164.293,414.32 164.293,378.014 	"/>
	<polygon fill="#FFFFFF" points="199.762,398.76 199.762,392.403 185.373,392.403 185.373,384.373 200.766,384.373 200.766,378.014 
		178.849,378.014 178.849,413.651 201.937,413.651 201.937,407.126 185.373,407.126 185.373,398.76 	"/>
	<path fill="#FFFFFF" d="M276.889,383.201c-3.514-3.513-7.696-5.187-12.548-5.187h-10.205v35.637h10.205
		c4.852,0,9.202-1.674,12.548-5.187c3.514-3.514,5.187-7.696,5.187-12.548C282.075,390.897,280.403,386.715,276.889,383.201z
		 M272.371,403.947c-2.175,2.175-4.852,3.346-8.03,3.346h-3.848v-22.92h3.848c3.179,0,5.855,1.171,8.03,3.346
		c2.176,2.175,3.347,4.852,3.347,8.03S274.547,401.604,272.371,403.947z"/>
	<path fill="#FFFFFF" d="M313.194,409.134L313.194,409.134l2.175,4.518h7.027l-17.065-36.306l-16.897,36.138h7.027l2.175-4.517
		h15.559V409.134z M305.33,392.57l0.168,0.335l4.517,9.871h-9.369L305.33,392.57z"/>
	<polygon fill="#FFFFFF" points="349.499,378.014 340.799,391.232 340.464,390.73 331.932,378.014 324.236,378.014 337.62,397.924 
		337.62,413.651 343.978,413.651 343.978,397.924 343.978,397.924 357.195,378.014 	"/>
	<path fill="#FFFFFF" d="M460.254,409.134l0.168,0.167l2.008,4.351h7.026l-16.897-36.306l-16.898,36.138h7.027l2.175-4.517h15.392
		V409.134z M452.559,392.57l4.685,10.038h-9.369L452.559,392.57z"/>
	<path fill="#FFFFFF" d="M493.883,400.266l6.357,13.385h7.194l-7.361-14.724l0.334-0.167c1.841-1.004,3.179-2.342,4.351-4.016
		c1.003-1.673,1.505-3.681,1.505-5.688c0-3.011-1.004-5.688-3.179-7.695c-2.175-2.175-4.685-3.179-7.695-3.179h-15.56v35.636h6.357
		v-13.719h7.361L493.883,400.266z M486.187,384.373h9.034c1.339,0,2.343,0.502,3.179,1.338c0.837,0.837,1.339,2.008,1.339,3.179
		c0,1.339-0.502,2.343-1.339,3.179c-0.836,0.837-2.008,1.339-3.179,1.339h-9.034V384.373z"/>
	<polygon fill="#FFFFFF" points="547.755,378.014 515.13,378.014 515.13,384.373 528.18,384.373 528.18,413.651 534.705,413.651 
		534.705,384.373 547.755,384.373 	"/>
	<rect x="558.295" y="378.014" fill="#FFFFFF" width="6.859" height="35.637"/>
	<polygon fill="#FFFFFF" points="612,378.014 605.642,378.014 605.642,400.266 579.041,377.345 579.041,413.651 585.566,413.651 
		585.566,391.399 612,414.32 	"/>
	<polygon fill="#FFFFFF" points="407.554,414.487 418.93,398.092 418.93,413.651 425.455,413.651 425.455,377.68 407.554,403.278 
		389.82,377.847 389.82,413.651 396.177,413.651 396.177,398.092 396.512,398.594 	"/>
	<path fill="#FFFFFF" d="M230.713,393.239l-0.837-0.167c-4.015-1.338-7.361-2.342-7.361-5.019l0,0c0-2.343,2.008-3.849,5.187-3.849
		c2.844,0,6.525,1.171,10.038,3.347l3.012-5.521c-3.848-2.51-8.532-3.848-12.883-3.848c-7.361,0-12.548,4.35-12.548,10.707v0.167
		c0,6.692,5.688,8.7,11.043,10.206l0.836,0.335c3.848,1.171,7.194,2.175,7.194,4.852v0.167c0,2.51-2.175,4.016-5.688,4.016
		c-3.848,0-7.863-1.506-11.711-4.35l-3.347,5.187c4.183,3.346,9.704,5.186,14.891,5.186c8.03,0,13.05-4.183,13.05-11.042v-0.167
		C241.588,397.59,236.402,395.08,230.713,393.239z"/>
</g>
</svg>
