<?xml version="1.0" encoding="utf-8"?>
<!-- Generator: Adobe Illustrator 18.0.0, SVG Export Plug-In . SVG Version: 6.00 Build 0)  -->
<!DOCTYPE svg PUBLIC "-//W3C//DTD SVG 1.1//EN" "http://www.w3.org/Graphics/SVG/1.1/DTD/svg11.dtd">
<svg version="1.1" id="Layer_1" xmlns="http://www.w3.org/2000/svg" xmlns:xlink="http://www.w3.org/1999/xlink" x="0px" y="0px"
	 viewBox="0 0 169 166.3" style="enable-background:new 0 0 169 166.3;" xml:space="preserve">
<style type="text/css">
	.st0{fill-rule:evenodd;clip-rule:evenodd;fill:#F05A71;}
</style>
<path class="st0" d="M150.7,47.6c-1.7,4.4-2.4,9-4.8,13.3c-1.4,2.5-1.1,6.2,1.4,8.3c3.9,3.4,4.3,7.2,3.4,11.8
	c-0.6,2.8-1.1,7,2.5,7.4c3,0.3,3.4-3.8,3.9-6.5c0.2-1.1,0.2-2.4,0-3.5c-0.6-4.4-0.1-8.8,1.3-12.9c1.6-4.6,1.1-8.9-0.6-13.3
	c2.2-0.9,2.8,1,3.8,2.1c1.3,1.4,2.5,1.9,4.1,0.4c2.4-2.2,4.5-13,3-15.9c-0.7-1.4-1.7-2.1-3.3-2c-1,0.1-1.7,1-1.4,1.6
	c2.6,5.2-1.6,6.3-4.9,8C154.8,41.5,152.9,41.7,150.7,47.6z"/>
<path class="st0" d="M129,48.4c1.3-7.2,0.6-15.2-1.5-19.1c-1.3-2.3-3.2-3.2-5.2-2.3c-2.4,1.1-0.8,3.2-0.4,5c0.6,2.8,2.3,4.8,3.5,7.2
	c0.9,1.9,2.2,4.3-0.1,5.6c-2.2,1.3-4.7-1-4.6-3c0.1-4.8-2.8-8.8-2.1-13.6c0.3-1.9,1-4.5-1.3-4.9c-1.8-0.3-2.7,1.9-3.4,3.9
	c-2.4,7.2,0.7,19.4,6.2,24.8C125.3,57.1,127.5,56.2,129,48.4z"/>
<path class="st0" d="M23.3,96.6c-6.9,6.1-7.3,8.2-3.8,16.4c1.3-0.8,2.6-1.8,4-2.6c5.8-3,7.9-7.6,6.1-13.8c-0.4-1.4,0.4-1.6,1.1-2.3
	c4.5-4.2,6.4-11.9,4.3-17.1c-0.6-1.5-1.2-2.8-3.5-2.2C24.8,77,19.9,88.7,24,94C25.2,95.6,24.2,95.9,23.3,96.6z"/>
<path class="st0" d="M42.6,70c-0.9,1-1.5,2.3-2.3,3.4c-3.5,4.2,1.6,8.1,0.5,12.2c-0.5,1.8,0.3,3.1,2,3.7c1.8,0.6,2.9-0.4,3.9-1.9
	c1.7-2.4,3.2-5.2,7.1-4.1c1.3,1.5,0.5,5.3,3.4,4.8c2.5-0.4,2.8-3.5,2.8-6c0-1.6,0.1-3.9,1.5-4.2c6.7-1.5,4.2-6.6,4.5-10.6
	c0.1-1.6-0.3-3.4-2-4c-1.9-0.6-1.9,1.6-2.9,2.4c-0.6,0.5-1.6,1.5-1.8,1.3c-8.1-5.1-5,2.4-6,5.1c-0.6,1.6-0.3,4.3-2.5,4.3
	c-2.8,0-2-2.9-2.3-4.7c-0.2-1.6,0.1-3.5-1.5-4.2C45,66.7,43.8,68.7,42.6,70z"/>
<path class="st0" d="M98.3,103.2c-2.6,5.7-1.5,11.2,0.8,16.6c1.8,4,6,3.2,9,2.4c3-0.8,3-4.1,1.7-6.5c-1.4-2.7-1-4.7,0.5-7.1
	c1.4-2.2,2-4.7,2-7.4c-0.2-1.5-0.2-3.2-0.8-4.6c-0.7-1.8-2.6-2.8-3.3-0.5c-1.1,3.5-3.1,4.5-6.6,4.2C100,100.1,99,101.7,98.3,103.2z"
	/>
<path class="st0" d="M132.8,3.4c-1,0-2.1-1.1-2.9-1.9c-0.9-0.9-1.5-2-3-1.2c-1,0.6-1.3,1.7-1,2.6c1.5,6.1,2.9,12.3,4.9,18.2
	c1,2.9,4.2,5,7,4.7c3-0.4,2.3-4,2.7-6.4c0.3-2.1,0.9-4.2,1.3-6.3c0-0.4,0-0.8-0.1-1.2C141.1,4.8,139.9,3.7,132.8,3.4z"/>
<path class="st0" d="M122.4,62.9c-2.5,4.3-1.1,15.2,1.9,18.9c1.2,1.4,2.4,2.9,3.5,4.4c1,1.4,1.2,4.6,3.6,2.4
	c1.9-1.7,2.1-4.5,0.7-6.2c-2.3-2.8-1.5-5.5-0.7-8.7c0.6-2.4,1-5,1.1-7.6c0.1-3.2,0-7.4-2.9-7.7c-2.5-0.2-1,4.3-2.4,6.6
	C125.7,63.6,125.3,57.9,122.4,62.9z"/>
<path class="st0" d="M61.2,126.1c-1-0.9-2.2,0.1-3,1c-0.8,0.9,0,2.7-1.9,3.4c-1.7-3.6-3.9-6.5-5-10.2c-1-3.6-5.1-5.5-8.2-5.6
	c-2.5-0.1-2.7,3.8-2.4,6.5c-2.9,1.9-2.8-0.6-3.4-2.1c-0.6-1.8-0.8-4.8-3.5-3.5c-4.2,2.1-3.5,6.2-2.5,9.9c0.6,2.3,1.8,2.2,4,1.6
	c4.1-1.2,7.7-4.5,12.4-3.5c0.5,4.9,1,9.8,1.7,14.7c0.2,1.3,0.9,2.9,1.9,3.5c1.5,1,2.5-0.8,3.3-1.8c1.3-1.6,2.1-2.9,4.8-1.8
	c1.8,0.7,2.8-2.2,2.6-3.8C61.7,131.7,63.8,128.5,61.2,126.1z"/>
<path class="st0" d="M48.9,93.7c-5.9-0.1-13.2,5.9-13.3,11.5c0,3.4,1.9,5.4,4,5.6c7.3,0.2,14.1-5.6,14.4-10.9
	C54.3,96,53.3,93.7,48.9,93.7z"/>
<path class="st0" d="M37.6,53.5c-0.6,0.4-1.5,1-2.2,0.9c-3.4-0.3-6,0.6-6.8,4.2c-0.9,3.9-0.4,7.5,2.3,10.5c1.8,2,3.9,2.8,6.3,0.8
	c4-3.4,6.1-7.7,6.9-12.9C43.2,53.7,42.6,50,37.6,53.5z"/>
<path class="st0" d="M135.1,29.5c-2.5,0-2.2,1.8-2.1,3.4c0.2,3.3,1.9,6.5,1.2,10.4c0.1,1.7,0.3,3.8,0.5,6c0.2,1.5,2,2.3,2.5,1.5
	c2.1-3.8,5.9-2.1,8.8-3.2c3.2-1.1,4.5-3.9,3.5-7.1C148,35.5,140.2,29.5,135.1,29.5z"/>
<path class="st0" d="M14.6,119c-3.6-1.8-6.4,0.6-8.6,3.5c0.1,0.1,6.5,12.9,6.6,13.2c1.7,6.2,5.4,8.3,10.8,6
	c1.3-3.5,3.4-6.8,1.5-10.7c-0.6-1.2-0.9-2.9-2.7-2.7c-1.7,0.2-1.1,1.8-1.3,2.9c-0.4,1.8,0.2,4.8-2.7,4.2c-1.9-0.4-2-3.1-1.7-5.1
	c0.1-0.8,0.3-1.6,0.5-2.3C18.2,124.3,18,120.7,14.6,119z"/>
<path class="st0" d="M51,62.2c2.8-2,6-3.2,8.8-4.9c3.1-1.8,0.4-13-3.4-15.6c0,3,0,5.7,0,9.3c-3.9-2.3-3.6-5.7-5.1-8.2
	c-0.8-1.2-1.6-2.4-3.3-1.9c-1.3,0.4-1.6,1.8-1.5,3c0.6,5.3,1.2,10.5,2,15.8C48.8,60.9,49.5,63.2,51,62.2z"/>
<path class="st0" d="M78.2,92c-1.7,4.1-4.1,8.1-4.7,12.6c-0.3,2.2,0.2,4.9,2.7,5.3c2.6,0.4,1.8-2.4,2.6-3.9c0.5-1,0.2-2.4,1.7-3
	c1.2,3,0.4,5.7-0.5,8.5c-0.7,2.5,0.8,4.1,2.8,5.3c1.2,0.7,1.8-0.4,2.3-1.2c2.5-4.2,0.2-20.1-3.3-23.9C80.4,90.3,79.1,89.9,78.2,92z"
	/>
<path class="st0" d="M93.2,136.7c1.5-4.2,2.2-8.9,2.9-13.4c0.4-2.4-2.1-5.3-3.4-8c-0.5-1-2.1-2.4-2.7-1c-1.6,4-4.4,7.2-6.2,9.7
	c0.3,4.6,0.1,8.2,2.6,10.8C88.3,136.9,92.4,139,93.2,136.7z"/>
<path class="st0" d="M84.1,48.8c-1.4,0.2-2,1.6-1.7,2.8c1.1,4.4-1.1,8-2.4,11.9c-1.4,4.2,0.1,8.6,1.8,12.7c0.5,1.3,1.4,2.7,3,2.7
	c2,0,2.5-2,2.9-3.3c1.1-3.9,0.8-7.8,0.4-11.8c-0.3-4.3,0.6-8.8-1.3-12.9C86.3,49.7,85.5,48.6,84.1,48.8z"/>
<path class="st0" d="M39.7,13.2c-1.2-1.2-2.6-2.5-4.1-1.3c-2.7,2-0.7,7-5.7,8.3c-0.9,0.3,0.9,6.5,4,8.8c1.8,1.3,3.7,2.1,6.2,0.9
	c3.6-1.7,2.8-4.8,3-8.5C43.4,18.8,42.3,15.8,39.7,13.2z"/>
<path class="st0" d="M106,23c-1.2-1.5-2.6-3.2-4.1-1.7c-2.7,2.6-0.7,9.1-5.7,10.8c-0.9,0.3,0.9,8.5,4,11.5c1.8,1.7,3.7,2.7,6.2,1.2
	c3.6-2.2,2.8-6.3,3-11C109.7,30.2,108.6,26.3,106,23z"/>
<path class="st0" d="M11.1,51.5c0.1,2,0,3.9,0.8,5.8c1.3,3.1,2.9,6.1,6.7,6c3.8-0.1,4.4-3.5,5.4-6.3c1.3-3.5-0.5-6.6-0.9-9.9
	c-0.1-0.9-0.9-1.9-2.1-1.7c-1.4,0.2-1.1,1.4-1.2,2.3c-0.2,2-0.2,4-0.5,5.9c-0.1,0.9-0.6,2-1.8,2.1c-1.4,0.1-1.5-1.1-1.9-2
	c-0.6-1.3-0.5-2.6-0.3-4.1c0.3-2.7,2.6-7.3-0.8-7.7c-3.4-0.4-2.7,4.8-3.4,7.7C11,50.2,11.1,50.9,11.1,51.5z"/>
<path class="st0" d="M146.2,22.1c0.2,4.8,0.9,10.2,5,11c4.3,0.9,5.9-4.2,7.1-9.2c0.5-2.2,0.6-4.7,0.8-6.2c-0.4-4.4,0.5-9.9-2.3-10.3
	c-2.9-0.4-1.1,5.4-2.1,8c-0.3,0.8-0.4,1.7-0.5,2.6c-0.3,1.8-0.5,3.9-2.1,3.8c-2-0.1-2-2.8-1.9-4.8c0.2-3.6,0.9-7.1,1.2-10.7
	c0.1-1.6,0.4-4-1.2-4.4c-1.5-0.4-2,1.4-2.5,3.2C146.5,10.7,145.9,16.4,146.2,22.1z"/>
<path class="st0" d="M89.4,84.3c-1.7,0-3.7,0.8-3.6,3.6c0,2.3,0.7,4.2,4.1,3.5c3.7-0.8,3.7,1.1,2.1,3.5c-0.9,1.4-1.5,2.7-1.5,4.4
	c0.1,2.2,0.8,4.2,3,4.6c2,0.4,3.3-1.5,3.8-3.2c0.7-2.8,1.6-5.8,1.3-8.6C98,87.6,95.5,84.3,89.4,84.3z"/>
<path class="st0" d="M27.9,33.8c-1.2-0.1-1.7,0.9-1.8,1.9c-0.2,1.2-0.2,2.3-0.3,4c0.9,2.9-0.7,8.3,5.4,7.9c2.1-0.1,4.6-1.1,6.8-1.8
	c4.3-1.3,6-4.4,5.2-8.7c-0.2-1.1-0.4-2.5-2-2.6c-1.6-0.1-2,1.1-2.1,2.3c-0.5,5.9-5.2,2.8-8,3.3c-3.2,0.6-2.5-2-2.2-4
	C29.3,35.1,29.2,34,27.9,33.8z"/>
<path class="st0" d="M65.2,92.2c-2.7-2.6-4.7,0.4-6.2,2.2c-2.3,2.6-2.2,5.3,0.3,7.8c2,2,4.3,2.1,6.4,0.2c2-1.9,3.8-4,5.7-6
	c3.4-2.3,4.7-5.9,5.8-9.4c1.3-4.2-0.9-7-4.7-8.3c-2.3-0.8-4.4,0.3-5.3,2.7c-0.7,1.6-0.4,3.7,1.2,4c8.4,1.2,2.7,4.6,1.4,7.3
	C68.2,93.3,67.1,94.1,65.2,92.2z"/>
<path class="st0" d="M103.7,86.4c2.2,0.5,3.6-1.4,5.1-2.7c3.6-3.3,3.1-7.3,1.6-11.7c-1.6,2.8-4.1,3.5-6.7,4.6
	c-2.3,0.9-2.7,3.2-2.5,5.5C101.2,83.9,101.7,85.9,103.7,86.4z"/>
<path class="st0" d="M71.1,112.3c-0.3-1.6-0.7-3.3-2.5-3.6c-2.2-0.4-3.2,1.2-3.8,3.1c-1.3,4.4-1,8.5,2.4,12
	c-0.1,4.4,3.5,5.4,6.7,6.2c4.4,1,5.7-3.4,7.3-5.8c1.5-2.3-0.5-5.4-3-6.9c-3-1.9-4.7,0.3-6,2.8C69.9,117.7,71.6,114.8,71.1,112.3z"/>
<path class="st0" d="M69.2,60.8c1.2,3.3,2.6,6.5,5.8,9c3-4.2,1.8-7.9-0.2-11.3c-0.9-1.6-2.5-3.5-4.8-2.3
	C68,57.2,68.6,59.1,69.2,60.8z"/>
<path class="st0" d="M137.4,85.9c-2.9,1.9,0.2,4.6,0.4,6.9c0.1,1,0.6,1.9,0.8,2.8c0.3,1.4,0.8,3,2.4,3c1.9,0,1.5-1.9,1.8-3.2
	c0.5-2.2-0.4-4.7,1.1-6.8C141.7,87.5,140.1,84.2,137.4,85.9z"/>
<path class="st0" d="M58.3,109.2c-4.1,0.2-3.8,3.8-4.3,5.7c-0.3,3.3,0.5,6.1,2.9,5.7c3.6-0.6,3.3-4.5,3.6-7.3
	C60.7,111.6,60.8,109.1,58.3,109.2z"/>
<path class="st0" d="M111.7,87.4c0,2.9,1.6,4.5,4.4,4.6c3.4-0.7,5.2-2.4,5-5.7c-0.2-2.7-1.4-4.9-4.6-4.6
	C113.2,82.1,111.7,84.4,111.7,87.4z"/>
<path class="st0" d="M29.8,121c-0.3-2.1-0.2-4.8-3.1-5c-2.2-0.1-2.8,2.3-3,3.8c-0.4,2.7,2.3,3.5,4.2,4C30,124.3,29.4,122.1,29.8,121
	z"/>
<path class="st0" d="M60.1,146.3c-1.7-1.3-3.4-1.5-5.2,0c-0.6,3.2-0.6,7.7,2.9,7.8c3.8,0.1,2.2-4.5,2.4-7.2
	C60.2,146.7,60.1,146.5,60.1,146.3z"/>
<path class="st0" d="M47,146.5c-1.8,1.7-2.3,3.5-0.9,5.6c0.8,1.1,1.8,0.5,2.5-0.1c2.4-1.9,1.1-3.7-0.2-5.5
	C48,146.5,47.5,146.5,47,146.5z"/>
<path class="st0" d="M10.8,162.4c3.9-2.4,8.3-4.6,8-10.2c-0.1-3.3-1.3-5.1-5.1-6c-3.6-0.8-5.1,2.5-7.3,2.5c-7.9,0-6.6,4.9-5.8,9.4
	C2.4,167.1,2.9,167.3,10.8,162.4z"/>
<path class="st0" d="M46.9,159.7c0.6,3,1.7,6.6,5.8,6.6c3.1,0,4.2-2.7,5-5.8c-1.1-2.7-3.3-4.8-6.6-4.9
	C48.7,155.6,46.3,157.1,46.9,159.7z"/>
<path class="st0" d="M133.1,124.1c5-1.1,3.8-6.7,4.5-10.6c0.6-3.2,0-6.4-0.7-9.4c-1.5-6.4-5.8-8.7-12.1-7.1
	c-1.1,2.9,0.3,4.9,2.4,6.7c1.5,1.3,3.1,2.6,4.4,4c1.4,1.4,2.7,3.1,1.9,5.3c-0.5,1.5-1.8,2.1-3.4,1.9c-2.4-0.3-4.1-1.6-5-3.7
	c-2.2-4.9-3.7-9.9-2.7-15.4c-4.1-1.6-5.1,1.6-5.8,4.1c-1.9,7.1,1.3,13.2,5.1,18.8C124.1,122.2,128.9,125,133.1,124.1z"/>
<path class="st0" d="M91.4,38.6c-0.4-1.4-1.2-2.8-2.5-3.9c-0.7-0.6-1.7-0.2-1.9,0.6c-0.5,2.3-0.3,4.3,0.7,6.1l0,0
	c0.2,0.6,0.6,1.1,0.9,1.6c0.3,0.5,0.6,0.9,1,1.3c0.5,0.4,1,0.7,1.6,0.7c0.8-0.1,1-0.9,1.1-1.7C92.5,41.7,92.3,40,91.4,38.6z"/>
<path class="st0" d="M119.6,60.7c-0.1-0.6-0.2-1.3-0.3-1.9c-0.1-0.6-0.2-1.1-0.4-1.7c-0.1-0.4-0.2-0.8-0.5-1.2
	c-0.1-0.1-0.2-0.2-0.3-0.3c-0.5-0.6-1.1-1-2.1-1.3c-2.3-0.6-2.5,2.1-2.3,3.8c0.4,2.8,0.2,6.4,3.9,7c1.1,0.2,1.5-0.3,1.7-1.1
	c0-0.1,0.1-0.2,0.1-0.3c0.2-0.5,0.1-1,0.1-1.5C119.6,61.7,119.6,61.2,119.6,60.7z"/>
<path class="st0" d="M110.8,64.9c-0.1-1-0.4-2-0.7-2.9c-0.4-1.1-0.8-2.1-1.4-3c-0.2-0.7-0.5-1.3-0.8-1.9c-1-2.6-1.9-5.9-4.7-6.6
	c-2.5-0.6-2.7,3.3-4.6,4.6c-0.5,0.3-0.6,1-1.1,1.4c-6.9,5.2-8.9,14.7-4.7,22c0.6,1.1,1.1,2.3,2.6,2.1c1.6-0.2,1.4-1.7,1.4-2.8
	c0-1,0.2-2-0.1-3c-1.9-5.7,3.4-6.7,6.3-9.3c1.1-1,2-1,2.7-0.6c0.2,0.2,0.4,0.4,0.6,0.6c0.3,0.3,0.6,0.6,0.9,0.9
	c0.4,0.5,0.8,0.9,1.4,1.1c0.5,0.2,1.3,0.4,1.7,0C110.8,67,110.8,65.6,110.8,64.9z"/>
<path class="st0" d="M147.6,86.5c0.2,0,0.3-0.1,0.5-0.2c2.4-1.7,1.6-4.9,0.5-6.9c-4.2-8.2-8.4-16.1-5.3-25.6c0.1-0.2,0-0.4-0.1-0.6
	c-0.1-1.3-0.8-2.6-2-2.6c-1.3,0-1.7,1.3-2,2.5c-2.2,7.3-2.7,14.4,0,21.9c1.3,3.7,4,6.6,5.6,10C145.5,85.9,146.3,86.8,147.6,86.5z"/>
<path class="st0" d="M142.9,112.2c-0.7-5.2,5.4-21.8,10.1-11.2c1.4,3.1,0.7,5.9,0.1,8.8c-0.8,4,0,6.3,0.4,10.1
	c0.4,3.5-0.1,6.4,0.4,9.8c0.4,3-0.2,12.4-4.2,6c-1.4-2.2-1.8-7.7-2.8-10.4C145.2,121,143.5,116.7,142.9,112.2z"/>
<path class="st0" d="M10.8,25.7c1.4-8.8,6.1,0,8.8,3.2c2.1-2.1-0.9-18.1,5.6-14.5c2.4,1.3,3.6,14,3.1,16.4c-2.9,0.5-3.3-2.5-3.5-4.9
	c0.1,4.8-1.4,10.4-6.5,5.6c3,2.8,1.8,9-2.8,7C11.9,36.9,10.2,29,10.8,25.7z"/>
<path class="st0" d="M65.6,43c0.2-1.6,1.7-5.4,3.9-3.6c1.9,1.6-1,3.7,0.1,5.4c1.1,1.6,4.7,1.1,5.9-0.1c1.5-1.5,0-3.1,0-4.9
	c0-2.6,3-3.7,4.4-1.3c0.6,1,0.6,2.8,0.9,4c0.2,0.8,0.7,2.1,0.5,3C81.2,46.5,80,47,79.6,48c-0.3,0.9-0.1,2-0.9,2.8
	C78,51.4,77,51.2,76,51.3c-1.7,0.2-3.2,0.8-5,0.2C67.8,50.4,65.2,46.4,65.6,43z"/>
<path class="st0" d="M29.4,148.6c0.8,2.4,0.6,11.5-2.7,12.2c-5,1.1-3-9-2.7-11.7c0.2-2.6-0.4-7.4,2.6-8.8c4.6-2.2,4.3,5.5,7.9,5.1
	c0.5-2.2,0.3-4.4,0.5-6.6c0.1-2,1.5-9.9,4.7-10.2c3.9-0.3,3.4,10.6,3.5,13.6c0.1,1.8,0.7,11.9-2.7,12.4c-3.2,0.4-1.7-9.2-2.4-11.3
	c-0.6,6.7-2.8,15.2-7.9,5.8"/>
</svg>
