<?xml version="1.0" encoding="utf-8"?>
<!-- Generator: Adobe Illustrator 18.0.0, SVG Export Plug-In . SVG Version: 6.00 Build 0)  -->
<!DOCTYPE svg PUBLIC "-//W3C//DTD SVG 1.1//EN" "http://www.w3.org/Graphics/SVG/1.1/DTD/svg11.dtd">
<svg version="1.1" id="Layer_2" xmlns="http://www.w3.org/2000/svg" xmlns:xlink="http://www.w3.org/1999/xlink" x="0px" y="0px"
	 viewBox="0 0 303.7 283.5" style="enable-background:new 0 0 303.7 283.5;" xml:space="preserve">
<style type="text/css">
	.st0{fill-rule:evenodd;clip-rule:evenodd;fill:#F05A71;}
</style>
<path class="st0" d="M-108,63.3C-108,63.3-108,63.3-108,63.3C-108,63.3-108,63.3-108,63.3C-108,63.3-108,63.3-108,63.3
	c0,0,0.1-0.1,0.1-0.1c0,0,0,0,0,0C-107.9,63.2-107.9,63.2-108,63.3C-108,63.3-108,63.3-108,63.3L-108,63.3z"/>
<path class="st0" d="M231.7,8.9c0.8-1.4,3.4-1.3,4.7-1.8c2.1-0.9,3.5-2.2,5-4.1c1.3-1.7,1.7-2.9,4-3c2.2,0,4,1.5,3.9,3.9
	c-0.2,4.1-5.7,6.8-8.8,7.7C238.7,12.2,229.4,13.2,231.7,8.9z"/>
<path class="st0" d="M258.5,3.3c3.8,2.5-2.8,10.3-5.8,8.6C249.8,10.2,254.6,0.8,258.5,3.3z"/>
<path class="st0" d="M266.8,4.2c5.1-1.4,3.6,5,0.1,6.2C261.8,12.2,262,5.5,266.8,4.2z"/>
<path class="st0" d="M58.9,129.1c-6.9,6.1-7.3,8.2-3.8,16.4c1.3-0.8,2.6-1.8,4-2.6c5.8-3,7.9-7.6,6.1-13.8c-0.4-1.4,0.4-1.6,1.1-2.3
	c4.5-4.2,6.4-11.9,4.3-17.1c-0.6-1.5-1.2-2.8-3.5-2.2c-6.8,1.9-11.6,13.6-7.5,18.9C60.8,128.1,59.7,128.4,58.9,129.1z"/>
<path class="st0" d="M133.9,135.7c-2.6,5.7-1.5,11.2,0.8,16.6c1.8,4,6,3.2,9,2.4c3-0.8,3-4.1,1.7-6.5c-1.4-2.7-1-4.7,0.5-7.1
	c1.4-2.2,2-4.7,2-7.4c-0.2-1.5-0.2-3.2-0.8-4.6c-0.7-1.8-2.6-2.8-3.3-0.5c-1.1,3.5-3.1,4.5-6.6,4.2
	C135.6,132.6,134.6,134.2,133.9,135.7z"/>
<path class="st0" d="M26.6,250.6c0.4,2.4,2.2,4,4.7,3.9c2.5-0.1,4.5-2.3,4-4.4c-1.4-5.3,1.1-9.4,3.1-13.8c1-2.2,0.9-4.6,0.1-7
	c-0.6-1.7-0.7-3.8-3-3.9c-2.4-0.1-3.1,1.9-3.7,3.9c-1,3.1,0.7,6.7-1.6,9.7c-1.9-1.2-1.6-2.8-1.2-4.4c0.6-2.3,1.6-5.5-1.6-5.9
	c-3.3-0.4-4.3,3.6-3.6,5.6C25.8,239.7,25.6,245.2,26.6,250.6z"/>
<path class="st0" d="M208.6,78.9c-0.7-0.5-1.9,1.2-2.3,2.4c-1.6,5.6-2,11.2,1,16.6c1.7,3.1,3.9,3.2,6.2,0.7c5.5-6,9.5-17.6,3.6-24
	C213.9,75.3,214.9,83.5,208.6,78.9z"/>
<path class="st0" d="M96.7,158.6c-1-0.9-2.2,0.1-3,1c-0.8,0.9,0,2.7-1.9,3.4c-1.7-3.6-3.9-6.5-5-10.2c-1-3.6-5.1-5.5-8.2-5.6
	c-2.5-0.1-2.7,3.8-2.4,6.5c-2.9,1.9-2.8-0.6-3.4-2.1c-0.6-1.8-0.8-4.8-3.5-3.5c-4.2,2.1-3.5,6.2-2.5,9.9c0.6,2.3,1.8,2.2,4,1.6
	c4.1-1.2,7.7-4.5,12.4-3.5c0.5,4.9,1,9.8,1.7,14.7c0.2,1.3,0.9,2.9,1.9,3.5c1.5,1,2.5-0.8,3.3-1.8c1.3-1.6,2.1-2.9,4.8-1.8
	c1.8,0.7,2.8-2.2,2.6-3.8C97.3,164.2,99.4,161,96.7,158.6z"/>
<path class="st0" d="M84.4,126.2c-5.9-0.1-13.2,5.9-13.3,11.5c0,3.4,1.9,5.4,4,5.6c7.3,0.2,14.1-5.6,14.4-10.9
	C89.9,128.5,88.8,126.2,84.4,126.2z"/>
<path class="st0" d="M224.7,97.9c-3.3-0.8-5.8-0.3-6.9,3.1c-1.7,5,0.2,11.2,4.8,14.1c2,1.3,4.3,3.1,6.6,2c1.9-1,0.7-3.6,0.9-5.5
	c0.2-2.3,0.8-4.6,0.9-7C231,100.5,230.2,96.9,224.7,97.9z"/>
<path class="st0" d="M113.8,124.5c-1.7,4.1-4.1,8.1-4.7,12.6c-0.3,2.2,0.2,4.9,2.7,5.3c2.6,0.4,1.8-2.4,2.6-3.9c0.5-1,0.2-2.4,1.7-3
	c1.2,3,0.4,5.7-0.5,8.5c-0.7,2.5,0.8,4.1,2.8,5.3c1.2,0.7,1.8-0.4,2.3-1.2c2.5-4.2,0.2-20.1-3.3-23.9
	C115.9,122.7,114.7,122.4,113.8,124.5z"/>
<path class="st0" d="M246.5,12.3c-2.8,0-1.5,2.6-2.1,4.1c-1.1,2.6-1.4,5.3-1.1,8.4c-0.5,3.5,0.6,7.2,1.6,10.7
	c0.6,2.2,2.3,4.5,5.2,3.9c2.6-0.6,2.9-2.9,2.9-5.2c0.2-6.4-1.6-12.4-3.8-18.4C248.8,14.4,248.4,12.2,246.5,12.3z"/>
<path class="st0" d="M128.8,169.2c1.5-4.2,2.2-8.9,2.9-13.4c0.4-2.4-2.1-5.3-3.4-8c-0.5-1-2.1-2.4-2.7-1c-1.6,4-4.4,7.2-6.2,9.7
	c0.3,4.6,0.1,8.2,2.6,10.8C123.9,169.4,127.9,171.5,128.8,169.2z"/>
<path class="st0" d="M53.3,253.8c5-2.8,3.4-7.5,2.5-11.6c-0.4-1.9-0.5-5.1-3.3-4.9c-2.5,0.2-1.7,3.1-2,4.9c-0.2,1.3,0.2,3.2-1.8,3.2
	c-1.8,0-1.8-1.8-1.9-3.2c0-1.2,0-2.4,0-3.1c0.4-2.3,1.9-4.9-1.1-5.3c-2.5-0.3-2.3,2.6-3,4.4c-0.9,2.4-0.4,4.7,0.2,7
	C43.7,248.2,51.4,254.8,53.3,253.8z"/>
<path class="st0" d="M289.2,79.9c0.2,3.1,0.9,6.7,5,7.2c4.3,0.6,5.9-2.7,7.1-6c0.5-1.5,0.6-3.1,0.8-4c-0.4-2.9,0.5-6.5-2.3-6.7
	c-2.9-0.2-1.1,3.5-2.1,5.3c-0.3,0.5-0.4,1.1-0.5,1.7c-0.3,1.2-0.5,2.6-2.1,2.5c-2-0.1-2-1.9-1.9-3.1c0.2-2.3,0.9-4.6,1.2-7
	c0.1-1.1,0.4-2.6-1.2-2.9c-1.5-0.3-2,0.9-2.5,2.1C289.5,72.5,288.9,76.2,289.2,79.9z"/>
<path class="st0" d="M293.7,60c3.2,1.2,4.8-1.7,6.1-3.7c2.4-3.7,3.3-8.1,3.9-12.4c0.3-2.1-0.2-5.2-2.6-5.4c-3.2-0.3-2.4,2.9-2.7,4.9
	c-0.2,1.5,1.1,4.6-1.6,3.9c-6.6-1.7-5.2,3-6.1,5.9C290.6,56.2,290.7,59,293.7,60z"/>
<path class="st0" d="M236.2,64.7c3.1,1.1,4.6-1.6,5.9-3.6c2.4-3.6,3.2-7.8,3.8-12c0.3-2-0.2-5-2.5-5.2c-3.1-0.2-2.3,2.8-2.6,4.8
	c-0.2,1.4,1.1,4.5-1.6,3.8c-6.4-1.7-5,2.9-5.9,5.7C233.2,60.9,233.3,63.7,236.2,64.7z"/>
<path class="st0" d="M251.3,93.5c3.2,1.2,4.8-1.7,6.1-3.7c2.4-3.7,3.3-8.1,3.9-12.4c0.3-2.1-0.2-5.2-2.6-5.4
	c-3.2-0.2-2.4,2.9-2.7,4.9c-0.2,1.5,1.1,4.6-1.6,3.9c-6.6-1.7-5.2,3-6.1,5.9C248.3,89.6,248.4,92.4,251.3,93.5z"/>
<path class="st0" d="M124.9,116.8c-1.7,0-3.7,0.8-3.6,3.6c0,2.3,0.7,4.2,4.1,3.5c3.7-0.8,3.7,1.1,2.1,3.5c-0.9,1.4-1.5,2.7-1.5,4.4
	c0.1,2.2,0.8,4.2,3,4.6c2,0.4,3.3-1.5,3.8-3.2c0.7-2.8,1.6-5.8,1.3-8.6C133.6,120.1,131.1,116.8,124.9,116.8z"/>
<path class="st0" d="M275.7,64.1c-0.9,0.7-2,1.5-3,2.4c-4.5,4.3-5.6,9.8-5.4,15.7c0.1,2.2-0.8,5.3,2.5,5.7c3,0.4,4.3-2.5,4.7-4.6
	c0.9-5.8,1.1-11.7,3-17.3C277.8,65.2,277.6,64.1,275.7,64.1z"/>
<path class="st0" d="M256.6,22.1c-0.1,3,0.8,5.4,3.9,6.7c3,1.2,4.6-0.3,6.8-2.2c3.5-3.2,3.2-6.4,1.8-10.2c-0.5-1.3-0.8-2.8-2.4-3
	c-1.8-0.2-2.4,1.1-2.6,2.6c-0.2,2.1-1.3,2.9-3.3,2.2C256.3,16.4,256.8,19.6,256.6,22.1z"/>
<path class="st0" d="M100.8,124.7c-2.7-2.6-4.7,0.4-6.2,2.2c-2.3,2.6-2.2,5.3,0.3,7.8c2,2,4.3,2.1,6.4,0.2c2-1.9,3.8-4,5.7-6
	c3.4-2.3,4.7-5.9,5.8-9.4c1.3-4.2-0.9-7-4.7-8.3c-2.3-0.8-4.4,0.3-5.3,2.7c-0.7,1.6-0.4,3.7,1.2,4c8.4,1.2,2.7,4.6,1.4,7.3
	C103.7,125.8,102.6,126.5,100.8,124.7z"/>
<path class="st0" d="M250,65c0.3,1,0.7,2.5,2.3,2.3c0.6-0.1,1.3-0.9,1.6-1.6c2.5-4.8,0-15.9-5-20.5C247.4,52.4,247.9,58.8,250,65z"
	/>
<path class="st0" d="M280.3,85.3c2.3,0.8,2.9-1.6,3.6-3.1c2.2-4.8,1.5-10.1,2.6-14.6c0.8-2,0.3-3.6-1.2-3.8
	c-1.4-0.2-2.3,1.4-2.7,2.8c-1.2,4.6-2.3,9.1-4.6,13.4C276.9,82.1,277.9,84.5,280.3,85.3z"/>
<path class="st0" d="M17.1,283.4c5-1.1,3.8-6.7,4.5-10.6c0.6-3.2,0-6.4-0.7-9.4c-1.5-6.4-5.8-8.7-12.1-7.1c-1.1,2.9,0.3,4.9,2.4,6.7
	c1.5,1.3,3.1,2.6,4.4,4c1.4,1.4,2.7,3.1,1.9,5.3c-0.5,1.5-1.8,2.1-3.4,1.9c-2.4-0.2-4.1-1.6-5-3.7c-2.2-4.9-3.7-9.9-2.7-15.4
	c-4.1-1.6-5.1,1.6-5.8,4.1c-1.9,7.1,1.3,13.2,5.1,18.7C8.1,281.4,12.9,284.3,17.1,283.4z"/>
<path class="st0" d="M218.9,32.9c0.7,1.8,0.7,4.6,3.1,4.4c3.3-0.3,1.5-3.4,1.9-4.8c0.2-4.1-0.8-7.5-2.5-10.7
	c-0.7-1.2-1.2-2.8-2.9-2.5c-2.1,0.4-1.8,2.3-1.8,3.8C216.6,26.5,217.7,29.7,218.9,32.9z"/>
<path class="st0" d="M199.3,109.1c1.7-3.2,2.2-6.7,2.5-8.8c0.2-3.9,0.2-6.3-1.3-8.3c-1.2-1.6-3.1-1.3-3,0.3
	c0.1,5.4-1.9,10.5-2.1,15.8c0,0.9,0,2.1,1.1,2.5C197.9,111.2,198.8,110.2,199.3,109.1z"/>
<path class="st0" d="M106.7,144.8c-0.3-1.6-0.7-3.3-2.5-3.6c-2.2-0.4-3.2,1.2-3.8,3.1c-1.3,4.4-1,8.5,2.4,12
	c-0.1,4.4,3.5,5.4,6.7,6.2c4.4,1,5.7-3.4,7.3-5.8c1.5-2.3-0.5-5.4-3-6.9c-3-1.9-4.7,0.3-6,2.8C105.4,150.2,107.2,147.3,106.7,144.8z
	"/>
<path class="st0" d="M43.5,258.9c-0.5-3.2-2.3-5.7-6-6.8c-4.6,2.9-0.2,6.8-1.3,10.1c-0.5,1.7,0.3,3.7,2.2,3.1
	C41.4,264.5,44,262.4,43.5,258.9z"/>
<path class="st0" d="M240.4,27.1c0-3.1-0.1-7.1-4.2-7.3c-3.2-0.2-2.4,3.4-2.9,5.8c0.7,2.4-0.8,6.4,3.4,6.9
	C240.4,33,240.3,29.5,240.4,27.1z"/>
<path class="st0" d="M17.4,250.1c0.7,1.8,0.7,4.8,2.9,4.5c2.6-0.4,3-3.3,3.1-5.9c-0.1-0.8-0.1-1.8-0.5-2.7c-0.9-1.8,1.1-5.7-2.8-5.2
	c-3.6,0.5-4,3.9-3.4,7C16.8,248.6,17.1,249.4,17.4,250.1z"/>
<path class="st0" d="M231.4,37.5c-0.5,0.4-1.1,0.6-1.5,1.1c-1.3,1.7-1.8,3.6-0.7,5.6c1.3,2.4,1.6,5.4,4.3,6.9
	c0.4,0.2,1.2-0.1,1.7-0.4c1.8-1.1,2.4-2.8,1.4-4.6C235,43.1,234.7,39.5,231.4,37.5z"/>
<path class="st0" d="M229.1,27.5c1.8,0.7,2.1-1.9,1.8-3.4c-0.6-3.5,0.3-8.2-4.1-9.6c-2.5-0.8-1.6,2.4-2.1,4.1
	C225.4,21.8,225.2,26,229.1,27.5z"/>
<path class="st0" d="M172.9,118.4c-2.9,1.9,0.2,4.6,0.4,6.9c0.1,1,0.6,1.9,0.8,2.8c0.3,1.4,0.8,3,2.4,3c1.9,0,1.5-1.9,1.8-3.2
	c0.5-2.2-0.4-4.7,1.1-6.8C177.3,120,175.6,116.6,172.9,118.4z"/>
<path class="st0" d="M93.8,141.7c-4.1,0.2-3.8,3.8-4.3,5.7c-0.3,3.3,0.5,6.1,2.9,5.7c3.6-0.6,3.3-4.5,3.6-7.3
	C96.2,144.1,96.3,141.6,93.8,141.7z"/>
<path class="st0" d="M147.2,119.9c0,2.9,1.6,4.5,4.4,4.6c3.4-0.7,5.2-2.4,5-5.7c-0.2-2.7-1.4-4.9-4.6-4.6
	C148.7,114.6,147.2,116.9,147.2,119.9z"/>
<path class="st0" d="M7.4,246.1c3.2-1.4,2-5.8,3.6-8.7c0.6-1.1-0.7-2.6-1.9-2.1c-2.8,1.2-4.4,3.3-4.2,5.5C5,243.8,5.3,247,7.4,246.1
	z"/>
<path class="st0" d="M95.7,178.8c-1.7-1.3-3.4-1.5-5.2,0c-0.6,3.2-0.6,7.7,2.9,7.8c3.8,0.1,2.2-4.5,2.4-7.2
	C95.7,179.1,95.7,178.9,95.7,178.8z"/>
<path class="st0" d="M27.4,265.7c-0.2,1.5,1,2.7,2.6,2.4c2.5-0.5,3.2-2.7,3.4-4.9c0.1-1.4-0.4-2.7-2.3-2.9
	C28.7,261.2,27.7,263.4,27.4,265.7z"/>
<path class="st0" d="M293.8,42.1c2.3-0.2,2.1-2.9,2.4-4.8c-0.2-1.7-0.2-4.4-2.2-4.2c-2.3,0.2-2.1,3-2.2,4.9
	C291.7,39.5,291.4,42.2,293.8,42.1z"/>
<path class="st0" d="M82.6,179c-1.8,1.7-2.3,3.5-0.9,5.6c0.8,1.1,1.8,0.5,2.5-0.1c2.4-1.9,1.1-3.7-0.2-5.5
	C83.6,179,83.1,179,82.6,179z"/>
<path class="st0" d="M75.1,207.2c3.2-1.3,3.9-4.5,4.1-7.4c0.1-2.6-0.4-5.4-3.8-6.3c-1.7,2.8,0.9,6.2-2.1,8.6
	c-1.4-0.9-1.6-2.3-1.8-3.6c-0.4-1.6-0.9-3-2.9-3.3c-1.9-0.3-3,0.6-3.9,2.1c-1,1.6-1.6,3.4-0.1,4.9c1,1.1,2.8,1.7,3.7,2.9
	C70.2,207.8,72.4,208.4,75.1,207.2z"/>
<path class="st0" d="M82.4,192.2c0.6,3,1.7,6.6,5.8,6.6c3.1,0,4.2-2.7,5-5.8c-1.1-2.7-3.3-4.8-6.6-4.9
	C84.3,188.1,81.9,189.6,82.4,192.2z"/>
<path class="st0" d="M101.6,197.3c0.5-1.1-0.7-2.7-1.8-2.3c-3,1.1-4.9,3.8-6.2,6.5c-0.5,1.1,1,1.9,2.6,2
	C98.9,202.3,100.4,199.9,101.6,197.3z"/>
<path class="st0" d="M168.6,156.6c5-1.1,3.8-6.7,4.5-10.6c0.6-3.2,0-6.4-0.7-9.4c-1.5-6.4-5.8-8.7-12.1-7.1
	c-1.1,2.9,0.3,4.9,2.4,6.7c1.5,1.3,3.1,2.6,4.4,4c1.4,1.4,2.7,3.1,1.9,5.3c-0.5,1.5-1.8,2.1-3.4,1.9c-2.4-0.3-4.1-1.6-5-3.7
	c-2.2-4.9-3.7-9.9-2.7-15.4c-4.1-1.6-5.1,1.6-5.8,4.1c-1.9,7.1,1.3,13.2,5.1,18.8C159.7,154.7,164.4,157.5,168.6,156.6z"/>
<path class="st0" d="M241.7,94.4c5-1.1,3.8-6.7,4.5-10.6c0.6-3.2,0-6.4-0.7-9.4c-1.5-6.4-5.8-8.7-12.1-7.1c-1.1,2.9,0.3,4.9,2.4,6.7
	c1.5,1.3,3.1,2.6,4.4,4c1.4,1.4,2.7,3.1,1.9,5.3c-0.5,1.5-1.8,2.1-3.4,1.9c-2.4-0.3-4.1-1.6-5-3.7c-2.2-4.9-3.7-9.9-2.7-15.4
	c-4.1-1.6-5.1,1.6-5.8,4.1c-1.9,7.1,1.3,13.2,5.1,18.7C232.7,92.5,237.5,95.3,241.7,94.4z"/>
<path class="st0" d="M246.5,12.3c-2.8,0-1.5,2.6-2.1,4.1c-1.1,2.6-1.4,5.3-1.1,8.4c-0.5,3.5,0.6,7.2,1.6,10.7
	c0.6,2.2,2.3,4.5,5.2,3.9c2.6-0.6,2.9-2.9,2.9-5.2c0.2-6.4-1.6-12.4-3.8-18.4C248.8,14.4,248.4,12.2,246.5,12.3z"/>
<path class="st0" d="M256.6,22.1c-0.1,3,0.8,5.4,3.9,6.7c3,1.2,4.6-0.3,6.8-2.2c3.5-3.2,3.2-6.4,1.8-10.2c-0.5-1.3-0.8-2.8-2.4-3
	c-1.8-0.2-2.4,1.1-2.6,2.6c-0.2,2.1-1.3,2.9-3.3,2.2C256.3,16.4,256.8,19.6,256.6,22.1z"/>
<path class="st0" d="M258,39.4c0.6-1.5,1.1-2.6,3-2.3c3.4,0.5,2.3,4.4,2.3,6.6c0,2.7-0.8,7,1.9,8.5c4.7,2.7,3-6.6,3.9-9.4
	c1.1-3.6,3.9-7.3,5.5-2.2c0.7,2.2-1.6,12.1,3.4,6.5c2-2.2,0.9-10.1,5.4-10c0.5,0,1.1,0,1.6,0.1c0.2,5,1.8,24.2-7.7,20.5
	c-1.6-0.6-2.7-3.9-4.8-2.7c-2.1,1.1-0.5,6-3.6,7.9c-3.5,2.1-5.6,0.6-7.3-2.4C258.2,55.2,255.5,45.4,258,39.4z"/>
<path class="st0" d="M178.4,144.6c-0.7-5.2,5.4-21.8,10.1-11.2c1.4,3.1,0.7,5.9,0.1,8.8c-0.8,4,0,6.3,0.4,10.1
	c0.4,3.5-0.1,6.4,0.4,9.8c0.4,3-0.2,12.4-4.2,6c-1.4-2.2-1.8-7.7-2.8-10.4C180.8,153.5,179,149.2,178.4,144.6z"/>
</svg>
