<?xml version="1.0" encoding="utf-8"?>
<!-- Generator: Adobe Illustrator 18.0.0, SVG Export Plug-In . SVG Version: 6.00 Build 0)  -->
<!DOCTYPE svg PUBLIC "-//W3C//DTD SVG 1.1//EN" "http://www.w3.org/Graphics/SVG/1.1/DTD/svg11.dtd">
<svg version="1.1" id="Layer_1" xmlns="http://www.w3.org/2000/svg" xmlns:xlink="http://www.w3.org/1999/xlink" x="0px" y="0px"
	 viewBox="0 0 161.2 185.3" style="enable-background:new 0 0 161.2 185.3;" xml:space="preserve">
<style type="text/css">
	.st0{fill-rule:evenodd;clip-rule:evenodd;fill:#F05A71;}
</style>
<path class="st0" d="M59.2,6.8c-0.2-0.3,0.3-2.1,0.5-2.7C60.3,2.8,61,2,62,1.2c1.9-1.3,3.9-1.2,6-1.2c1.6,0,3.3,0.1,4.8,0.6
	c1.8,0.7,3.7,2,4.5,4C78,6,78.8,7.5,79.2,9c0.2,0.8,0.6,2.3,0.4,3.2c-0.2,1-1.1,1.3-1.9,1.6c-2.2,1-4.6,1.5-6.8,2.1
	c-1.8,0.5-4.3,1.2-6,0.2c-1-0.6-2.6-2-3-3.1c-0.3-0.7-0.5-1.1-0.9-1.7c-0.7-1-0.7-1.5-0.7-2.8"/>
<path class="st0" d="M131.5,14.4c0.8-1.4,3.4-1.3,4.7-1.8c2.1-0.9,3.5-2.2,5-4.1c1.3-1.7,1.7-2.9,4-3c2.2,0,4,1.5,3.9,3.9
	c-0.2,4.1-5.7,6.8-8.8,7.7C138.4,17.7,129.2,18.8,131.5,14.4z"/>
<path class="st0" d="M158.2,8.9c3.8,2.5-2.8,10.3-5.8,8.6C149.5,15.8,154.3,6.3,158.2,8.9z"/>
<path class="st0" d="M86,85.6c-1.7,4.4-2.4,9-4.8,13.3c-1.4,2.5-1.1,6.2,1.4,8.3c3.9,3.4,4.3,7.2,3.4,11.8c-0.6,2.8-1.1,7,2.5,7.4
	c3,0.3,3.4-3.8,3.9-6.5c0.2-1.1,0.2-2.4,0-3.5c-0.6-4.4-0.1-8.8,1.3-12.9c1.6-4.6,1.1-8.9-0.6-13.3c2.2-0.9,2.8,1,3.8,2.1
	c1.3,1.4,2.5,1.9,4.1,0.4c2.4-2.2,4.5-13,3-15.9c-0.7-1.4-1.7-2.1-3.3-2c-1,0.1-1.7,1-1.4,1.6c2.6,5.2-1.6,6.3-4.9,8
	C90.1,79.5,88.2,79.7,86,85.6z"/>
<path class="st0" d="M64.2,86.5c1.3-7.2,0.6-15.2-1.5-19.1c-1.3-2.3-3.2-3.2-5.2-2.3c-2.4,1.1-0.8,3.2-0.4,5
	c0.6,2.8,2.3,4.8,3.5,7.2c0.9,1.9,2.2,4.3-0.1,5.6c-2.2,1.3-4.7-1-4.6-3c0.1-4.8-2.8-8.8-2.1-13.6c0.3-1.9,1-4.5-1.3-4.9
	c-1.8-0.3-2.7,1.9-3.4,3.9c-2.4,7.2,0.7,19.4,6.2,24.8C60.6,95.1,62.8,94.2,64.2,86.5z"/>
<path class="st0" d="M116.7,131.8c-0.8-1.2-1.5-2.3-3.2-2.3c-1.8,0-2.6,1.5-2.9,2.6c-1.4,4.9-1.4,9.7,1.4,14.2
	c0.6,1,1.4,1.9,2.9,1.8c8.5-0.2,15.9-12.2,12-19.6c-1.1-2-2.7-4.1-5.1-3.5c-2.6,0.7-3.2,3.2-2.3,5.8c0.5,1.3,0.7,2.7-0.2,4.2
	C117.2,134.6,117.4,132.9,116.7,131.8z"/>
<path class="st0" d="M68.1,41.4c-1,0-2.1-1.1-2.9-1.9c-0.9-0.9-1.5-2-3-1.2c-1,0.6-1.3,1.7-1,2.6c1.5,6.1,2.9,12.3,4.9,18.2
	c1,2.9,4.2,5,7,4.7c3-0.4,2.3-4,2.7-6.4c0.3-2.1,0.9-4.2,1.3-6.3c0-0.4,0-0.8-0.1-1.2C76.4,42.8,75.1,41.7,68.1,41.4z"/>
<path class="st0" d="M22.3,50.2c-0.7,2.4-0.9,5-0.9,7.6c0,2.4,1.3,3.7,4,2.9c3.9-1.1,7.7-2.4,9.6-6.5c3.3-7.4,0.9-15,0.6-22.5
	c0-1.2-0.8-2.6-2.1-2.4c-1.2,0.2-1.4,1.7-1.8,2.8c-1.7,4.7,0.3,8.7,2.9,14C26.6,42.1,24.2,43.1,22.3,50.2z"/>
<path class="st0" d="M92.6,127c-2.2,4.3,1.4,14.1,5.7,16.8c1.7,1.1,3.3,2.2,4.9,3.4c1.4,1.1,2.2,4,4.7,1.5c1.9-1.9,1.6-4.4-0.3-5.8
	c-3.2-2.2-2.7-4.8-2.3-7.8c0.3-2.3,0.3-4.8-0.1-7.1c-0.5-2.9-1.3-6.8-4.8-6.5c-2.9,0.3-0.4,4.1-1.6,6.5
	C96.6,127.1,95.2,121.9,92.6,127z"/>
<path class="st0" d="M57.7,100.9c-2.5,4.3-1.1,15.2,1.9,18.9c1.2,1.4,2.4,2.9,3.5,4.4c1,1.4,1.2,4.6,3.6,2.4
	c1.9-1.7,2.1-4.5,0.7-6.2c-2.3-2.8-1.5-5.5-0.7-8.7c0.6-2.4,1-5,1.1-7.6c0.1-3.2,0-7.4-2.9-7.7c-2.5-0.2-1,4.3-2.4,6.6
	C61,101.7,60.6,95.9,57.7,100.9z"/>
<path class="st0" d="M108.4,84.4c-0.7-0.5-1.9,1.2-2.3,2.4c-1.6,5.6-2,11.2,1,16.6c1.7,3.1,3.9,3.2,6.2,0.7c5.5-6,9.5-17.6,3.6-24
	C113.6,80.8,114.7,89.1,108.4,84.4z"/>
<path class="st0" d="M102.1,42.4c3.8-2.2,3.4-6,3.1-9.5c-0.3-2.8-1.1-5.5-4.4-5.1c-2.3,1.1-3.6,1-4.6-0.9c-0.7-1.3-1-2.7-0.4-4
	c1.3-2.6,2.5-0.2,3.8,0.2c2.4,0.7,2.5-1.2,2-2.3c-0.8-2-2.1-3.9-3.4-5.5c-1.4-1.7-3.1-3.8-5.5-3.1c-2.6,0.9-2.6,3.6-2.7,6.1
	c-0.6,9,4.8,15.7,9.1,22.7C99.6,41.9,101,43.1,102.1,42.4z"/>
<path class="st0" d="M73.4,23.5c1,1.1,1.5,4.1,3.8,2c-0.5-1.3-0.8-2.7-1.4-3.8c-0.9-1.4-1.6-2.7-0.2-4.1c1.3-1.3,2.6-0.3,3.8,0.5
	c2.5,1.7,3.9,4.3,4.3,7.6c1.8,4.2,1.7,8.4-0.6,12.3c-1.5,2.5-3.6,4-6.1,2c-4.2-3.4-7-8-8-13.8c-0.3-1.5-0.4-3.4,1-4.2
	C71.3,21,72.3,22.3,73.4,23.5z"/>
<path class="st0" d="M124.4,103.4c-3.3-0.8-5.8-0.3-6.9,3.1c-1.7,5,0.2,11.2,4.8,14.1c2,1.3,4.3,3.1,6.6,2c1.9-1,0.7-3.6,0.9-5.5
	c0.2-2.3,0.8-4.6,0.9-7C130.7,106,129.9,102.4,124.4,103.4z"/>
<path class="st0" d="M70.4,67.5c-2.5,0-2.2,1.8-2.1,3.4c0.2,3.3,1.9,6.5,1.2,10.4c0.1,1.7,0.3,3.8,0.5,6c0.2,1.5,2,2.3,2.5,1.5
	c2.1-3.8,5.9-2.1,8.8-3.2c3.2-1.1,4.5-3.9,3.5-7.1C83.3,73.5,75.5,67.6,70.4,67.5z"/>
<path class="st0" d="M19.4,86.9c-1.4,0.2-2,1.6-1.7,2.8c1.1,4.4-1.1,8-2.4,11.9c-1.4,4.2,0.1,8.6,1.8,12.7c0.5,1.3,1.4,2.7,3,2.7
	c2,0,2.5-2,2.9-3.3c1.1-3.9,0.8-7.8,0.4-11.8C23,97.4,24,93,22.1,88.9C21.6,87.8,20.8,86.6,19.4,86.9z"/>
<path class="st0" d="M100.7,56.4c-1,0.2-2.1,1.3-2.5,2.3c-0.5,1.2-0.4,2.7-0.4,3.1c-0.3,7.9,1.7,9.9,11.6,12.8
	c1.7,0.5,3.9,1.6,5.1-0.2c1.5-2.3,0.8-4.9-0.5-7.3c-0.9-1.8-2.8-4.7-3.9-3.9c-7.2,5.1-5.5-2-7-4.5C102.4,57.6,102,56.1,100.7,56.4z"
	/>
<path class="st0" d="M41.2,61c-1.2-1.5-2.6-3.2-4.1-1.7c-2.7,2.6-0.7,9.1-5.7,10.8c-0.9,0.3,0.9,8.5,4,11.5c1.8,1.7,3.7,2.7,6.2,1.2
	c3.6-2.2,2.8-6.3,3-11C45,68.2,43.9,64.3,41.2,61z"/>
<path class="st0" d="M108.1,32.4c-0.5,4,1.7,7.7,3.8,11.1c0.7,1,1.5,2,2.9,1.6c1.4-0.3,1.8-1.6,2.1-2.7c0.8-3.3-0.4-6.2-2.3-8.9
	c-2-2.8-3.7-5.2-1.2-9c1.8-2.8-3.3-10.7-6.8-10.9c-2.4,1.1-2,3.4-0.9,5.2C108,23.1,108.7,27.4,108.1,32.4z"/>
<path class="st0" d="M3.7,40.3c6.7-0.8,6,4.9,8.3,7.8c0.9,1.1,1.5,2.3,2.4,3.4c0.7,0.9,1.6,1.9,3,0.9c1.2-0.9,1-1.9,0.6-3.1
	c-0.8-2-3.1-3.2-3-6.1c2.4,0,6.3,0.9,4.5-3.7c-1.2-3-1.7-7.1-6.9-4.7C8.3,36.7,4.4,35.9,0,33.1C0,36.9,2.1,40.5,3.7,40.3z"/>
<path class="st0" d="M115.1,57.6c0.9,4.4,3.2,8.1,6.6,11.1c1.5,1.3,2.7,1.4,4,0.1c-0.1-5.9,3.8-12.1-0.9-17.9
	c-2.8,0.8-1.7,3.6-3.3,4.8c-1.4-2-0.8-6.2-4.2-5.4C114.3,51.2,114.6,55,115.1,57.6z"/>
<path class="st0" d="M81.5,60.1c0.2,4.8,0.9,10.2,5,11c4.3,0.9,5.9-4.2,7.1-9.2c0.5-2.2,0.6-4.7,0.8-6.2c-0.4-4.4,0.5-9.9-2.3-10.3
	c-2.9-0.4-1.1,5.4-2.1,8c-0.3,0.8-0.4,1.7-0.5,2.6C89.2,58,89,60.1,87.5,60c-2-0.1-2-2.8-1.9-4.8c0.2-3.6,0.9-7.1,1.2-10.7
	c0.1-1.6,0.4-4-1.2-4.4c-1.5-0.4-2,1.4-2.5,3.2C81.7,48.7,81.2,54.5,81.5,60.1z"/>
<path class="st0" d="M151.1,99c3.2,1.2,4.8-1.7,6.1-3.7c2.4-3.7,3.3-8.1,3.9-12.4c0.3-2.1-0.2-5.2-2.6-5.4c-3.2-0.2-2.4,2.9-2.7,4.9
	c-0.2,1.5,1.1,4.6-1.6,3.9c-6.6-1.7-5.2,3-6.1,5.9C148,95.1,148.1,97.9,151.1,99z"/>
<path class="st0" d="M104,115.5c0,1.7,0.5,3.5,1.2,5.1c1.2,3,1.6,8.1,5.2,7.6c4.2-0.5,3.1-5.7,3.9-9.5c-0.2-1.1-0.5-2.7-0.6-4.2
	c-0.2-4.6-3.7-5.6-7.2-5.3C102.7,109.6,104,113.2,104,115.5z"/>
<path class="st0" d="M38.9,124.4c2.2,0.5,3.6-1.4,5.1-2.7c3.6-3.3,3.1-7.3,1.6-11.7c-1.6,2.8-4.1,3.5-6.7,4.6
	c-2.3,0.9-2.7,3.2-2.5,5.5C36.5,121.9,37,124,38.9,124.4z"/>
<path class="st0" d="M10.5,26c1.7-1,0.8-2.8,0.2-4.3c-1.1-2.5-2.3-5.1-3.6-7.5C6.5,13,5.7,11.8,4,11.8c-1-0.1-1.7,0.5-1.8,1.3
	c-0.4,4.4-0.5,8.9,2.7,12.4C6.1,26.8,8.7,27.1,10.5,26z"/>
<path class="st0" d="M99.1,114.7c1.7-3.2,2.2-6.7,2.5-8.8c0.2-3.9,0.2-6.3-1.3-8.3c-1.2-1.6-3.1-1.3-3,0.3
	c0.1,5.4-1.9,10.5-2.1,15.8c0,0.9,0,2.1,1.1,2.5C97.6,116.7,98.5,115.7,99.1,114.7z"/>
<path class="st0" d="M29.2,28.2c0.8,0.2,1.8,0.3,2.1-0.6c1-2.7-0.9-4.9-1.9-7.2c-0.8-2-1.6-4.1-3.8-4.8c-1.2-0.1-1.7,0.4-2.1,1.2
	C22,19.7,25.9,27.5,29.2,28.2z"/>
<path class="st0" d="M108.9,59.1c2,1.3,2.4-1,2.4-3.3c-0.7-1.6-1.6-3.8-2.6-6c-0.6-1.3-1.2-2.8-2.9-2.7c-2,0.2-2.5,2.1-2.6,3.5
	C103.1,54.8,106.1,57.2,108.9,59.1z"/>
<path class="st0" d="M72.7,124c-2.9,1.9,0.2,4.6,0.4,6.9c0.1,1,0.6,1.9,0.8,2.8c0.3,1.4,0.8,3,2.4,3c1.9,0,1.5-1.9,1.8-3.2
	c0.5-2.2-0.4-4.7,1.1-6.8C77,125.6,75.4,122.2,72.7,124z"/>
<path class="st0" d="M47,125.5c0,2.9,1.6,4.5,4.4,4.6c3.4-0.7,5.2-2.4,5-5.7c-0.2-2.7-1.4-4.9-4.6-4.6C48.4,120.1,47,122.4,47,125.5
	z"/>
<path class="st0" d="M51.3,39.4c-2.3-0.8-5-2-7.7,4c-2.4,5.4-2.2,10.2-0.3,13c0.9,1.3,2.1,2.3,3.5,2.5c3.8,0.5,8.4,0.9,11.8-8.4
	c3.3-9-2.1-7.6-3.7-9.3C53.2,40.3,52.3,39.7,51.3,39.4z M53.6,48.7c-1.5,3.9-3,3.4-4.3,3c-1.4-0.4-2.4-2.2-1.1-5.3
	c1.6-3.8,3.5-3,5-3C54.9,43.5,54.2,46.2,53.6,48.7z"/>
<path class="st0" d="M141.4,100c5-1.1,3.8-6.7,4.5-10.6c0.6-3.2,0-6.4-0.7-9.4c-1.5-6.4-5.8-8.7-12.1-7.1c-1.1,2.9,0.3,4.9,2.4,6.7
	c1.5,1.3,3.1,2.6,4.4,4c1.4,1.4,2.7,3.1,1.9,5.3c-0.5,1.5-1.8,2.1-3.4,1.9c-2.4-0.3-4.1-1.6-5-3.7c-2.2-4.9-3.7-9.9-2.7-15.4
	c-4.1-1.6-5.1,1.6-5.8,4.1c-1.9,7.1,1.3,13.2,5.1,18.7C132.5,98.1,137.2,100.9,141.4,100z"/>
<path class="st0" d="M26.7,76.6c-0.4-1.4-1.2-2.8-2.5-3.9c-0.7-0.6-1.7-0.2-1.9,0.6c-0.5,2.3-0.3,4.3,0.7,6.1l0,0
	c0.2,0.6,0.6,1.1,0.9,1.6c0.3,0.5,0.6,0.9,1,1.3c0.5,0.4,1,0.7,1.6,0.7c0.8-0.1,1-0.9,1.1-1.7C27.7,79.8,27.6,78,26.7,76.6z"/>
<path class="st0" d="M54.9,98.7c-0.1-0.6-0.2-1.3-0.3-1.9c-0.1-0.6-0.2-1.1-0.4-1.7c-0.1-0.4-0.2-0.8-0.5-1.2
	c-0.1-0.1-0.2-0.2-0.3-0.3c-0.5-0.6-1.1-1-2.1-1.3c-2.3-0.6-2.5,2.1-2.3,3.8c0.4,2.8,0.2,6.4,3.9,7c1.1,0.2,1.5-0.3,1.7-1.1
	c0-0.1,0.1-0.2,0.1-0.3c0.2-0.5,0.1-1,0.1-1.5C54.9,99.8,54.9,99.2,54.9,98.7z"/>
<path class="st0" d="M46,102.9c-0.1-1-0.4-2-0.7-2.9c-0.4-1.1-0.8-2.1-1.4-3c-0.2-0.7-0.5-1.3-0.8-1.9c-1-2.6-1.9-5.9-4.7-6.6
	c-2.5-0.6-2.7,3.3-4.6,4.6c-0.5,0.3-0.6,1-1.1,1.4c-6.9,5.2-8.9,14.7-4.7,22c0.6,1.1,1.1,2.3,2.6,2.1c1.6-0.2,1.4-1.7,1.4-2.8
	c0-1,0.2-2-0.1-3c-1.9-5.7,3.4-6.7,6.3-9.3c1.1-1,2-1,2.7-0.6c0.2,0.2,0.4,0.4,0.6,0.6c0.3,0.3,0.6,0.6,0.9,0.9
	c0.4,0.5,0.8,0.9,1.4,1.1c0.5,0.2,1.3,0.4,1.7,0C46.1,105,46.1,103.6,46,102.9z"/>
<path class="st0" d="M112.8,159.5c-0.2-0.1-0.4-0.2-0.6-0.3c-0.6-0.6-1.6-1-2.3-0.6c-0.9,0.5-1.5,1.9-1.8,2.9
	c-0.2,0.7-1,2.4-0.8,3.3c-1.8,4.1-3.3,8.6-8.5,12.4c1.1-6.4,4.1-10.6,6-15c0.1-0.3,0.1-0.5,0.3-0.8c-0.3-3.2-0.8-6.3-3.4-8.6
	c-1.4-1.2-1.4-4.6-3.8-3.7c-2.3,0.9-3.8,3.3-3.6,6.2c0.6,8.1,1.2,16.2-0.1,24.3c-0.4,2.3,0.5,4.3,3,5.2c2.7,1,5.5-0.2,6.2-2.3
	c2.1-5.9,8-9.2,10.1-15.2C114.6,164.3,115.4,161.3,112.8,159.5z"/>
<path class="st0" d="M82.9,124.5c0.2,0,0.3-0.1,0.5-0.2c2.4-1.7,1.6-4.9,0.5-6.9c-4.2-8.2-8.4-16.1-5.3-25.6c0.1-0.2,0-0.4-0.1-0.6
	c-0.1-1.3-0.8-2.6-2-2.6c-1.3,0-1.7,1.3-2,2.5c-2.2,7.3-2.7,14.4,0,21.9c1.3,3.7,4,6.6,5.6,10C80.8,124,81.6,124.8,82.9,124.5z"/>
<path class="st0" d="M102.1,42.4c3.8-2.2,3.4-6,3.1-9.5c-0.3-2.8-1.1-5.5-4.4-5.1c-2.3,1.1-3.6,1-4.6-0.9c-0.7-1.3-1-2.7-0.4-4
	c1.3-2.6,2.5-0.2,3.8,0.2c2.4,0.7,2.5-1.2,2-2.3c-0.8-2-2.1-3.8-3.4-5.5c-1.4-1.7-3.1-3.8-5.5-3.1c-2.6,0.9-2.6,3.6-2.7,6.1
	c-0.6,9,4.8,15.7,9.1,22.7C99.6,41.9,101,43.1,102.1,42.4z"/>
<path class="st0" d="M10.5,26c1.7-1,0.8-2.8,0.2-4.3c-1.1-2.5-2.3-5.1-3.6-7.5C6.5,13,5.7,11.8,4,11.8c-1-0.1-1.7,0.5-1.8,1.3
	c-0.4,4.4-0.5,8.9,2.7,12.4C6.1,26.8,8.7,27.1,10.5,26z"/>
<path class="st0" d="M29.2,28.2c0.8,0.2,1.8,0.3,2.1-0.6c1-2.7-0.9-4.9-1.9-7.2c-0.8-2-1.6-4.1-3.8-4.8c-1.2-0.1-1.7,0.4-2.1,1.2
	C22,19.7,25.9,27.5,29.2,28.2z"/>
<path class="st0" d="M12.4,17.1c0.5-1.1,2.3-2,3.4-1.5c1.3,0.6,1.3,2.6,1.2,3.9c-0.1,1.1-1.4,3.9,0.3,3.8c1.6,0,1.5-3.2,3-1.1
	c2.2,3-0.5,9-4.2,6.3C13.9,27,11.2,19.8,12.4,17.1z"/>
<path class="st0" d="M143.6,132c-0.3-4.5,2.7-27.7-4.1-26.4c-10.1,1.9,3.2,20.8-1.3,22.7c-0.6-2-1.5-3.9-2.9-4.9
	c-1.3-1-2.7-0.9-3.7,0.3c-0.2,0.1-0.4,0.2-0.6,0.3c0,0.3,0,0.7,0,1c-0.3,1.2-0.1,2.6-0.1,3.8c-0.2,3.5-0.3,7.1,0.1,10.6
	c0.2,1.6,1.2,7.8,3.4,7.6l0.1-0.1c0.7,0.6,1.6,1.1,2.5,1.4c7.5,2.2,6.1-5.5,8.5-9.8C147.1,135.6,152.1,129.8,143.6,132z"/>
<path class="st0" d="M78.1,150.2c-0.7-5.2,5.4-21.8,10.1-11.2c1.4,3.1,0.7,5.9,0.1,8.8c-0.8,4,0,6.3,0.4,10.1
	c0.4,3.5-0.1,6.4,0.4,9.8c0.4,3-0.2,12.4-4.2,6c-1.4-2.2-1.8-7.7-2.8-10.4C80.5,159,78.8,154.8,78.1,150.2z"/>
</svg>
