<?xml version="1.0" encoding="utf-8"?>
<!-- Generator: Adobe Illustrator 18.0.0, SVG Export Plug-In . SVG Version: 6.00 Build 0)  -->
<!DOCTYPE svg PUBLIC "-//W3C//DTD SVG 1.1//EN" "http://www.w3.org/Graphics/SVG/1.1/DTD/svg11.dtd">
<svg version="1.1" id="Layer_1" xmlns="http://www.w3.org/2000/svg" xmlns:xlink="http://www.w3.org/1999/xlink" x="0px" y="0px"
	 viewBox="0 0 288.5 339.5" style="enable-background:new 0 0 288.5 339.5;" xml:space="preserve">
<style type="text/css">
	.st0{fill-rule:evenodd;clip-rule:evenodd;fill:#F05A71;}
</style>
<path class="st0" d="M191.9,9.9c3.3-0.2,2.9-3.7,3.2-6.1c0.3-1.8-0.4-4-2.6-3.8c-3,0.3-2.4,3.1-2.6,5C190,7,189.5,10.1,191.9,9.9z"
	/>
<path class="st0" d="M56.5,324.9c-0.4-3.2-1-6.1-3.5-8.6c-3.6-3.7-4.9-8.4-3.6-13.2c1.1-4.1,0.3-7.3-2.2-10.4
	c-0.9-1.1-1.2-2.5-2-3.7c-1.1-1.8-0.5-3.3,1.2-3.9c2.3-0.9,1.7,1.6,2.3,2.6c0.5,0.8,0.4,1.9,0.7,2.9c0.4,1.7,1.4,3,3.3,2.9
	c1.6,0,2.4-1.3,3-2.6c2.8-5.5-1.4-11.1-5.7-11c-7.9,0-8.2,4.1-9.2,7.7c-2.5,9.7,4.2,17.7,5.5,26.8c0.4,3,2.1,5.3,0.2,8.7
	c-1.6,2.8,0.8,5.6,2.6,8c1.3,1.6,3.2,1.9,4.9,0.8C56.6,330.2,56.8,327.6,56.5,324.9z"/>
<path class="st0" d="M138.5,303.8c2.8,0,4-1.3,3.8-4.1c-0.3-2.8-1.7-5.2-4.2-6.1c-2.4-0.9-2.9,2.1-4.1,3.5c-2.4,2.5-4.4,6.9-8.6,4.9
	c-3.8-1.9-5.6-0.3-7.7,1.9c-2.4-3.1-4.8-6.2-7.3-9.3c-2.9-3.5-6.1-7-11.2-3.8c-4.8,3-6.1,9.3-3.6,14.2c2.6,5.1,7.8,7.3,12.2,10.3
	c2,1.4,3.8-0.3,5.3-1.7c1.3-1.2,1.4-3.4,3.4-3.9c0,3.2,1.3,6.4,4.4,6.9c3.9,0.6,2.5-3.6,3.5-5.6c0.2-0.4,0.3-0.7,0.5-1.1
	c0.4-1.1,0.7-2.6,2.2-2.4c2.2,0.2,1.3,2,1.3,3.3c-0.1,3.1,0,6.8,4,6.7c3.3-0.1,3.5-3.7,3.7-6.5c0.1-1.4,0-2.8-0.1-4.1
	C135.8,305.1,136.3,303.8,138.5,303.8z M106.4,306.3c-2.3-0.1-8.3-6-8.1-8.1c0.2-2,1.9-2.3,3.7-2.7c3.9,1.1,6.7,3.4,7.5,7.5
	C110,305.1,108.8,306.4,106.4,306.3z"/>
<path class="st0" d="M38.3,202.9c0.2,0.1,0.4,0.2,0.6,0.3c2,0.6,4.8,0.6,6.8,0.6c3.1,0,3.8-2.6,5.9-4.5c1.5-1.3,4-0.5,5.6-1.8
	c2.3-1.9,0-9.4-2.4-10.5c-4-1.9-4.1,3.9-3.5,6.6c-2.6,0.6-3.9,0-5,3c-1,2.5-1.7,2.5-3.6,0.7C38,193,34.7,200.9,38.3,202.9z"/>
<path class="st0" d="M38.6,194.2c0-0.1-0.1-0.1-0.1-0.2c0,0-0.1,0-0.1,0c0,0,0,0,0,0c0,0.1,0,0.1,0.1,0.2
	C38.5,194.3,38.6,194.2,38.6,194.2z"/>
<path class="st0" d="M7.4,235.9c0,0,0,0.1,0,0.1c0,0,0,0,0,0L7.4,235.9z"/>
<path class="st0" d="M56.7,316.5c0.6,3.1,2.3,6.7,6.3,5.9c3.6-0.7,3.2-4.5,3.6-7.1c-0.2-4.1-1-7.4-5.6-8.3c-1.1-0.2-2.6-0.4-2.2-2
	c0.3-1.1,1.4-1.4,2.5-0.9c2.7,1.4,5,0.3,4.8-2.3c-0.2-3.3-0.4-7.4-4.9-8.7c-3.1-0.9-4.2,1.3-5.3,3.6C52.5,303.5,55.4,310,56.7,316.5
	z"/>
<path class="st0" d="M94.1,286.3c1-2.2,0.1-4.1-1.1-6.1c-1.8-2.8-2.9-0.4-4.3,0.4c-2,1.2-3.6,0.3-4.6-1.4c-1.5-2.7,0.6-2.8,2.5-3
	c1.2-0.1,1.9-0.9,1.7-2c-0.6-4.1-3.9-5.4-7.4-5.7c-3.2-0.3-6.7,0-7.2,4.4c-0.5,5.4,9.6,16.6,15.5,16.6
	C91.4,289.7,93.1,288.5,94.1,286.3z"/>
<path class="st0" d="M72.9,249.4c1.3,0.3,2.9,1.8,3.5-0.2c0.5-1.4-0.2-3.1-1.4-4.3c-2.9-2.8-9.4-1.4-10.7,2.4
	c-2.3,6.5,7.1,18.7,14.3,18.5c3.5-0.1,6.2-1.7,5.9-5.3c-0.4-3.6-3.1-2.2-5.6-1.7c-4.7,1-6.7-2.8-8.7-5.9
	C68.5,250.3,69.4,248.7,72.9,249.4z"/>
<path class="st0" d="M86.9,254.3c0.9,0.4,1.7,0.8,2.6-0.3c3.1-3.7,3.8-11.2,0.7-14.8c-1.8-2.1-3-3.9-3.3-6.6c-0.2-2-1.8-4.5-4-2.4
	c-2.6,2.5-5.7,5.1-5.9,8.4C76.9,241.9,84.3,253.1,86.9,254.3z"/>
<path class="st0" d="M47.5,253.4c3.7,3.3,3.1-0.1,3.4-1.2c-0.2-5.2-1.4-9.4-4.4-12.8c-1.9-2.2-4.1-2.3-4.6,1c-1,7.5-5.9,14.9-1,22.7
	c1,1.6,1,4,3.7,4.1c1.9,0.1,3-1.2,3.3-2.8c0.5-2.7-1.5-3-3.6-3.6c-3.3-1-2.3-3.6-1.4-5.9C43.8,252.5,45.5,251.6,47.5,253.4z"/>
<path class="st0" d="M78.4,214c1.4,2.1,2.1,5.6,5,5.2c2.8-0.4,1.6-4,2.3-6.1c0.2-0.6,0.1-1.3,0.5-1.7c4.1-4.7,0.8-8.5-1.7-12.2
	c-0.9-1.3-1.9-3.6-4.2-2.3c-2.3,1.3-0.8,3.1-0.1,4.6c1,1.9,2.8,3.5,1.8,6.5c-1.8-1.1-2.5-4.5-5.3-2.9c-2.9,1.7-0.3,3.8,0.1,5.7
	C77,212,77.7,213.1,78.4,214z"/>
<path class="st0" d="M203.4,54c3.2,1.2,4.8-1.7,6.1-3.7c2.4-3.7,3.3-8.1,3.9-12.4c0.3-2.1-0.2-5.2-2.6-5.4c-3.2-0.3-2.4,2.9-2.7,4.9
	c-0.2,1.5,1.1,4.6-1.6,3.9c-6.6-1.7-5.2,3-6.1,5.9C200.4,50.1,200.5,52.9,203.4,54z"/>
<path class="st0" d="M64.9,198.5c-1.5-0.1-3.1,0.5-4.5,1.2c-2.6,1.3-7.1,1.7-6.8,5.8c0.3,4.8,4.9,3.7,8.2,4.7c1-0.1,2.4-0.5,3.7-0.5
	c4.1-0.1,5-4.1,4.8-8.1C70.1,197.2,67,198.6,64.9,198.5z"/>
<path class="st0" d="M7.4,235.9c0,0,0,0.1,0,0.1C7.4,236,7.4,236,7.4,235.9C7.4,236,7.4,236,7.4,235.9z"/>
<path class="st0" d="M166.3,16c-0.1,3,0.8,5.4,3.9,6.7c3,1.2,4.6-0.3,6.8-2.2c3.5-3.2,3.2-6.4,1.8-10.2c-0.5-1.3-0.8-2.8-2.4-3
	c-1.8-0.2-2.4,1.1-2.6,2.6c-0.2,2.1-1.3,2.9-3.3,2.2C166.1,10.4,166.6,13.6,166.3,16z"/>
<path class="st0" d="M39.7,233.9c0.4-3.7,0.9-7.5,1.2-10.2c-0.1-5.2,0.5-9.5-3.3-12.6c-1.3-1.1-2.5-3.4-4.4-2.5
	c-2.1,1-0.8,3.3-0.1,4.8c2.9,5.9,4.2,11.9,1.8,18.3c-0.3,0.7-0.1,1.6,0.2,2.3c0.4,1.3,0.9,2.9,2.7,2.6
	C39.1,236.4,39.6,235.2,39.7,233.9z"/>
<path class="st0" d="M36.2,321.7c1.2,0.7,2.4,0.2,3.3-0.7c2.5-2.6,0.7-5.2-0.3-7.7c-0.5-1.2-1.9-2.6,0.4-3.3c3.2-1,2.1-2.8,1.1-4.6
	c-0.9-1.8-2.2-3.7-4.4-3.7c-2.1,0-2.6,2.2-3.1,3.9c-0.7,2.3-1.7,4.5-1.4,6.6c0.1,0.9,0,1.5,0.1,2.1
	C32.5,317.2,33.3,320.1,36.2,321.7z"/>
<path class="st0" d="M101.3,285c0.7,1.3,2.9,0.1,3.7-0.7c3.1-3.4,3.3-7.4,2-11.6c-0.3-0.9-1-1.7-1.6-2.5c0-0.8-0.1-1.5-0.1-2.3
	c0.3-3.7-1.5-6.9-3.2-10.1c-1.1-2-2.5-4.3-4.9-3.7c-2.9,0.7-1.5,3.6-1.6,5.7c0,0.4,0.1,0.8,0.1,1.2c-2.3-0.3-3-5.6-5.9-2.5
	c-2.2,2.3-0.6,5.8,0.9,8.3c1.4,2.2,1.5,6.6,6.3,4.9c0.3,0.3,0.6,0.7,0.9,1C94.9,277.8,99.3,281.2,101.3,285z"/>
<path class="st0" d="M197.2,26.5c6.6-0.1,4.7-4.1,5.9-6.5c1.1-2.2,1.3-5.3-2.2-6.2c-3.3-0.9-3.6,2-4.6,3.7c-0.9,1.4-2.3,2.7-4.6,2.3
	c-2.8-0.4-1.5-2.4-1.8-3.7c-0.5-2,0.9-4.4-2.7-6.5c-3.7,3.6-1.6,7.1-1.1,10.6C187,25.5,191,26.6,197.2,26.5z"/>
<path class="st0" d="M31.2,217.1c-2.4-0.3-3.4,1.7-3.9,3.7c-0.6,2.7-1.1,5.4-1.5,7.6c0.6,2.5-0.8,5.1,1.8,6.4c0.5,0.2,2-0.6,2.4-1.4
	c2-3.6,3.8-7.4,4.5-11.5C34.9,219.6,33.7,217.5,31.2,217.1z"/>
<path class="st0" d="M35,280.8c-1.1-0.4-2.1,0.2-2.5,1.2c-1.7,4.8-3.4,9.6-4.9,14.5c-0.4,1.1,0,2.4,1.3,2.9c0.4,0.2,1.4-0.1,1.6-0.4
	c2.2-4.8,6.4-8.7,6.5-14.4C37.1,283,36.8,281.4,35,280.8z"/>
<path class="st0" d="M42.8,339.4c2-0.1,4.2,0.4,4-2.8c-0.1-3.6-4.9-10.1-7.4-9.8c-3.3,0.4-2.3,3.1-2.4,4.4
	C37,335.9,37.1,339.8,42.8,339.4z"/>
<path class="st0" d="M143.7,305.2c-2.7-0.6-3.5,2.2-4.5,4c-1.4,2.6-2.8,5.4-0.5,8.2c1,1.3,2.6,2.7,4,1.6c2.4-1.9,3.4-4.7,3.3-9.3
	C145.9,308.9,146.7,305.9,143.7,305.2z"/>
<path class="st0" d="M59.7,263.1c2.6,0.2,4.4-1.7,3.9-4.2c-0.7-3.4-2.4-6.4-6.5-7c-3.1,0.3-3.3,2.4-3.1,4.7
	C54.3,260.2,55.9,262.8,59.7,263.1z"/>
<path class="st0" d="M25.4,217.9c-0.1-2.3-1.1-4-3.2-5.3c-3.3-2.1-4.2,1.9-6.5,2.2c2.6,0.9,1.5,3.8,3.1,5.3c1.3,1.2,2,3.1,4.3,2.2
	C25.1,221.5,25.4,219.8,25.4,217.9z"/>
<path class="st0" d="M27.3,205.5c0.5-3.1,1.3-6-2.1-6.5c-3.4-0.4-3.5,3-3.7,5.1c-0.3,3,0.9,7,4,7C29.1,211.1,26.6,207,27.3,205.5z"
	/>
<path class="st0" d="M31.3,238.1c-2,0-3.9,1.5-3.7,3.9c0.3,3,2.2,5.3,5.2,5.6c3,0.4,1.6-2.4,2.1-3.8
	C34.6,241.3,35.1,238.1,31.3,238.1z"/>
<path class="st0" d="M14.5,260.4C14.5,260.4,14.5,260.3,14.5,260.4C14.5,260.3,14.5,260.3,14.5,260.4L14.5,260.4z"/>
<path class="st0" d="M18.5,258.3c0.6-2.7,0.5-5.5-1.3-7.9c-0.7-1-1.6-1.9-3-1.4c-1.3,0.4-1.8,1.7-1.5,2.9c0.5,2.9,1.2,5.7,1.9,8.5
	C16.7,261.2,18,260.3,18.5,258.3z"/>
<path class="st0" d="M14.6,260.4C14.5,260.4,14.5,260.3,14.6,260.4C14.5,260.3,14.5,260.4,14.6,260.4
	C14.5,260.4,14.5,260.4,14.6,260.4z"/>
<path class="st0" d="M22.5,254.4c2,0.7,2.1-1.8,2.3-3.5c-0.9-2.8-0.6-6.6-4.2-7.8c-2-0.7-2.6,1.7-2.2,3.2
	C19,249.4,19.1,253.2,22.5,254.4z"/>
<path class="st0" d="M58.1,275.7c3,0.6,4.4-1,4.2-4c0,0,0,0,0,0c0,0,0.2,0.2,0.2,0.2c0,0,0.1-0.1,0.1-0.1c1.9,0.4,4,2.3,5.7-0.1
	c1.4-2,1.2-4.1-0.2-6.1c-0.9-1.3-2.4-1.7-3.8-1.1c-2.9,1.3-1.7,4-1.8,6.2c0,0.3,0,0.6,0,0.9c0,0-0.1,0.1-0.1,0.1c0,0,0,0,0,0
	c0,0,0,0-0.1,0c0,0,0,0,0,0c-1.1-2.1-2.7-3.7-5.4-3.3c-1.3,0.2-2,1.4-2.1,2.5C54.6,273.3,55.6,275.2,58.1,275.7z"/>
<path class="st0" d="M43.4,177.7c-1.8-0.3-2.1,1.5-1.7,2.9c0.8,2.8,0.9,6.2,4.2,7.1c1.9,0.5,2-1.9,2.1-3.6
	C47.2,181.6,47.1,178.2,43.4,177.7z"/>
<path class="st0" d="M5.5,172.7c-1.7-1.3-3.4-1.5-5.2,0c-0.6,3.2-0.6,7.7,2.9,7.8c3.9,0.1,2.2-4.5,2.4-7.2
	C5.5,173.1,5.5,172.9,5.5,172.7z"/>
<path class="st0" d="M203.6,36c2.3-0.2,2.1-2.9,2.4-4.8c-0.2-1.7-0.2-4.4-2.2-4.2c-2.3,0.2-2.1,3-2.2,4.9
	C201.5,33.5,201.2,36.2,203.6,36z"/>
<path class="st0" d="M11.4,191.2c0.5-1.1-0.7-2.7-1.8-2.3c-3,1.1-4.9,3.8-6.2,6.5c-0.5,1.1,1,1.9,2.6,2
	C8.7,196.3,10.2,193.8,11.4,191.2z"/>
<path class="st0" d="M60.2,243.9c4.7-1.5,3.6-6.4,3.6-10.3c0-0.2-0.1-0.4-0.1-0.6c0-1.1-0.3-2.5,1.2-3c1.2-0.5,2.3,0,3.3,0.9
	c1.7,1.7,3.6,3.7,6.2,1.7c3.5-2.7,4.6-6.7,3.1-10.6c-1.6-4.4-3.6-9.1-9.9-8.8c-0.4,0-0.9,0.1-1.3,0.1c-5.1-2.3-4.8,1.9-5.2,4.5
	c-0.8,4.7-2.6,4.8-5.6,1.6c-0.8-0.9-1.5-1.8-2.3-2.7c-3.7-4-5.1-3.4-7.8,1.3c-4.4,8-0.3,14,4.1,20C51.9,241.3,55.2,245.5,60.2,243.9
	z M48.8,225.2c-1.7-2.9,1.8-3.7,3.1-2.9c3.4,2.2,6.3,5.2,7.4,8.3c-0.2,3.3-0.9,5.4-3.6,5.8c-2.4,0.3-3.4-1.5-4.2-3.4
	C50.3,230.4,50.2,227.7,48.8,225.2z"/>
<path class="st0" d="M15.3,216.4c-1-1.5-1.4-2.5,0.1-3.5c2.4-1.5,5.9-2.3,7.9,0c2.2,2.4,3.4,6.2,0.9,8.9c-1.7,1.8-4.4,1.6-6-0.1
	C16.9,220.2,16.4,218,15.3,216.4z"/>
<path class="st0" d="M133.8,334.7c2.7-0.1,6.7-0.6,6.7-5.2c2.4,0.3,2.1,3.3,4.2,2.6c1.1-0.4,1.7-1.6,1.8-2.9
	c0.2-2.5-6.8-10.7-9.2-10.7c-1.6,0-1.6,1.5-2,2.5c-1.5,3.3,0,6.5,0,9.8c-2.8-0.1-3.5-4.1-7.2-2.9C129.3,331.1,130,334.9,133.8,334.7
	z"/>
<path class="st0" d="M50.3,311.1c-2,0.1-4.2-0.4-4,2.8c0.1,3.6,4.9,10.1,7.4,9.8c3.3-0.4,2.3-3.1,2.4-4.4
	C56.1,314.6,56.1,310.7,50.3,311.1z"/>
<path class="st0" d="M125.9,313.9c-2.3,0.2-2.6,3.1-2.9,5.5c0.2,1.6,0.1,4.1,2.9,3.9c2.7-0.2,2.6-2.7,2.7-4.5
	C128.8,316.7,128.8,313.7,125.9,313.9z"/>
<path class="st0" d="M24,230c-0.5-1.7-1.2-4.7-2.5-4.2c-3.2,1.3-5.2-2.1-7.5-1.3c-3.2,1.1-2.8,4.2-3.2,6.8l0,0
	c-0.1,0.8-0.7,1.5-1.1,2.2c-0.2,0.3-0.3,0.6-0.4,0.9c0,0.1-0.1,0.3-0.1,0.4c0,0.4,0.2,0.6,0.4,0.8c0.2,0.3,0.4,0.7,0.5,1
	c0.1,0.2,0.2,0.4,0.2,0.6c0.1,0.2,0.1,0.5,0.3,0.7c0,0,0.1,0,0.1,0.1c0.4,1.8,1.3,3.4,3.3,3.4c3.4,0,1.4-3,2.1-4.5
	c0.6-1.4,0.9-2.8,1.5-4.4c1.5,1.3,2.3,3.5,4.5,2.1C23.7,233.5,24.6,232,24,230z"/>
<path class="st0" d="M20.3,185c-1.2-2.2-3.9-3.9-3.8-6.6c0.1-5.6-3.2-6-7.5-5.4c-2.8,2.5-0.7,4.4,0.6,6.6c2.4,4,5.9,7.9,3.7,12.9
	c-1.1,2.5-0.9,4.7-0.3,6.9c0,0,0,0.1,0,0.1c0,0.2,0,0.5,0.1,0.7c0.1,0.2,0.4,0.2,0.5,0.2c0.4,0.1,1.2,0.5,1.5-0.1l0,0
	C19.2,196.5,22.2,188.5,20.3,185z"/>
<path class="st0" d="M15.4,214.9c1.2-2.7,0.7-5.2,0-7.7c0-0.1,0-0.3,0-0.4c0-1-0.3-1.9-0.6-2.8c-0.1-0.4-0.2-0.8-0.4-1.1
	c-0.3-0.4-0.5-0.8-1-1c-0.5-0.2-1-0.2-1.5,0c-0.3,0.2-1,0.7-1.2,1l0,0c-1.7,1.6-2,3.9-0.9,6.7C12,211.2,10,216.8,15.4,214.9
	c0.1,0,0.1,0,0.2,0c0,0,0,0-0.1,0C15.5,214.9,15.4,214.9,15.4,214.9z"/>
<path class="st0" d="M40.9,184.6c-0.5-1.4-1.6-3-3.6-2.3c-1.6,0.6-1.6,2.2-1.4,3.5c0.1,0.9,0.3,1.9,0.5,2.8l0,0
	c0.1,0.3,0.1,0.7,0.1,1c0.1,0.4,0.2,0.8,0.2,1.2c0.1,0.6,0.3,1.1,0.4,1.7c0.1,0.4,0.1,0.8,0.3,1.2c0.3,0.6,1,0.8,1.6,0.8
	c1.1,0,1.8-0.6,2.5-1.4c0.5-0.6,0.7-1.6,0.6-2.5C42.5,188.8,41.5,186.7,40.9,184.6z"/>
<path class="st0" d="M117.8,322c2.6,0.2,4.5,2.8,5,5.5c1.2,6.7-4.8,5.7-7.2,1.5C114,326.2,113.7,321.7,117.8,322z"/>
<path class="st0" d="M166.3,16c-0.1,3,0.8,5.4,3.9,6.7c3,1.2,4.6-0.3,6.8-2.2c3.5-3.2,3.2-6.4,1.8-10.2c-0.5-1.3-0.8-2.8-2.4-3
	c-1.8-0.2-2.4,1.1-2.6,2.6c-0.2,2.1-1.3,2.9-3.3,2.2C166.1,10.4,166.6,13.6,166.3,16z"/>
<path class="st0" d="M167.7,33.4c0.6-1.5,1.1-2.6,3-2.3c3.4,0.5,2.3,4.4,2.3,6.6c0,2.7-0.8,7,1.9,8.5c4.7,2.7,3-6.6,3.9-9.4
	c1.1-3.6,3.9-7.3,5.5-2.2c0.7,2.2-1.6,12.1,3.4,6.5c2-2.2,0.9-10.1,5.4-10c0.5,0,1.1,0,1.6,0.1c0.2,5,1.8,24.2-7.7,20.5
	c-1.6-0.6-2.7-3.9-4.8-2.7c-2.1,1.1-0.5,6-3.6,7.9c-3.5,2.1-5.6,0.6-7.3-2.4C168,49.2,165.3,39.3,167.7,33.4z"/>
<path class="st0" d="M110.9,278.4c0.4-2.9,0.5-6.5,1.6-9.2c1.4-3.5,4.6-3.6,6.1,0.1c0.8,2.1,0.8,4.6,1.6,6.7
	c1.3,3.6,2.7,0.6,3.6-1.4c0.9-1.9,2.6-5.7,5.4-4.7c3.1,1.1,3.6,9.5,3.8,12.2c0.4,5.1,0.8,12.3-6.2,11.8c-0.9-3.3-1.3-6.5-1.4-10
	c-0.1-1.4,0.7-4.8-1.4-3.8c-2.4,1.2-1.9,9-6.2,6.2c-1.7-1.1-1.5-6.4-3.7-5.9c-2.1,0.5-2.3,4.8-3.2,6.3
	C109.6,284.7,110.6,280.8,110.9,278.4z"/>
<path class="st0" d="M213.9,19.2c2.8,0.5,2.2-2.5,2.4-4.3c0.1-0.9,0.2-1.9,0.3-3.8c1.8,2.3,2.5,3.7,2.4,5.3
	c-0.1,3.1,0.1,6.8,3.8,7.1c4.2,0.3,3.3-4.1,4.1-6.7c1.3-4.1,1.2-8.2-4-9.5c-7.1-1.7-12.4,0.9-13.4,6
	C208.6,16.9,211.4,18.7,213.9,19.2z"/>
<path class="st0" d="M258.9,22.2c-1.5-0.1-1.6,2.4-1.6,3.7c-0.2,4.4,2,6.6,5.8,6.1c3.7-0.5,5.6-3.8,7.2-6.7c1.5-2.8-0.1-5.8-1.3-8.4
	c-0.5-1.2-2.3-1.7-2.9-0.3C264.9,19.9,263.4,22.4,258.9,22.2z"/>
<path class="st0" d="M284,24.1c-0.6,1.3-1.4,2.6-3.2,2.2c-2-0.4-1.1-2.2-1.3-3.5c-0.4-1.6,0.6-3.6-1.8-5.4c-1.9,3.2-1.3,6.2-1,9.4
	c0.4,4.9,3.1,5.7,7.3,5.4c4.6-0.3,4-3.7,4.3-6.5c0.2-1.7,0.7-4.2-1.1-4.9C284.6,19.9,284.7,22.6,284,24.1z"/>
<path class="st0" d="M238.5,31.4c-3,0.4-3.6,3.3-3.1,7c0.4,1.2-1,4.9,2.6,4.8c4.2-0.2,3.2-4.3,3.5-7C241.6,34,241.4,31,238.5,31.4z"
	/>
<path class="st0" d="M228.8,26.3c-2.3,0-2.1,2-2.2,3.5c-0.2,3.7,0.8,6.9,5.4,10.6c-0.2-4.6-0.2-7.7-0.5-10.7
	C231.3,28.1,230.8,26.3,228.8,26.3z"/>
<path class="st0" d="M260.9,7.2c-1.6-4.3-5.7-4.9-7.8-0.8c-1.6,3-2.4,7.7-2.4,11.2c0,1.8,0.5,3.9,2.5,4c2.8,0,2.6-4.1,4.1-5.7
	c1.2-1.3,3.1-2.4,3.9-4.2C262,10.2,261.5,8.8,260.9,7.2z"/>
<path class="st0" d="M224.7,39c-0.4-1.6-0.6-3.3-1-4.9c-0.2-0.7-0.5-1.3-0.8-1.9c-0.2-0.5-0.4-1-0.7-1.5c-0.3-0.4-0.6-0.9-1-1.2
	c0,0-0.1,0-0.1-0.1c-0.3-0.2-0.6-0.3-0.9-0.3c0,0-0.1,0-0.1,0v0c-0.3,0-0.6,0-0.9,0.1c-2.3,0.5-1.9,3.2-2,5.9
	c0.4,3.3,1.3,7.1,4.7,9.8c0.6,0.5,1.7,0.7,2.1,0.2c0.3-0.2,0.5-0.6,0.6-1C225.3,42.6,225.1,40.7,224.7,39z"/>
<path class="st0" d="M213.9,19.2c2.8,0.5,2.2-2.5,2.4-4.4c0.1-0.9,0.2-1.9,0.3-3.8c1.8,2.3,2.5,3.7,2.4,5.3
	c-0.1,3.1,0.1,6.8,3.8,7.1c4.2,0.3,3.3-4.1,4.1-6.7c1.3-4.1,1.2-8.2-4-9.5c-7.1-1.7-12.4,0.9-13.4,6
	C208.6,16.9,211.4,18.7,213.9,19.2z"/>
</svg>
