<?xml version="1.0" encoding="utf-8"?>
<!-- Generator: Adobe Illustrator 18.0.0, SVG Export Plug-In . SVG Version: 6.00 Build 0)  -->
<!DOCTYPE svg PUBLIC "-//W3C//DTD SVG 1.1//EN" "http://www.w3.org/Graphics/SVG/1.1/DTD/svg11.dtd">
<svg version="1.1" id="Layer_2" xmlns="http://www.w3.org/2000/svg" xmlns:xlink="http://www.w3.org/1999/xlink" x="0px" y="0px"
	 viewBox="0 0 547.5 351.1" style="enable-background:new 0 0 547.5 351.1;" xml:space="preserve">
<style type="text/css">
	.st0{fill-rule:evenodd;clip-rule:evenodd;fill:#F05A71;}
</style>
<path class="st0" d="M191.9,21.5c3.3-0.2,2.9-3.7,3.2-6.1c0.3-1.8-0.4-4-2.6-3.8c-3,0.3-2.4,3.1-2.6,5
	C190,18.6,189.5,21.7,191.9,21.5z"/>
<path class="st0" d="M69.3,6.8c-0.2-0.3,0.3-2.1,0.5-2.7C70.3,2.8,71,2,72.1,1.2C74-0.1,76,0,78.1,0c1.6,0,3.3,0.1,4.8,0.6
	c1.8,0.7,3.7,2,4.5,4C88.1,6,88.8,7.5,89.3,9c0.2,0.8,0.6,2.3,0.4,3.2c-0.2,1-1.1,1.3-1.9,1.6c-2.2,1-4.6,1.5-6.8,2.1
	c-1.8,0.5-4.3,1.2-6,0.2c-1-0.6-2.6-2-3-3.1c-0.3-0.7-0.5-1.1-0.9-1.7c-0.7-1-0.7-1.5-0.7-2.8"/>
<path class="st0" d="M141.5,14.4c0.8-1.4,3.4-1.3,4.7-1.8c2.1-0.9,3.5-2.2,5-4.1c1.3-1.7,1.7-2.9,4-3c2.2,0,4,1.5,3.9,3.9
	c-0.2,4.1-5.7,6.8-8.8,7.7C148.5,17.7,139.2,18.8,141.5,14.4z"/>
<path class="st0" d="M168.3,8.9c3.8,2.5-2.8,10.3-5.8,8.6C159.6,15.8,164.4,6.3,168.3,8.9z"/>
<path class="st0" d="M187.6,162.1c-2.6,0.5-2.4,3.3-2.5,5.5c-0.2,4.2,0.1,8.2-1.2,12.5c-2.1,7.1-2.2,14.8,6,19.5
	c0.5,0.3,0.9,0.8,1.3,1.2c1.4,1.7,3.4,3.7,1,5.5c-2.3,1.7-5.8,0.1-6.1-1.9c-0.8-6.5-7.3-9.8-8.5-15.9c-0.6-2.9-2.6-6.3-6.2-4.6
	c-3.4,1.6-2.6,5.6-0.6,7.8c4.1,4.6,5.7,10.4,9,15.3c2.2,3.3,4.7,5.8,8.3,7.5c7.1,3.4,9.9,1.9,9.3-6.1c-0.5-6.5-1.8-12.9-2.8-19.3
	c2.6,1,6,3.1,6.4-1.8c0.3-4.2,0.2-8.6-1.4-12.7c-1.5-3.6-2.6-1.6-3.8,0.2c-3.1-2-3.1-5.8-4.9-8.5C190,164.8,190.3,161.6,187.6,162.1
	z"/>
<path class="st0" d="M56.5,336.5c-0.4-3.2-1-6.1-3.5-8.6c-3.6-3.7-4.9-8.4-3.6-13.2c1.1-4.1,0.3-7.3-2.2-10.4
	c-0.9-1.1-1.2-2.5-2-3.7c-1.1-1.8-0.5-3.3,1.2-3.9c2.3-0.9,1.7,1.6,2.3,2.6c0.5,0.8,0.4,1.9,0.7,2.9c0.4,1.7,1.4,3,3.3,2.9
	c1.6,0,2.4-1.3,3-2.6c2.8-5.5-1.4-11.1-5.7-11c-7.9,0-8.2,4.1-9.2,7.7c-2.5,9.7,4.2,17.7,5.5,26.8c0.4,3,2.1,5.3,0.2,8.7
	c-1.6,2.8,0.8,5.6,2.6,8c1.3,1.6,3.2,1.9,4.9,0.8C56.6,341.8,56.8,339.2,56.5,336.5z"/>
<path class="st0" d="M135.8,68.9C135.8,68.9,135.8,68.9,135.8,68.9C135.8,68.9,135.8,68.9,135.8,68.9
	C135.8,68.9,135.8,68.9,135.8,68.9c0,0,0.1-0.1,0.1-0.1c0,0,0,0,0,0C135.9,68.7,135.8,68.8,135.8,68.9
	C135.8,68.8,135.8,68.8,135.8,68.9L135.8,68.9z"/>
<path class="st0" d="M116,245c2.2,1.9,3.1-2.6,5.6-2.9c5.5-0.7,6.5-6.1,7.8-9.7c1-2.8-3.8-5-6.3-7.3c-4.1-3.8-6.1,0.6-8.5,2.1
	c-2.5,1.5,0.8,2.7,1.2,4.1c0.2,0.6,0.4,1.1,0.6,1.7c-0.9,2.8-2.8,3.8-5.5,2.5c-2.4-1.2-4.1-3.3-5.2-5.7c-0.8-1.8-1.1-3.8,2.1-3.2
	c1.8,0.3,3-0.3,2.8-2c-0.2-2.3-0.3-4.9-2.3-6.5c-1.5-1.2-2.7,0.1-4.2,1c-5.1,3.1-7.5,6.3-2.1,11.3c0.9,0.8,1.1,2.5,1.5,3.8
	C105.5,240.3,111.9,241.4,116,245z"/>
<path class="st0" d="M96,85.6c-1.7,4.4-2.4,9-4.8,13.3c-1.4,2.5-1.1,6.2,1.4,8.3c3.9,3.4,4.3,7.2,3.4,11.8c-0.6,2.8-1.1,7,2.5,7.4
	c3,0.3,3.4-3.8,3.9-6.5c0.2-1.1,0.2-2.4,0-3.5c-0.6-4.4-0.1-8.8,1.3-12.9c1.6-4.6,1.1-8.9-0.6-13.3c2.2-0.9,2.8,1,3.8,2.1
	c1.3,1.4,2.5,1.9,4.1,0.4c2.4-2.2,4.5-13,3-15.9c-0.7-1.4-1.7-2.1-3.3-2c-1,0.1-1.7,1-1.4,1.6c2.6,5.2-1.6,6.3-4.9,8
	C100.2,79.5,98.2,79.7,96,85.6z"/>
<path class="st0" d="M186.6,275.4c-0.1-7.3-2.7-15-6.1-18.2c-2-2-4.5-2.4-6.6-0.9c-2.5,1.7-0.2,3.3,0.7,5c1.3,2.6,3.7,4.1,5.7,6.1
	c1.5,1.6,3.5,3.7,1.1,5.5c-2.3,1.8-5.7,0.2-6.1-1.8c-1-4.7-5.3-7.9-5.5-12.8c-0.1-1.9,0.2-4.6-2.6-4.5c-2.1,0.1-2.8,2.5-3.1,4.6
	c-1.1,7.6,5.2,18.7,12.9,22.6C184.2,284.8,186.7,283.3,186.6,275.4z"/>
<path class="st0" d="M74.3,86.5c1.3-7.2,0.6-15.2-1.5-19.1c-1.3-2.3-3.2-3.2-5.2-2.3c-2.4,1.1-0.8,3.2-0.4,5
	c0.6,2.8,2.3,4.8,3.5,7.2c0.9,1.9,2.2,4.3-0.1,5.6c-2.2,1.3-4.7-1-4.6-3c0.1-4.8-2.8-8.8-2.1-13.6c0.3-1.9,1-4.5-1.3-4.9
	c-1.8-0.3-2.7,1.9-3.4,3.9c-2.4,7.2,0.7,19.4,6.2,24.8C70.6,95.1,72.9,94.2,74.3,86.5z"/>
<path class="st0" d="M138.5,315.4c2.8,0,4-1.3,3.8-4.1c-0.3-2.8-1.7-5.2-4.2-6.1c-2.4-0.9-2.9,2.1-4.1,3.5c-2.4,2.5-4.4,6.9-8.6,4.9
	c-3.8-1.9-5.6-0.3-7.7,1.9c-2.4-3.1-4.8-6.2-7.3-9.3c-2.9-3.5-6.1-7-11.2-3.8c-4.8,3-6.1,9.3-3.6,14.2c2.6,5.1,7.8,7.3,12.2,10.3
	c2,1.4,3.8-0.3,5.3-1.7c1.3-1.2,1.4-3.4,3.4-3.9c0,3.2,1.3,6.4,4.4,6.9c3.9,0.6,2.5-3.6,3.5-5.6c0.2-0.4,0.3-0.7,0.5-1.1
	c0.4-1.1,0.7-2.6,2.2-2.4c2.2,0.2,1.3,2,1.3,3.3c-0.1,3.1,0,6.8,4,6.7c3.3-0.1,3.5-3.7,3.7-6.5c0.1-1.4,0-2.8-0.1-4.1
	C135.8,316.6,136.3,315.4,138.5,315.4z M106.4,317.9c-2.3-0.1-8.3-6-8.1-8.1c0.2-2,1.9-2.3,3.7-2.7c3.9,1.1,6.7,3.4,7.5,7.5
	C110,316.7,108.8,318,106.4,317.9z"/>
<path class="st0" d="M38.3,214.5c0.2,0.1,0.4,0.2,0.6,0.3c2,0.6,4.8,0.6,6.8,0.6c3.1,0,3.8-2.6,5.9-4.5c1.5-1.3,4-0.5,5.6-1.8
	c2.3-1.9,0-9.4-2.4-10.5c-4-1.9-4.1,3.9-3.5,6.6c-2.6,0.6-3.9,0-5,3c-1,2.5-1.7,2.5-3.6,0.7C38,204.6,34.7,212.5,38.3,214.5z"/>
<path class="st0" d="M38.6,205.8c0-0.1-0.1-0.1-0.1-0.2c0,0-0.1,0-0.1,0c0,0,0,0,0,0c0,0.1,0,0.1,0.1,0.2
	C38.5,205.9,38.6,205.8,38.6,205.8z"/>
<path class="st0" d="M7.4,247.5c0,0,0,0.1,0,0.1c0,0,0,0,0,0L7.4,247.5z"/>
<path class="st0" d="M126.7,131.8c-0.8-1.2-1.5-2.3-3.2-2.3c-1.8,0-2.6,1.5-2.9,2.6c-1.4,4.9-1.4,9.7,1.4,14.2
	c0.6,1,1.4,1.9,2.9,1.8c8.5-0.2,15.9-12.2,12-19.6c-1.1-2-2.7-4.1-5.1-3.5c-2.6,0.7-3.2,3.2-2.3,5.8c0.5,1.3,0.7,2.7-0.2,4.2
	C127.3,134.6,127.5,132.9,126.7,131.8z"/>
<path class="st0" d="M78.2,41.4c-1,0-2.1-1.1-2.9-1.9c-0.9-0.9-1.5-2-3-1.2c-1,0.6-1.3,1.7-1,2.6c1.5,6.1,2.9,12.3,4.9,18.2
	c1,2.9,4.2,5,7,4.7c3-0.4,2.3-4,2.7-6.4c0.3-2.1,0.9-4.2,1.3-6.3c0-0.4,0-0.8-0.1-1.2C86.4,42.8,85.2,41.7,78.2,41.4z"/>
<path class="st0" d="M32.3,50.2c-0.7,2.4-0.9,5-0.9,7.6c0,2.4,1.3,3.7,4,2.9c3.9-1.1,7.7-2.4,9.6-6.5c3.3-7.4,0.9-15,0.6-22.5
	c0-1.2-0.8-2.6-2.1-2.4c-1.2,0.2-1.4,1.7-1.8,2.8c-1.7,4.7,0.3,8.7,2.9,14C36.7,42.1,34.3,43.1,32.3,50.2z"/>
<path class="st0" d="M102.7,127c-2.2,4.3,1.4,14.1,5.7,16.8c1.7,1.1,3.3,2.2,4.9,3.4c1.4,1.1,2.2,4,4.7,1.5c1.9-1.9,1.6-4.4-0.3-5.8
	c-3.2-2.2-2.7-4.8-2.3-7.8c0.3-2.3,0.3-4.8-0.1-7.1c-0.5-2.9-1.3-6.8-4.8-6.5c-2.9,0.3-0.4,4.1-1.6,6.5
	C106.7,127.1,105.3,121.9,102.7,127z"/>
<path class="st0" d="M67.8,100.9c-2.5,4.3-1.1,15.2,1.9,18.9c1.2,1.4,2.4,2.9,3.5,4.4c1,1.4,1.2,4.6,3.6,2.4
	c1.9-1.7,2.1-4.5,0.7-6.2c-2.3-2.8-1.5-5.5-0.7-8.7c0.6-2.4,1-5,1.1-7.6c0.1-3.2,0-7.4-2.9-7.7c-2.5-0.2-1,4.3-2.4,6.6
	C71,101.7,70.7,95.9,67.8,100.9z"/>
<path class="st0" d="M118.4,84.4c-0.7-0.5-1.9,1.2-2.3,2.4c-1.6,5.6-2,11.2,1,16.6c1.7,3.1,3.9,3.2,6.2,0.7c5.5-6,9.5-17.6,3.6-24
	C123.6,80.8,124.7,89.1,118.4,84.4z"/>
<path class="st0" d="M56.7,328.1c0.6,3.1,2.3,6.7,6.3,5.9c3.6-0.7,3.2-4.5,3.6-7.1c-0.2-4.1-1-7.4-5.6-8.3c-1.1-0.2-2.6-0.4-2.2-2
	c0.3-1.1,1.4-1.4,2.5-0.9c2.7,1.4,5,0.3,4.8-2.3c-0.2-3.3-0.4-7.4-4.9-8.7c-3.1-0.9-4.2,1.3-5.3,3.6
	C52.5,315.1,55.4,321.6,56.7,328.1z"/>
<path class="st0" d="M94.1,297.9c1-2.2,0.1-4.1-1.1-6.1c-1.8-2.8-2.9-0.4-4.3,0.4c-2,1.2-3.6,0.3-4.6-1.4c-1.5-2.7,0.6-2.8,2.5-3
	c1.2-0.1,1.9-0.9,1.7-2c-0.6-4.1-3.9-5.4-7.4-5.7c-3.2-0.3-6.7,0-7.2,4.4c-0.5,5.4,9.6,16.6,15.5,16.6
	C91.4,301.3,93.1,300.1,94.1,297.9z"/>
<path class="st0" d="M112.2,42.4c3.8-2.2,3.4-6,3.1-9.5c-0.3-2.8-1.1-5.5-4.4-5.1c-2.3,1.1-3.6,1-4.6-0.9c-0.7-1.3-1-2.7-0.4-4
	c1.3-2.6,2.5-0.2,3.8,0.2c2.4,0.7,2.5-1.2,2-2.3c-0.8-2-2.1-3.9-3.4-5.5c-1.4-1.7-3.1-3.8-5.5-3.1c-2.6,0.9-2.6,3.6-2.7,6.1
	c-0.6,9,4.8,15.7,9.1,22.7C109.7,41.9,111,43.1,112.2,42.4z"/>
<path class="st0" d="M129.7,217.9c-1.9-3.2-5-5.3-7.7-6.2c-4.7,1.6-6.4-1.1-8.4-2.8c-1-0.9-2.3-2-1.8-3.5c0.6-1.8,2.3-0.9,3.6-0.9
	c0.9,0,2.2,0.5,2.4-0.9c0.1-0.9-0.2-2.1-0.8-2.7c-2.4-2.5-5.3-2.5-8.3-1c-2.8,1.4-3.4,3.2-2.3,6.3c2.9,8.4,9.2,13,17.1,16.1
	c1.8,0.7,2.6,4.2,5.3,1.7C130.7,222.3,130.7,219.5,129.7,217.9z"/>
<path class="st0" d="M199,198.1c-0.9,0.9-0.1,1.9,0.3,2.7c2.1,3.2,1.8,6.5,1.5,10.2c-0.3,4.4,0.6,8.9-0.5,13.5
	c-0.6,2.5,5.3,8,7.9,7.8c3.4-0.3,1.6-3,2.1-4.6c-1.3-7.9-2.5-15.9-3.9-23.9c-0.4-2.4-2-4.3-4.2-5.5C201.2,197.5,200,197,199,198.1z"
	/>
<path class="st0" d="M83.4,23.5c1,1.1,1.5,4.1,3.8,2c-0.5-1.3-0.8-2.7-1.4-3.8c-0.9-1.4-1.6-2.7-0.2-4.1c1.3-1.3,2.6-0.3,3.8,0.5
	c2.5,1.7,3.9,4.3,4.3,7.6c1.8,4.2,1.7,8.4-0.6,12.3c-1.5,2.5-3.6,4-6.1,2c-4.2-3.4-7-8-8-13.8c-0.3-1.5-0.4-3.4,1-4.2
	C81.4,21,82.4,22.3,83.4,23.5z"/>
<path class="st0" d="M134.5,103.4c-3.3-0.8-5.8-0.3-6.9,3.1c-1.7,5,0.2,11.2,4.8,14.1c2,1.3,4.3,3.1,6.6,2c1.9-1,0.7-3.6,0.9-5.5
	c0.2-2.3,0.8-4.6,0.9-7C140.8,106,140,102.4,134.5,103.4z"/>
<path class="st0" d="M80.5,67.5c-2.5,0-2.2,1.8-2.1,3.4c0.2,3.3,1.9,6.5,1.2,10.4c0.1,1.7,0.3,3.8,0.5,6c0.2,1.5,2,2.3,2.5,1.5
	c2.1-3.8,5.9-2.1,8.8-3.2c3.2-1.1,4.5-3.9,3.5-7.1C93.4,73.5,85.5,67.6,80.5,67.5z"/>
<path class="st0" d="M72.9,261c1.3,0.3,2.9,1.8,3.5-0.2c0.5-1.4-0.2-3.1-1.4-4.3c-2.9-2.8-9.4-1.4-10.7,2.4
	c-2.3,6.5,7.1,18.7,14.3,18.5c3.5-0.1,6.2-1.7,5.9-5.3c-0.4-3.6-3.1-2.2-5.6-1.7c-4.7,1-6.7-2.8-8.7-5.9
	C68.5,261.9,69.4,260.3,72.9,261z"/>
<path class="st0" d="M86.9,265.9c0.9,0.4,1.7,0.8,2.6-0.3c3.1-3.7,3.8-11.2,0.7-14.8c-1.8-2.1-3-3.9-3.3-6.6c-0.2-2-1.8-4.5-4-2.4
	c-2.6,2.5-5.7,5.1-5.9,8.4C76.9,253.5,84.3,264.7,86.9,265.9z"/>
<path class="st0" d="M47.5,265c3.7,3.3,3.1-0.1,3.4-1.2c-0.2-5.2-1.4-9.4-4.4-12.8c-1.9-2.2-4.1-2.3-4.6,1c-1,7.5-5.9,14.9-1,22.7
	c1,1.6,1,4,3.7,4.1c1.9,0.1,3-1.2,3.3-2.8c0.5-2.7-1.5-3-3.6-3.6c-3.3-1-2.3-3.6-1.4-5.9C43.8,264.1,45.5,263.2,47.5,265z"/>
<path class="st0" d="M29.5,86.9c-1.4,0.2-2,1.6-1.7,2.8c1.1,4.4-1.1,8-2.4,11.9c-1.4,4.2,0.1,8.6,1.8,12.7c0.5,1.3,1.4,2.7,3,2.7
	c2,0,2.5-2,2.9-3.3c1.1-3.9,0.8-7.8,0.4-11.8c-0.3-4.3,0.6-8.8-1.3-12.9C31.6,87.8,30.8,86.6,29.5,86.9z"/>
<path class="st0" d="M133.2,240.4c-0.9-1.2-2-2.8-3.9-1.8c-1.5,0.8-1.9,2.3-1.3,4.1c0.9,2.3,2.8,4.3,2.5,8.4c-1.8-2.5-2.9-4-4-5.5
	c-0.6-0.8-1.1-1.9-2.3-1.1c-0.6,0.4-1.3,1.5-1.1,1.9c1.4,3.1-0.1,4.9-2.4,7c-1.9,1.8-1.3,4.8,0.6,6.4c2.5,2.1,4,0.2,4.9-2.1
	c0.4-1,1.1-1.4,2.1-1.9C136.5,252.4,138.1,247.2,133.2,240.4z"/>
<path class="st0" d="M92.2,244.3c1.6,1.5,3.5,4.9,5.8,2.7c2-1.9,5.6-4.7,3.8-8c-2.1-4.1-2.4-8.9-5.6-12.4c-0.9-1-0.9-3.6-3.3-2.3
	c-1.9,1-1.9,2.7-1.1,4.7c0.8,1.9,3.1,3.3,2.5,6c-1.8,0.2-3.3-2.9-5.2-0.5c-1.6,2.1-1,4.1,0.2,6.1C90.2,241.8,91.1,243.2,92.2,244.3z
	"/>
<path class="st0" d="M110.8,56.4c-1,0.2-2.1,1.3-2.5,2.3c-0.5,1.2-0.4,2.7-0.4,3.1c-0.3,7.9,1.7,9.9,11.6,12.8
	c1.7,0.5,3.9,1.6,5.1-0.2c1.5-2.3,0.8-4.9-0.5-7.3c-0.9-1.8-2.8-4.7-3.9-3.9c-7.2,5.1-5.5-2-7-4.5C112.5,57.6,112.1,56.1,110.8,56.4
	z"/>
<path class="st0" d="M213.1,253.3c3.7-2.9,3.8-7,2.9-11.3c-0.1-0.6-0.4-1.1-0.5-1.7c-0.5-2.1-0.8-4.9-3.7-4.5c-2.3,0.4-1,3-1.2,4.6
	c-0.2,1.7,0.4,4.3-2,4.2c-2.2-0.1-1.7-2.7-1.8-4.5c0-0.6,0-1.2,0-1.4c0.1-0.9,0.2-1.5,0.2-2.1c0-1.5,0.5-3.7-1.5-4
	c-2-0.4-2.2,1.8-2.7,3.2c-1,3.1-1.1,6.2,0,9.3C203.9,248.1,211.7,254.4,213.1,253.3z"/>
<path class="st0" d="M51.3,61c-1.2-1.5-2.6-3.2-4.1-1.7c-2.7,2.6-0.7,9.1-5.7,10.8c-0.9,0.3,0.9,8.5,4,11.5c1.8,1.7,3.7,2.7,6.2,1.2
	c3.6-2.2,2.8-6.3,3-11C55,68.2,53.9,64.3,51.3,61z"/>
<path class="st0" d="M118.2,32.4c-0.5,4,1.7,7.7,3.8,11.1c0.7,1,1.5,2,2.9,1.6c1.4-0.3,1.8-1.6,2.1-2.7c0.8-3.3-0.4-6.2-2.3-8.9
	c-2-2.8-3.7-5.2-1.2-9c1.8-2.8-3.3-10.7-6.8-10.9c-2.4,1.1-2,3.4-0.9,5.2C118.1,23.1,118.8,27.4,118.2,32.4z"/>
<path class="st0" d="M157.8,197.8c-0.4-3.7-2.2-7.2-2.3-11c-0.1-3-1.3-6.9-4.5-6.8c-3.5,0.1-0.5,4.4-2,6.4c-1.8-0.5-2.4-4.1-4.7-2.5
	c-2.3,1.6-1.5,4.5-0.3,6.5c2.4,4.2,6.6,7,10.5,9.8C157.3,202.3,158,200.2,157.8,197.8z"/>
<path class="st0" d="M13.7,40.3c6.7-0.8,6,4.9,8.3,7.8c0.9,1.1,1.5,2.3,2.4,3.4c0.7,0.9,1.6,1.9,3,0.9c1.2-0.9,1-1.9,0.6-3.1
	c-0.8-2-3.1-3.2-3-6.1c2.4,0,6.3,0.9,4.5-3.7c-1.2-3-1.7-7.1-6.9-4.7c-4.2,1.9-8.2,1.1-12.5-1.7C10,36.9,12.2,40.5,13.7,40.3z"/>
<path class="st0" d="M125.2,57.6c0.9,4.4,3.2,8.1,6.6,11.1c1.5,1.3,2.7,1.4,4,0.1c-0.1-5.9,3.8-12.1-0.9-17.9
	c-2.8,0.8-1.7,3.6-3.3,4.8c-1.4-2-0.8-6.2-4.2-5.4C124.3,51.2,124.7,55,125.2,57.6z"/>
<path class="st0" d="M80.7,195.4c-2.1,0.9-1.8,3.3-1.8,5.3c0,3,7.9,10,11.1,9.2c4.9-1.3,1.6-5.2,2-8c0.2-1.1,0.1-2.4,0-3.5
	c-0.4-2.8-1.4-6.5-4.2-6.4c-4,0.1-0.6,4.2-2.5,6.6C83.9,197,83.1,194.4,80.7,195.4z"/>
<path class="st0" d="M204.8,172.9c-1.2,1.5-1.6,3.2-1.4,5c0.9,6.1-1,12.9,5.3,17.6c2,1.5,2.3,6.5,5.4,5.1c3.1-1.4,0.2-5.3,0-8
	c-0.1-1.2-1.1-2.9-2.1-3.4c-5.3-2.4-3.4-6.9-3.4-10.8c0-1.3,0.7-2.6,0.9-3.5c-0.2-1.6,0.3-3-1.1-3.6
	C206.7,170.7,205.7,171.8,204.8,172.9z"/>
<path class="st0" d="M78.4,225.6c1.4,2.1,2.1,5.6,5,5.2c2.8-0.4,1.6-4,2.3-6.1c0.2-0.6,0.1-1.3,0.5-1.7c4.1-4.7,0.8-8.5-1.7-12.2
	c-0.9-1.3-1.9-3.6-4.2-2.3c-2.3,1.3-0.8,3.1-0.1,4.6c1,1.9,2.8,3.5,1.8,6.5c-1.8-1.1-2.5-4.5-5.3-2.9c-2.9,1.7-0.3,3.8,0.1,5.7
	C77,223.6,77.7,224.7,78.4,225.6z"/>
<path class="st0" d="M148.2,218.8c0,0.2-0.1,0.4-0.2,0.7c-0.1,0.7-0.2,1.5-0.1,2.2c0,0,0,0,0,0c0,1,0.2,1.9,0.8,2.7
	c0.1,0.1,0.1,0.1,0.1,0.2c0.1,0,0.1,0.1,0.2,0.1c1.1,0.3,1.5,0,2.3-0.9c0.1-0.1,0.2-0.2,0.3-0.3c3-6.3,1.7-12.8-0.9-19.3
	c-1-2.5-2.6-5.9-5.7-5.1c-3.3,0.8-1.2,4.4-1.7,6.7c-4.4-4.1-5.4-4.4-6-1.7c-0.7,3.5-2.4,7.2-1,10.8c0.5,0.6,1.1,1.2,1.8,1.4
	c0.8,0.2,2.4,0.1,3-0.7c0.2-0.5,0.4-1,0.7-1.4c1.1-1.6,3.5-2.5,5.1-1.2C148.5,214.3,148.6,216.8,148.2,218.8z"/>
<path class="st0" d="M91.5,60.1c0.2,4.8,0.9,10.2,5,11c4.3,0.9,5.9-4.2,7.1-9.2c0.5-2.2,0.6-4.7,0.8-6.2c-0.4-4.4,0.5-9.9-2.3-10.3
	c-2.9-0.4-1.1,5.4-2.1,8c-0.3,0.8-0.4,1.7-0.5,2.6c-0.3,1.8-0.5,3.9-2.1,3.8c-2-0.1-2-2.8-1.9-4.8c0.2-3.6,0.9-7.1,1.2-10.7
	c0.1-1.6,0.4-4-1.2-4.4c-1.5-0.4-2,1.4-2.5,3.2C91.8,48.7,91.3,54.5,91.5,60.1z"/>
<path class="st0" d="M203.4,65.6c3.2,1.2,4.8-1.7,6.1-3.7c2.4-3.7,3.3-8.1,3.9-12.4c0.3-2.1-0.2-5.2-2.6-5.4
	c-3.2-0.3-2.4,2.9-2.7,4.9c-0.2,1.5,1.1,4.6-1.6,3.9c-6.6-1.7-5.2,3-6.1,5.9C200.4,61.7,200.5,64.5,203.4,65.6z"/>
<path class="st0" d="M161.1,99c3.2,1.2,4.8-1.7,6.1-3.7c2.4-3.7,3.3-8.1,3.9-12.4c0.3-2.1-0.2-5.2-2.6-5.4c-3.2-0.2-2.4,2.9-2.7,4.9
	c-0.2,1.5,1.1,4.6-1.6,3.9c-6.6-1.7-5.2,3-6.1,5.9C158.1,95.1,158.2,97.9,161.1,99z"/>
<path class="st0" d="M194.8,321.9c2.4,1.6,5.2,3.2,7.7,0.6c2.4-2.5,1.4-5.4-1-7.3c-3.3-2.7-4.1-6.2-4.4-10c-0.1-1.7,0.3-3.6-1.9-5.1
	c-3.8,4.2-2.9,8.1,0.7,12.1c-2.3,0.9-4.1-1.9-5.5,0.4c-1.1,1.7,0.5,2.9,1.1,4.3C192.1,318.9,193,320.7,194.8,321.9z"/>
<path class="st0" d="M114.1,115.5c0,1.7,0.5,3.5,1.2,5.1c1.2,3,1.6,8.1,5.2,7.6c4.2-0.5,3.1-5.7,3.9-9.5c-0.2-1.1-0.5-2.7-0.6-4.2
	c-0.2-4.6-3.7-5.6-7.2-5.3C112.8,109.6,114.1,113.2,114.1,115.5z"/>
<path class="st0" d="M64.9,210.1c-1.5-0.1-3.1,0.5-4.5,1.2c-2.6,1.3-7.1,1.7-6.8,5.8c0.3,4.8,4.9,3.7,8.2,4.7c1-0.1,2.4-0.5,3.7-0.5
	c4.1-0.1,5-4.1,4.8-8.1C70.1,208.8,67,210.2,64.9,210.1z"/>
<path class="st0" d="M7.4,247.5c0,0,0,0.1,0,0.1C7.4,247.6,7.4,247.6,7.4,247.5C7.4,247.6,7.4,247.6,7.4,247.5z"/>
<path class="st0" d="M196.7,287.8c1.3-3.6,4.6-4.7,6.9-7.1c2.8-3,1.4-8.8-1.9-9.4c-4-0.6-9.5,4.5-9.4,10c0.3,1.1,0.7,3.4,1.6,5.6
	C194.2,288,195.9,289.9,196.7,287.8z"/>
<path class="st0" d="M166.3,27.6c-0.1,3,0.8,5.4,3.9,6.7c3,1.2,4.6-0.3,6.8-2.2c3.5-3.2,3.2-6.4,1.8-10.2c-0.5-1.3-0.8-2.8-2.4-3
	c-1.8-0.2-2.4,1.1-2.6,2.6c-0.2,2.1-1.3,2.9-3.3,2.2C166.1,22,166.6,25.2,166.3,27.6z"/>
<path class="st0" d="M39.7,245.5c0.4-3.7,0.9-7.5,1.2-10.2c-0.1-5.2,0.5-9.5-3.3-12.6c-1.3-1.1-2.5-3.4-4.4-2.5
	c-2.1,1-0.8,3.3-0.1,4.8c2.9,5.9,4.2,11.9,1.8,18.3c-0.3,0.7-0.1,1.6,0.2,2.3c0.4,1.3,0.9,2.9,2.7,2.6
	C39.1,248,39.6,246.8,39.7,245.5z"/>
<path class="st0" d="M36.2,333.3c1.2,0.7,2.4,0.2,3.3-0.7c2.5-2.6,0.7-5.2-0.3-7.7c-0.5-1.2-1.9-2.6,0.4-3.3c3.2-1,2.1-2.8,1.1-4.6
	c-0.9-1.8-2.2-3.7-4.4-3.7c-2.1,0-2.6,2.2-3.1,3.9c-0.7,2.3-1.7,4.5-1.4,6.6c0.1,0.9,0,1.5,0.1,2.1
	C32.5,328.8,33.3,331.7,36.2,333.3z"/>
<path class="st0" d="M109.3,267.3c1.7-1,1.2-2.8,1.1-4.3c0.5,0.6,1.1,1.1,1.6,1.7c1.3,1.4,2.4,3.8,4.7,2.6c1.8-0.9,0.8-3.2,0.6-4.9
	c-0.6-5.6-3.7-10.3-6.3-15.2c-0.5-1-1.2-2.3-2.7-1.8c-1.2,0.4-1.9,1.6-1.7,2.9c0.5,2.7,1.3,5.3,1.9,8c-0.6-0.4-1.5-0.8-1.9-1.3
	c-1.7-2.1-2.8-5.6-6.5-2.8c-3.4,2.6-2.9,6-0.6,8.9c1.5,1.8,3.6,3.2,5.5,4.7C106.4,266.5,107.4,268.4,109.3,267.3z"/>
<path class="st0" d="M101.3,296.6c0.7,1.3,2.9,0.1,3.7-0.7c3.1-3.4,3.3-7.4,2-11.6c-0.3-0.9-1-1.7-1.6-2.5c0-0.8-0.1-1.5-0.1-2.3
	c0.3-3.7-1.5-6.9-3.2-10.1c-1.1-2-2.5-4.3-4.9-3.7c-2.9,0.7-1.5,3.6-1.6,5.7c0,0.4,0.1,0.8,0.1,1.2c-2.3-0.3-3-5.6-5.9-2.5
	c-2.2,2.3-0.6,5.8,0.9,8.3c1.4,2.2,1.5,6.6,6.3,4.9c0.3,0.3,0.6,0.7,0.9,1C94.9,289.4,99.3,292.8,101.3,296.6z"/>
<path class="st0" d="M162.6,293.4c-0.8,3.1-0.1,6.2,3.2,7.5c3.1,1.2,5.9,2.7,8.6,4.8c2-10.6,1.8-11.1-6.8-13
	c1.3-2.4,0.4-15.8-1.3-17.6c-0.8-0.8-1.9-1.7-2.9-1.8c-1.6-0.1-1.8,1.3-1.6,2.5c0.2,2.7-2.4,3.2-3.6,4.8c-0.7-4.3-5.8-3.1-7.7-5.9
	c-0.6-0.8-1.9-1.3-2.7-0.5c-0.6,0.6-0.6,1.8-0.6,2.8c0.1,4.4,3.7,6.6,6.4,9.4c1.5,1.5,2.6,4.4,5,3.3c2-0.9,0.7-3.5,0.6-5.4
	c0.5-0.3,0.4-2.8,1.3-0.9c1.6,3.6,4.6,6,6.9,8.9c0,0,0,0,0,0l0,0C165.2,290.6,163.3,290.9,162.6,293.4z"/>
<path class="st0" d="M197.2,38.1c6.6-0.1,4.7-4.1,5.9-6.5c1.1-2.2,1.3-5.3-2.2-6.2c-3.3-0.9-3.6,2-4.6,3.7c-0.9,1.4-2.3,2.7-4.6,2.3
	c-2.8-0.4-1.5-2.4-1.8-3.7c-0.5-2,0.9-4.4-2.7-6.5c-3.7,3.6-1.6,7.1-1.1,10.6C187,37.1,191,38.2,197.2,38.1z"/>
<path class="st0" d="M31.2,228.7c-2.4-0.3-3.4,1.7-3.9,3.7c-0.6,2.7-1.1,5.4-1.5,7.6c0.6,2.5-0.8,5.1,1.8,6.4c0.5,0.2,2-0.6,2.4-1.4
	c2-3.6,3.8-7.4,4.5-11.5C34.9,231.2,33.7,229.1,31.2,228.7z"/>
<path class="st0" d="M49,124.4c2.2,0.5,3.6-1.4,5.1-2.7c3.6-3.3,3.1-7.3,1.6-11.7c-1.6,2.8-4.1,3.5-6.7,4.6
	c-2.3,0.9-2.7,3.2-2.5,5.5C46.6,121.9,47,124,49,124.4z"/>
<path class="st0" d="M184.5,306.8c2.4,0.6,3.6-1.3,4.1-3.4c0.6-2.5,1.1-5,1.5-7c-0.1-1.9,0.5-3.7-1.4-4.5c-0.6-0.3-1.9-0.1-2.2,0.3
	c-2.2,3-5,5.8-5.4,9.7C180.9,304.3,182.2,306.2,184.5,306.8z"/>
<path class="st0" d="M35,292.4c-1.1-0.4-2.1,0.2-2.5,1.2c-1.7,4.8-3.4,9.6-4.9,14.5c-0.4,1.1,0,2.4,1.3,2.9c0.4,0.2,1.4-0.1,1.6-0.4
	c2.2-4.8,6.4-8.7,6.5-14.4C37.1,294.6,36.8,293,35,292.4z"/>
<path class="st0" d="M42.8,351c2-0.1,4.2,0.4,4-2.8c-0.1-3.6-4.9-10.1-7.4-9.8c-3.3,0.4-2.3,3.1-2.4,4.4
	C37,347.5,37.1,351.4,42.8,351z"/>
<path class="st0" d="M20.6,26c1.7-1,0.8-2.8,0.2-4.3c-1.1-2.5-2.3-5.1-3.6-7.5c-0.6-1.2-1.4-2.5-3.1-2.5c-1-0.1-1.7,0.5-1.8,1.3
	c-0.4,4.4-0.5,8.9,2.7,12.4C16.2,26.8,18.8,27.1,20.6,26z"/>
<path class="st0" d="M109.1,114.7c1.7-3.2,2.2-6.7,2.5-8.8c0.2-3.9,0.2-6.3-1.3-8.3c-1.2-1.6-3.1-1.3-3,0.3
	c0.1,5.4-1.9,10.5-2.1,15.8c0,0.9,0,2.1,1.1,2.5C107.7,116.7,108.6,115.7,109.1,114.7z"/>
<path class="st0" d="M143.7,316.8c-2.7-0.6-3.5,2.2-4.5,4c-1.4,2.6-2.8,5.4-0.5,8.2c1,1.3,2.6,2.7,4,1.6c2.4-1.9,3.4-4.7,3.3-9.3
	C145.9,320.5,146.7,317.5,143.7,316.8z"/>
<path class="st0" d="M59.7,274.7c2.6,0.2,4.4-1.7,3.9-4.2c-0.7-3.4-2.4-6.4-6.5-7c-3.1,0.3-3.3,2.4-3.1,4.7
	C54.3,271.8,55.9,274.4,59.7,274.7z"/>
<path class="st0" d="M101.1,216.4c2.7-0.1,3.9-1.7,4.2-4c-1-3.2-2.2-6.2-6.3-6.1c-2.8,0.1-3.9,1.9-3.4,4.4
	C96.2,213.7,97.1,216.6,101.1,216.4z"/>
<path class="st0" d="M142.9,266.2c0.8,1,1.6,1.9,3,1.3c1.1-0.5,1-1.6,0.9-3c-0.8-2.6-0.6-5.8-2.4-8.6c-0.8-1.3-1.7-3.1-3.5-2.8
	c-2.1,0.4-1.4,2.5-1.5,4C139.3,260.5,140.7,263.5,142.9,266.2z"/>
<path class="st0" d="M201.6,264.7c1.8-1,2.9-2.7,2.9-4.8c0-3.5-2.2-5.9-4.8-7.8c-2.3-1.7-2.8,1.2-4.2,1.8c1.9,2.6,2.6,5.6,2.9,8.8
	C198.6,264.3,199.4,265.9,201.6,264.7z"/>
<path class="st0" d="M39.3,28.2c0.8,0.2,1.8,0.3,2.1-0.6c1-2.7-0.9-4.9-1.9-7.2c-0.8-2-1.6-4.1-3.8-4.8c-1.2-0.1-1.7,0.4-2.1,1.2
	C32.1,19.7,35.9,27.5,39.3,28.2z"/>
<path class="st0" d="M178.1,296.6c2,1,1.7-1.9,2-3.6c-1.2-3.1,0.2-7.8-4.6-9.2c-2.1-0.6-3.3,1.4-2.9,3.4
	C173.2,291,174.6,294.8,178.1,296.6z"/>
<path class="st0" d="M25.4,229.5c-0.1-2.3-1.1-4-3.2-5.3c-3.3-2.1-4.2,1.9-6.5,2.2c2.6,0.9,1.5,3.8,3.1,5.3c1.3,1.2,2,3.1,4.3,2.2
	C25.1,233.1,25.4,231.4,25.4,229.5z"/>
<path class="st0" d="M119,59.1c2,1.3,2.4-1,2.4-3.3c-0.7-1.6-1.6-3.8-2.6-6c-0.6-1.3-1.2-2.8-2.9-2.7c-2,0.2-2.5,2.1-2.6,3.5
	C113.1,54.8,116.1,57.2,119,59.1z"/>
<path class="st0" d="M181.2,241.1c-2.3,0.3-2.4,2.1-2.5,3.9c-0.1,3.7,1.7,6.6,3.5,10.3c3.6-3.9,3.2-7.5,1.5-11.3
	C183.2,242.7,183.6,240.7,181.2,241.1z"/>
<path class="st0" d="M82.7,124c-2.9,1.9,0.2,4.6,0.4,6.9c0.1,1,0.6,1.9,0.8,2.8c0.3,1.4,0.8,3,2.4,3c1.9,0,1.5-1.9,1.8-3.2
	c0.5-2.2-0.4-4.7,1.1-6.8C87.1,125.6,85.4,122.2,82.7,124z"/>
<path class="st0" d="M27.3,217.1c0.5-3.1,1.3-6-2.1-6.5c-3.4-0.4-3.5,3-3.7,5.1c-0.3,3,0.9,7,4,7C29.1,222.7,26.6,218.6,27.3,217.1z
	"/>
<path class="st0" d="M31.3,249.7c-2,0-3.9,1.5-3.7,3.9c0.3,3,2.2,5.3,5.2,5.6c3,0.4,1.6-2.4,2.1-3.8
	C34.6,252.9,35.1,249.7,31.3,249.7z"/>
<path class="st0" d="M14.5,272C14.5,271.9,14.5,271.9,14.5,272C14.5,271.9,14.5,271.9,14.5,272L14.5,272z"/>
<path class="st0" d="M18.5,269.9c0.6-2.7,0.5-5.5-1.3-7.9c-0.7-1-1.6-1.9-3-1.4c-1.3,0.4-1.8,1.7-1.5,2.9c0.5,2.9,1.2,5.7,1.9,8.5
	C16.7,272.8,18,271.9,18.5,269.9z"/>
<path class="st0" d="M14.6,272C14.5,272,14.5,271.9,14.6,272C14.5,271.9,14.5,272,14.6,272C14.5,272,14.5,272,14.6,272z"/>
<path class="st0" d="M139.1,239.1c1.8,0.6,2.1-1.2,2.1-3.1c-1.8-2.9-2.3-7.3-6.4-9c-1.4-0.6-1.7,1.6-1.4,2.5
	C134.9,233,134.5,237.6,139.1,239.1z"/>
<path class="st0" d="M22.5,266c2,0.7,2.1-1.8,2.3-3.5c-0.9-2.8-0.6-6.6-4.2-7.8c-2-0.7-2.6,1.7-2.2,3.2C19,261,19.1,264.8,22.5,266z
	"/>
<path class="st0" d="M57,125.5c0,2.9,1.6,4.5,4.4,4.6c3.4-0.7,5.2-2.4,5-5.7c-0.2-2.7-1.4-4.9-4.6-4.6C58.5,120.1,57,122.4,57,125.5
	z"/>
<path class="st0" d="M58.1,287.3c3,0.6,4.4-1,4.2-4c0,0,0,0,0,0c0,0,0.2,0.2,0.2,0.2c0,0,0.1-0.1,0.1-0.1c1.9,0.4,4,2.3,5.7-0.1
	c1.4-2,1.2-4.1-0.2-6.1c-0.9-1.3-2.4-1.7-3.8-1.1c-2.9,1.3-1.7,4-1.8,6.2c0,0.3,0,0.6,0,0.9c0,0-0.1,0.1-0.1,0.1c0,0,0,0,0,0
	c0,0,0,0-0.1,0c0,0,0,0,0,0c-1.1-2.1-2.7-3.7-5.4-3.3c-1.3,0.2-2,1.4-2.1,2.5C54.6,284.9,55.6,286.8,58.1,287.3z"/>
<path class="st0" d="M43.4,189.3c-1.8-0.3-2.1,1.5-1.7,2.9c0.8,2.8,0.9,6.2,4.2,7.1c1.9,0.5,2-1.9,2.1-3.6
	C47.2,193.2,47.1,189.8,43.4,189.3z"/>
<path class="st0" d="M195.4,253.8c0.1-1.3,0.2-2.7,0.3-4c0.4-4.2-0.1-8.3,2.2-12.4c1.4-2.4,1.9-5.9,0.6-9.1
	c-0.7-1.7-1.1-3.7-3.1-3.9c-2.5-0.2-3.3,1.9-3.5,4c-0.7,0.4-1.3,0.8-2,1.1c-0.2-1.9-2.2-2.1-3.1-3.4c1.6-2.6,2.8-5.3,0.7-8.2
	c-0.6-0.9-1.6-1.2-2.6-0.6c-3.2,1.9-1.4,4.9-1.5,7.5c-3.8-2.6-5.2-6.2-4.9-10.6c0.2-1.9,0.3-4-1.3-5.6c-1-1-1.8-2.2-3.5-1.8
	c-1.6,0.4-1.1,1.9-1.2,2.9c-0.2,2.5-0.4,5-2.5,6.9c-2.4-1.4-4.8-2.7-7.1-4.2c-1.4-0.9-2.3-3.7-4.2-2.6c-2.1,1.3-0.9,3.8-0.4,5.9
	c0.3,1.3,0.6,2.7,0.9,4c-0.6,0.6-1.1,1.1-1.7,1.7c-1.9-0.1-3-0.2-3.7,2.4c-1.5,6-1.3,11.3,2.7,16.3c-6-2.1-6-2.1-6.1,4.8
	c-1.9,0.2-2.1-1.5-2.9-2.5c-1-1.2-1.9-2.9-3.9-1.6c-1.6,1.1-1.3,2.6-0.8,4.2c0.6,1.8,1.5,4,3.1,4.1c3.8,0.3,3,3.6,4.5,5.4
	c1.6,2.8,4.2,4.8,7.2,3.6c3-1.2,1.9-4.7,1.8-7.3c-0.1-1.5-0.3-3.1-0.5-4.6c3.7,1.5,5.1-1.4,6.7-3.9c1,2.5,2.3,5.2,4.7,3.6
	c3-2,3.5-6.5,2.2-9c-1.8-3.6-4.8-0.6-7.9,1.5c1.1-3.3-0.5-5.3-0.9-7.6c0.5-0.5,1-0.9,1.4-1.4c6.1,0.8,3.6-5.1,5.9-7.3
	c2.2,1,1.1,3.2,1.6,4.7c1.3,3.6,3,7.7,6.7,8.6c3.5,0.8,2.2-4.5,4.6-5.9c0.2-0.1,0.4-0.2,0.6-0.2c-0.2,3.8,0.4,7.5,2.6,10.8
	C185.1,247.6,189.1,251.4,195.4,253.8z"/>
<path class="st0" d="M195.4,253.9L195.4,253.9C195.4,253.9,195.5,253.9,195.4,253.9C195.5,253.9,195.5,253.8,195.4,253.9
	C195.5,253.8,195.5,253.8,195.4,253.9C195.5,253.8,195.4,253.8,195.4,253.9C195.4,253.8,195.4,253.9,195.4,253.9
	C195.4,253.9,195.4,253.9,195.4,253.9z"/>
<path class="st0" d="M157.7,262.9c-1.6-0.3-2.1,0.9-1.8,2.3c0.7,2.7,1.6,5.4,4.9,6c1.5,0.3,2.1-0.8,1.9-2.6
	C161.4,266.7,161,263.6,157.7,262.9z"/>
<path class="st0" d="M171.9,204.6c1.5,0.3,2.1-0.8,1.9-2.4c-1.2-2.3-1.8-5.3-5-5.9c-1.6-0.3-2.1,1-1.7,2.3
	C167.7,201.2,168.6,203.9,171.9,204.6z"/>
<path class="st0" d="M150.3,259.2c-0.7-0.5-1.8,0.2-1.9,0.9c-0.3,3.8,1.2,6.8,4.6,8.7c0.1,0.1,0.4,0,0.9-0.1
	C154.9,264.8,153.5,261.6,150.3,259.2z"/>
<path class="st0" d="M193.1,268.1c2.2-0.3,2.7-2.7,3-5c-0.2-1.5-0.5-3.6-2.9-3.4c-2.6,0.3-2.6,2.8-2.8,4.7
	C190.2,266.1,190.8,268.4,193.1,268.1z"/>
<path class="st0" d="M5.5,184.3c-1.7-1.3-3.4-1.5-5.2,0c-0.6,3.2-0.6,7.7,2.9,7.8c3.9,0.1,2.2-4.5,2.4-7.2
	C5.5,184.7,5.5,184.5,5.5,184.3z"/>
<path class="st0" d="M144.9,236.1c1.2,0.3,2.5-1.9,1.9-3.7c-0.7-2.2-0.8-5.1-3.6-5.5c-2-0.3-1.2,1.9-1.4,3.2
	C142.3,232.4,141.9,235.5,144.9,236.1z"/>
<path class="st0" d="M203.6,47.6c2.3-0.2,2.1-2.9,2.4-4.8c-0.2-1.7-0.2-4.4-2.2-4.2c-2.3,0.2-2.1,3-2.2,4.9
	C201.5,45.1,201.2,47.8,203.6,47.6z"/>
<path class="st0" d="M11.4,202.8c0.5-1.1-0.7-2.7-1.8-2.3c-3,1.1-4.9,3.8-6.2,6.5c-0.5,1.1,1,1.9,2.6,2
	C8.7,207.9,10.2,205.4,11.4,202.8z"/>
<path class="st0" d="M60.2,255.5c4.7-1.5,3.6-6.4,3.6-10.3c0-0.2-0.1-0.4-0.1-0.6c0-1.1-0.3-2.5,1.2-3c1.2-0.5,2.3,0,3.3,0.9
	c1.7,1.7,3.6,3.7,6.2,1.7c3.5-2.7,4.6-6.7,3.1-10.6c-1.6-4.4-3.6-9.1-9.9-8.8c-0.4,0-0.9,0.1-1.3,0.1c-5.1-2.3-4.8,1.9-5.2,4.5
	c-0.8,4.7-2.6,4.8-5.6,1.6c-0.8-0.9-1.5-1.8-2.3-2.7c-3.7-4-5.1-3.4-7.8,1.3c-4.4,8-0.3,14,4.1,20C51.9,252.9,55.2,257.1,60.2,255.5
	z M48.8,236.8c-1.7-2.9,1.8-3.7,3.1-2.9c3.4,2.2,6.3,5.2,7.4,8.3c-0.2,3.3-0.9,5.4-3.6,5.8c-2.4,0.3-3.4-1.5-4.2-3.4
	C50.3,242,50.2,239.3,48.8,236.8z"/>
<path class="st0" d="M203.2,153.8c-0.2-2.8-0.4-6-4-6.3c-3.3-0.2-5.6,2.1-6.4,5.2c-0.4,1.5-0.6,3.1-0.3,4.6c0.8,4.1,1.8,9,7.2,8.6
	c5.3-0.4,3.2-5.4,3.6-7.8C203.2,156.2,203.3,155,203.2,153.8z M199.2,160.1c-2.3,0.1-2.4-1.7-2.6-3.1c-0.2-1.6,0.4-3.4,2.3-3.4
	c2.3,0,2.4,2.3,2.8,3.9C202.1,159.3,200.6,159.8,199.2,160.1z"/>
<path class="st0" d="M208.9,144.3c-1.9,2.1-4.2,4.4-1.1,8.1c2.7,3.3,6.4,3.9,9.5,2.7c1.4-0.6,2.8-1.6,3.7-2.8
	c2.4-3.5,5.1-7.7,0.1-12.7c-4.9-4.8-6.7,0.6-8.9,1.8C210.6,142.7,209.7,143.4,208.9,144.3z M217,143.8c2.1,2.1,0.9,3.5,0,4.6
	c-1,1.3-2.9,1.9-4.5,0.1c-2-2.2-0.4-3.8,0.5-5.3C213.9,141.7,215.5,142.8,217,143.8z"/>
<path class="st0" d="M61.4,39.4c-2.3-0.8-5-2-7.7,4c-2.4,5.4-2.2,10.2-0.3,13c0.9,1.3,2.1,2.3,3.5,2.5c3.8,0.5,8.4,0.9,11.8-8.4
	c3.3-9-2.1-7.6-3.7-9.3C63.3,40.3,62.4,39.7,61.4,39.4z M63.6,48.7c-1.5,3.9-3,3.4-4.3,3c-1.4-0.4-2.4-2.2-1.1-5.3
	c1.6-3.8,3.5-3,5-3C64.9,43.5,64.3,46.2,63.6,48.7z"/>
<path class="st0" d="M15.3,228c-1-1.5-1.4-2.5,0.1-3.5c2.4-1.5,5.9-2.3,7.9,0c2.2,2.4,3.4,6.2,0.9,8.9c-1.7,1.8-4.4,1.6-6-0.1
	C16.9,231.8,16.4,229.6,15.3,228z"/>
<path class="st0" d="M133.8,346.3c2.7-0.1,6.7-0.6,6.7-5.2c2.4,0.3,2.1,3.3,4.2,2.6c1.1-0.4,1.7-1.6,1.8-2.9
	c0.2-2.5-6.8-10.7-9.2-10.7c-1.6,0-1.6,1.5-2,2.5c-1.5,3.3,0,6.5,0,9.8c-2.8-0.1-3.5-4.1-7.2-2.9C129.3,342.7,130,346.5,133.8,346.3
	z"/>
<path class="st0" d="M50.3,322.7c-2,0.1-4.2-0.4-4,2.8c0.1,3.6,4.9,10.1,7.4,9.8c3.3-0.4,2.3-3.1,2.4-4.4
	C56.1,326.2,56.1,322.3,50.3,322.7z"/>
<path class="st0" d="M125.9,325.5c-2.3,0.2-2.6,3.1-2.9,5.5c0.2,1.6,0.1,4.1,2.9,3.9c2.7-0.2,2.6-2.7,2.7-4.5
	C128.8,328.3,128.8,325.3,125.9,325.5z"/>
<path class="st0" d="M151.5,100c5-1.1,3.8-6.7,4.5-10.6c0.6-3.2,0-6.4-0.7-9.4c-1.5-6.4-5.8-8.7-12.1-7.1c-1.1,2.9,0.3,4.9,2.4,6.7
	c1.5,1.3,3.1,2.6,4.4,4c1.4,1.4,2.7,3.1,1.9,5.3c-0.5,1.5-1.8,2.1-3.4,1.9c-2.4-0.3-4.1-1.6-5-3.7c-2.2-4.9-3.7-9.9-2.7-15.4
	c-4.1-1.6-5.1,1.6-5.8,4.1c-1.9,7.1,1.3,13.2,5.1,18.7C142.5,98.1,147.3,100.9,151.5,100z"/>
<path class="st0" d="M36.8,76.6c-0.4-1.4-1.2-2.8-2.5-3.9c-0.7-0.6-1.7-0.2-1.9,0.6c-0.5,2.3-0.3,4.3,0.7,6.1l0,0
	c0.2,0.6,0.6,1.1,0.9,1.6c0.3,0.5,0.6,0.9,1,1.3c0.5,0.4,1,0.7,1.6,0.7c0.8-0.1,1-0.9,1.1-1.7C37.8,79.8,37.6,78,36.8,76.6z"/>
<path class="st0" d="M64.9,98.7c-0.1-0.6-0.2-1.3-0.3-1.9c-0.1-0.6-0.2-1.1-0.4-1.7c-0.1-0.4-0.2-0.8-0.5-1.2
	c-0.1-0.1-0.2-0.2-0.3-0.3c-0.5-0.6-1.1-1-2.1-1.3c-2.3-0.6-2.5,2.1-2.3,3.8c0.4,2.8,0.2,6.4,3.9,7c1.1,0.2,1.5-0.3,1.7-1.1
	c0-0.1,0.1-0.2,0.1-0.3c0.2-0.5,0.1-1,0.1-1.5C65,99.8,65,99.2,64.9,98.7z"/>
<path class="st0" d="M56.1,102.9c-0.1-1-0.4-2-0.7-2.9c-0.4-1.1-0.8-2.1-1.4-3c-0.2-0.7-0.5-1.3-0.8-1.9c-1-2.6-1.9-5.9-4.7-6.6
	c-2.5-0.6-2.7,3.3-4.6,4.6c-0.5,0.3-0.6,1-1.1,1.4c-6.9,5.2-8.9,14.7-4.7,22c0.6,1.1,1.1,2.3,2.6,2.1c1.6-0.2,1.4-1.7,1.4-2.8
	c0-1,0.2-2-0.1-3c-1.9-5.7,3.4-6.7,6.3-9.3c1.1-1,2-1,2.7-0.6c0.2,0.2,0.4,0.4,0.6,0.6c0.3,0.3,0.6,0.6,0.9,0.9
	c0.4,0.5,0.8,0.9,1.4,1.1c0.5,0.2,1.3,0.4,1.7,0C56.1,105,56.2,103.6,56.1,102.9z"/>
<path class="st0" d="M24,241.6c-0.5-1.7-1.2-4.7-2.5-4.2c-3.2,1.3-5.2-2.1-7.5-1.3c-3.2,1.1-2.8,4.2-3.2,6.8l0,0
	c-0.1,0.8-0.7,1.5-1.1,2.2c-0.2,0.3-0.3,0.6-0.4,0.9c0,0.1-0.1,0.3-0.1,0.4c0,0.4,0.2,0.6,0.4,0.8c0.2,0.3,0.4,0.7,0.5,1
	c0.1,0.2,0.2,0.4,0.2,0.6c0.1,0.2,0.1,0.5,0.3,0.7c0,0,0.1,0,0.1,0.1c0.4,1.8,1.3,3.4,3.3,3.4c3.4,0,1.4-3,2.1-4.5
	c0.6-1.4,0.9-2.8,1.5-4.4c1.5,1.3,2.3,3.5,4.5,2.1C23.7,245.1,24.6,243.6,24,241.6z"/>
<path class="st0" d="M122.8,159.5c-0.2-0.1-0.4-0.2-0.6-0.3c-0.6-0.6-1.6-1-2.3-0.6c-0.9,0.5-1.5,1.9-1.8,2.9
	c-0.2,0.7-1,2.4-0.8,3.3c-1.8,4.1-3.3,8.6-8.5,12.4c1.1-6.4,4.1-10.6,6-15c0.1-0.3,0.1-0.5,0.3-0.8c-0.3-3.2-0.8-6.3-3.4-8.6
	c-1.4-1.2-1.4-4.6-3.8-3.7c-2.3,0.9-3.8,3.3-3.6,6.2c0.6,8.1,1.2,16.2-0.1,24.3c-0.4,2.3,0.5,4.3,3,5.2c2.7,1,5.5-0.2,6.2-2.3
	c2.1-5.9,8-9.2,10.1-15.2C124.6,164.3,125.5,161.3,122.8,159.5z"/>
<path class="st0" d="M20.3,196.6c-1.2-2.2-3.9-3.9-3.8-6.6c0.1-5.6-3.2-6-7.5-5.4c-2.8,2.5-0.7,4.4,0.6,6.6c2.4,4,5.9,7.9,3.7,12.9
	c-1.1,2.5-0.9,4.7-0.3,6.9c0,0,0,0.1,0,0.1c0,0.2,0,0.5,0.1,0.7c0.1,0.2,0.4,0.2,0.5,0.2c0.4,0.1,1.2,0.5,1.5-0.1l0,0
	C19.2,208.1,22.2,200.1,20.3,196.6z"/>
<path class="st0" d="M15.4,226.5c1.2-2.7,0.7-5.2,0-7.7c0-0.1,0-0.3,0-0.4c0-1-0.3-1.9-0.6-2.8c-0.1-0.4-0.2-0.8-0.4-1.1
	c-0.3-0.4-0.5-0.8-1-1c-0.5-0.2-1-0.2-1.5,0c-0.3,0.2-1,0.7-1.2,1l0,0c-1.7,1.6-2,3.9-0.9,6.7C12,222.8,10,228.4,15.4,226.5
	c0.1,0,0.1,0,0.2,0c0,0,0,0-0.1,0C15.5,226.4,15.4,226.5,15.4,226.5z"/>
<path class="st0" d="M40.9,196.2c-0.5-1.4-1.6-3-3.6-2.3c-1.6,0.6-1.6,2.2-1.4,3.5c0.1,0.9,0.3,1.9,0.5,2.8l0,0
	c0.1,0.3,0.1,0.7,0.1,1c0.1,0.4,0.2,0.8,0.2,1.2c0.1,0.6,0.3,1.1,0.4,1.7c0.1,0.4,0.1,0.8,0.3,1.2c0.3,0.6,1,0.8,1.6,0.8
	c1.1,0,1.8-0.6,2.5-1.4c0.5-0.6,0.7-1.6,0.6-2.5C42.5,200.4,41.5,198.3,40.9,196.2z"/>
<path class="st0" d="M92.9,124.5c0.2,0,0.3-0.1,0.5-0.2c2.4-1.7,1.6-4.9,0.5-6.9c-4.2-8.2-8.4-16.1-5.3-25.6c0.1-0.2,0-0.4-0.1-0.6
	c-0.1-1.3-0.8-2.6-2-2.6c-1.3,0-1.7,1.3-2,2.5c-2.2,7.3-2.7,14.4,0,21.9c1.3,3.7,4,6.6,5.6,10C90.9,124,91.6,124.8,92.9,124.5z"/>
<path class="st0" d="M164.4,193.4c0.4-0.2,1.1,0.1,1.4-0.2c0.1,0,0.1-0.1,0.2-0.2c1,0,1.7-0.3,1.4-2c-0.2-1.3-0.9-2.6-2.4-3.1
	c-2.3-0.7-3.4,0.5-4,2.4c-0.3,0.7-0.5,1.5-0.7,2.2c-1,2.1-1,3.8-0.3,5.2c0.1,0.4,0.2,0.9,0.5,1.3c0.3,0.6,0.9,1.2,1.3,1.7
	c0.6,0.8,3.1,3.3,4,1.9c1.2-1.9,0.3-4.1-0.7-5.8c-0.3-0.6-1-1.1-1.2-1.8C163.6,194.5,163.8,193.6,164.4,193.4z"/>
<path class="st0" d="M117.8,333.6c2.6,0.2,4.5,2.8,5,5.5c1.2,6.7-4.8,5.7-7.2,1.5C114,337.8,113.7,333.3,117.8,333.6z"/>
<path class="st0" d="M112.2,42.4c3.8-2.2,3.4-6,3.1-9.5c-0.3-2.8-1.1-5.5-4.4-5.1c-2.3,1.1-3.6,1-4.6-0.9c-0.7-1.3-1-2.7-0.4-4
	c1.3-2.6,2.5-0.2,3.8,0.2c2.4,0.7,2.5-1.2,2-2.3c-0.8-2-2.1-3.8-3.4-5.5c-1.4-1.7-3.1-3.8-5.5-3.1c-2.6,0.9-2.6,3.6-2.7,6.1
	c-0.6,9,4.8,15.7,9.1,22.7C109.7,41.9,111,43.1,112.2,42.4z"/>
<path class="st0" d="M166.3,27.6c-0.1,3,0.8,5.4,3.9,6.7c3,1.2,4.6-0.3,6.8-2.2c3.5-3.2,3.2-6.4,1.8-10.2c-0.5-1.3-0.8-2.8-2.4-3
	c-1.8-0.2-2.4,1.1-2.6,2.6c-0.2,2.1-1.3,2.9-3.3,2.2C166.1,22,166.6,25.2,166.3,27.6z"/>
<path class="st0" d="M20.6,26c1.7-1,0.8-2.8,0.2-4.3c-1.1-2.5-2.3-5.1-3.6-7.5c-0.6-1.2-1.4-2.5-3.1-2.5c-1-0.1-1.7,0.5-1.8,1.3
	c-0.4,4.4-0.5,8.9,2.7,12.4C16.2,26.8,18.8,27.1,20.6,26z"/>
<path class="st0" d="M39.3,28.2c0.8,0.2,1.8,0.3,2.1-0.6c1-2.7-0.9-4.9-1.9-7.2c-0.8-2-1.6-4.1-3.8-4.8c-1.2-0.1-1.7,0.4-2.1,1.2
	C32.1,19.7,35.9,27.5,39.3,28.2z"/>
<path class="st0" d="M22.5,17.1c0.5-1.1,2.3-2,3.4-1.5c1.3,0.6,1.3,2.6,1.2,3.9c-0.1,1.1-1.4,3.9,0.3,3.8c1.6,0,1.5-3.2,3-1.1
	c2.2,3-0.5,9-4.2,6.3C24,27,21.2,19.8,22.5,17.1z"/>
<path class="st0" d="M217.9,248.3c0.6,0.1,1.6-0.2,2.1-0.7c1.3-1.3,1.3-3,0.3-4.3c-1.6-2.1-1.6-5.3-4.4-6.7
	c-0.6,0.3-1.2,0.4-1.6,0.8C213,238.7,216.1,248,217.9,248.3z"/>
<path class="st0" d="M217.9,248.3c0.6,0.1,1.6-0.2,2.1-0.7c1.3-1.3,1.3-3,0.3-4.3c-1.6-2.1-1.6-5.3-4.4-6.7
	c-0.6,0.3-1.2,0.4-1.6,0.8C213,238.7,216.1,248,217.9,248.3z"/>
<path class="st0" d="M153.7,132c-0.3-4.5,2.7-27.7-4.1-26.4c-10.1,1.9,3.2,20.8-1.3,22.7c-0.6-2-1.5-3.9-2.9-4.9
	c-1.3-1-2.7-0.9-3.7,0.3c-0.2,0.1-0.4,0.2-0.6,0.3c0,0.3,0,0.7,0,1c-0.3,1.2-0.1,2.6-0.1,3.8c-0.2,3.5-0.3,7.1,0.1,10.6
	c0.2,1.6,1.2,7.8,3.4,7.6l0.1-0.1c0.7,0.6,1.6,1.1,2.5,1.4c7.5,2.2,6.1-5.5,8.5-9.8C157.2,135.6,162.2,129.8,153.7,132z"/>
<path class="st0" d="M167.7,45c0.6-1.5,1.1-2.6,3-2.3c3.4,0.5,2.3,4.4,2.3,6.6c0,2.7-0.8,7,1.9,8.5c4.7,2.7,3-6.6,3.9-9.4
	c1.1-3.6,3.9-7.3,5.5-2.2c0.7,2.2-1.6,12.1,3.4,6.5c2-2.2,0.9-10.1,5.4-10c0.5,0,1.1,0,1.6,0.1c0.2,5,1.8,24.2-7.7,20.5
	c-1.6-0.6-2.7-3.9-4.8-2.7c-2.1,1.1-0.5,6-3.6,7.9c-3.5,2.1-5.6,0.6-7.3-2.4C168,60.7,165.3,50.9,167.7,45z"/>
<path class="st0" d="M110.9,290c0.4-2.9,0.5-6.5,1.6-9.2c1.4-3.5,4.6-3.6,6.1,0.1c0.8,2.1,0.8,4.6,1.6,6.7c1.3,3.6,2.7,0.6,3.6-1.4
	c0.9-1.9,2.6-5.7,5.4-4.7c3.1,1.1,3.6,9.5,3.8,12.2c0.4,5.1,0.8,12.3-6.2,11.8c-0.9-3.3-1.3-6.5-1.4-10c-0.1-1.4,0.7-4.8-1.4-3.8
	c-2.4,1.2-1.9,9-6.2,6.2c-1.7-1.1-1.5-6.4-3.7-5.9c-2.1,0.5-2.3,4.8-3.2,6.3C109.6,296.3,110.6,292.4,110.9,290z"/>
<path class="st0" d="M88.2,150.2c-0.7-5.2,5.4-21.8,10.1-11.2c1.4,3.1,0.7,5.9,0.1,8.8c-0.8,4,0,6.3,0.4,10.1
	c0.4,3.5-0.1,6.4,0.4,9.8c0.4,3-0.2,12.4-4.2,6c-1.4-2.2-1.8-7.7-2.8-10.4C90.6,159,88.8,154.8,88.2,150.2z"/>
<path class="st0" d="M301.2,12.5c2.3-0.2,2.6-3.1,2.9-5.5c-0.2-1.6-0.1-4.1-2.9-3.9c-2.7,0.2-2.6,2.7-2.7,4.5
	C298.3,9.8,298.3,12.8,301.2,12.5z"/>
<path class="st0" d="M475.5,14.4c0.8-1.4,3.4-1.3,4.7-1.8c2.1-0.9,3.5-2.2,5-4.1c1.3-1.7,1.7-2.9,4-3c2.2,0,4,1.5,3.9,3.9
	c-0.2,4.1-5.7,6.8-8.8,7.7C482.5,17.7,473.2,18.8,475.5,14.4z"/>
<path class="st0" d="M502.2,8.9c3.8,2.5-2.8,10.3-5.8,8.6C493.5,15.8,498.4,6.3,502.2,8.9z"/>
<path class="st0" d="M510.6,9.8c5.1-1.4,3.6,5,0.1,6.2C505.6,17.7,505.7,11.1,510.6,9.8z"/>
<path class="st0" d="M430,85.6c-1.7,4.4-2.4,9-4.8,13.3c-1.4,2.5-1.1,6.2,1.4,8.3c3.9,3.4,4.3,7.2,3.4,11.8c-0.6,2.8-1.1,7,2.5,7.4
	c3,0.3,3.4-3.8,3.9-6.5c0.2-1.1,0.2-2.4,0-3.5c-0.6-4.4-0.1-8.8,1.3-12.9c1.6-4.6,1.1-8.9-0.6-13.3c2.2-0.9,2.8,1,3.8,2.1
	c1.3,1.4,2.5,1.9,4.1,0.4c2.4-2.2,4.5-13,3-15.9c-0.7-1.4-1.7-2.1-3.3-2c-1,0.1-1.7,1-1.4,1.6c2.6,5.2-1.6,6.3-4.9,8
	C434.1,79.5,432.2,79.7,430,85.6z"/>
<path class="st0" d="M408.3,86.5c1.3-7.2,0.6-15.2-1.5-19.1c-1.3-2.3-3.2-3.2-5.2-2.3c-2.4,1.1-0.8,3.2-0.4,5
	c0.6,2.8,2.3,4.8,3.5,7.2c0.9,1.9,2.2,4.3-0.1,5.6c-2.2,1.3-4.7-1-4.6-3c0.1-4.8-2.8-8.8-2.1-13.6c0.3-1.9,1-4.5-1.3-4.9
	c-1.8-0.3-2.7,1.9-3.4,3.9c-2.4,7.2,0.7,19.4,6.2,24.8C404.6,95.1,406.8,94.2,408.3,86.5z"/>
<path class="st0" d="M302.6,134.7c-6.9,6.1-7.3,8.2-3.8,16.4c1.3-0.8,2.6-1.8,4-2.6c5.8-3,7.9-7.6,6.1-13.8
	c-0.4-1.4,0.4-1.6,1.1-2.3c4.5-4.2,6.4-11.9,4.3-17.1c-0.6-1.5-1.2-2.8-3.5-2.2c-6.8,1.9-11.6,13.6-7.5,18.9
	C304.5,133.6,303.5,133.9,302.6,134.7z"/>
<path class="st0" d="M321.9,108c-0.9,1-1.5,2.3-2.3,3.4c-3.5,4.2,1.6,8.1,0.5,12.2c-0.5,1.8,0.3,3.1,2,3.7c1.8,0.6,2.9-0.4,3.9-1.9
	c1.7-2.4,3.2-5.2,7.1-4.1c1.3,1.5,0.5,5.3,3.4,4.8c2.5-0.4,2.8-3.5,2.8-6c0-1.6,0.1-3.9,1.5-4.2c6.7-1.5,4.2-6.6,4.5-10.6
	c0.1-1.6-0.3-3.4-2-4c-1.9-0.6-1.9,1.6-2.9,2.4c-0.6,0.5-1.6,1.5-1.8,1.3c-8.1-5.1-5,2.4-6,5.1c-0.6,1.6-0.3,4.3-2.5,4.3
	c-2.8,0-2-2.9-2.3-4.7c-0.2-1.6,0.1-3.5-1.5-4.2C324.3,104.8,323.1,106.7,321.9,108z"/>
<path class="st0" d="M328.4,47.3c3.4-0.4,7.3-1.4,9.6-3.6c1.7-1.6,0.1-5.7-2-7.5c-2.7-2.3-6.9-2-9.6-4.9c-0.6-0.7-1.6,0.7-1.7,1.8
	c-0.2,1.5,0.6,3.2-0.6,4.8c-4.9-1.2-5.9-4.7-5.8-9c0.1-2-0.8-3.6-2.9-3.9c-1.6-0.3-2.5,0.8-3,2.3C309.5,37,318.5,48.5,328.4,47.3z"
	/>
<path class="st0" d="M377.7,141.3c-2.6,5.7-1.5,11.2,0.8,16.6c1.8,4,6,3.2,9,2.4c3-0.8,3-4.1,1.7-6.5c-1.4-2.7-1-4.7,0.5-7.1
	c1.4-2.2,2-4.7,2-7.4c-0.2-1.5-0.2-3.2-0.8-4.6c-0.7-1.8-2.6-2.8-3.3-0.5c-1.1,3.5-3.1,4.5-6.6,4.2
	C379.3,138.2,378.4,139.8,377.7,141.3z"/>
<path class="st0" d="M412.1,41.4c-1,0-2.1-1.1-2.9-1.9c-0.9-0.9-1.5-2-3-1.2c-1,0.6-1.3,1.7-1,2.6c1.5,6.1,2.9,12.3,4.9,18.2
	c1,2.9,4.2,5,7,4.7c3-0.4,2.3-4,2.7-6.4c0.3-2.1,0.9-4.2,1.3-6.3c0-0.4,0-0.8-0.1-1.2C420.4,42.8,419.2,41.7,412.1,41.4z"/>
<path class="st0" d="M270.4,256.1c0.4,2.4,2.2,4,4.7,3.9c2.5-0.1,4.5-2.3,4-4.4c-1.4-5.3,1.1-9.4,3.1-13.8c1-2.2,0.9-4.6,0.1-7
	c-0.6-1.7-0.7-3.8-3-3.9c-2.4-0.1-3.1,1.9-3.7,3.9c-1,3.1,0.7,6.7-1.6,9.7c-1.9-1.2-1.6-2.8-1.2-4.4c0.6-2.3,1.6-5.5-1.6-5.9
	c-3.3-0.4-4.3,3.6-3.6,5.6C269.5,245.3,269.4,250.8,270.4,256.1z"/>
<path class="st0" d="M257.8,69.1c-0.7,2.4-0.9,5-0.9,7.6c0,2.4,1.3,3.7,4,2.9c3.9-1.1,7.7-2.4,9.6-6.5c3.3-7.4,0.9-15,0.6-22.5
	c0-1.2-0.8-2.6-2.1-2.4c-1.2,0.2-1.4,1.7-1.8,2.8c-1.7,4.7,0.3,8.7,2.9,14C262.2,61,259.8,62,257.8,69.1z"/>
<path class="st0" d="M401.7,100.9c-2.5,4.3-1.1,15.2,1.9,18.9c1.2,1.4,2.4,2.9,3.5,4.4c1,1.4,1.2,4.6,3.6,2.4
	c1.9-1.7,2.1-4.5,0.7-6.2c-2.3-2.8-1.5-5.5-0.7-8.7c0.6-2.4,1-5,1.1-7.6c0.1-3.2,0-7.4-2.9-7.7c-2.5-0.2-1,4.3-2.4,6.6
	C405,101.7,404.7,95.9,401.7,100.9z"/>
<path class="st0" d="M452.4,84.4c-0.7-0.5-1.9,1.2-2.3,2.4c-1.6,5.6-2,11.2,1,16.6c1.7,3.1,3.9,3.2,6.2,0.7c5.5-6,9.5-17.6,3.6-24
	C457.6,80.8,458.7,89.1,452.4,84.4z"/>
<path class="st0" d="M340.5,164.1c-1-0.9-2.2,0.1-3,1c-0.8,0.9,0,2.7-1.9,3.4c-1.7-3.6-3.9-6.5-5-10.2c-1-3.6-5.1-5.5-8.2-5.6
	c-2.5-0.1-2.7,3.8-2.4,6.5c-2.9,1.9-2.8-0.6-3.4-2.1c-0.6-1.8-0.8-4.8-3.5-3.5c-4.2,2.1-3.5,6.2-2.5,9.9c0.6,2.3,1.8,2.2,4,1.6
	c4.1-1.2,7.7-4.5,12.4-3.5c0.5,4.9,1,9.8,1.7,14.7c0.2,1.3,0.9,2.9,1.9,3.5c1.5,1,2.5-0.8,3.3-1.8c1.3-1.6,2.1-2.9,4.8-1.8
	c1.8,0.7,2.8-2.2,2.6-3.8C341,169.7,343.1,166.6,340.5,164.1z"/>
<path class="st0" d="M328.2,131.7c-5.9-0.1-13.2,5.9-13.3,11.5c0,3.4,1.9,5.4,4,5.6c7.3,0.2,14.1-5.6,14.4-10.9
	C333.6,134.1,332.6,131.8,328.2,131.7z"/>
<path class="st0" d="M286.6,103.4c-3-1.1-3.4,3.2-5.7,5.4c-0.3-2.5-0.8-4.9-3.2-4.9c-2.2,0-2.9,2.4-3.5,4.3
	c-1.6,4.9-2.1,10-2.1,15.1c0,0.9-0.2,2.1,1.1,2.4c1.2,0.3,1.9-0.6,2.4-1.4c1.2-1.8,2.3-3.7,3.4-5.6c0.6-0.9,0.7-3,2.1-2.4
	c6.1,3,6.2-2.2,7.2-5.2C289.2,108.5,289.8,104.6,286.6,103.4z"/>
<path class="st0" d="M468.5,103.4c-3.3-0.8-5.8-0.3-6.9,3.1c-1.7,5,0.2,11.2,4.8,14.1c2,1.3,4.3,3.1,6.6,2c1.9-1,0.7-3.6,0.9-5.5
	c0.2-2.3,0.8-4.6,0.9-7C474.8,106,474,102.4,468.5,103.4z"/>
<path class="st0" d="M316.9,91.5c-0.6,0.4-1.5,1-2.2,0.9c-3.4-0.3-6,0.6-6.8,4.2c-0.9,3.9-0.4,7.5,2.3,10.5c1.8,2,3.9,2.8,6.3,0.8
	c4-3.4,6.1-7.7,6.9-12.9C322.5,91.7,321.9,88,316.9,91.5z"/>
<path class="st0" d="M414.4,67.5c-2.5,0-2.2,1.8-2.1,3.4c0.2,3.3,1.9,6.5,1.2,10.4c0.1,1.7,0.3,3.8,0.5,6c0.2,1.5,2,2.3,2.5,1.5
	c2.1-3.8,5.9-2.1,8.8-3.2c3.2-1.1,4.5-3.9,3.5-7.1C427.3,73.5,419.5,67.6,414.4,67.5z"/>
<path class="st0" d="M243.6,252.8c2.3-0.7,3.1-3.1,3.3-5.3c0.1-1.4-0.2-2.8-0.4-4.7c1.8-5.8-3.1-9.3-6.4-13.4
	c-2-2.5-3.4-1.4-4.5,1.5c-2.5,7-0.7,13,3.8,18.5C240.5,250.8,241,253.5,243.6,252.8z"/>
<path class="st0" d="M293.9,157c-3.6-1.8-6.4,0.6-8.6,3.5c0.1,0.1,6.5,12.9,6.6,13.2c1.7,6.2,5.4,8.3,10.8,6
	c1.3-3.5,3.4-6.8,1.5-10.7c-0.6-1.2-0.9-2.9-2.7-2.7c-1.7,0.2-1.1,1.8-1.3,2.9c-0.4,1.8,0.2,4.8-2.7,4.2c-1.9-0.4-2-3.1-1.7-5.1
	c0.1-0.8,0.3-1.6,0.5-2.3C297.5,162.4,297.3,158.8,293.9,157z"/>
<path class="st0" d="M330.3,100.2c2.8-2,6-3.2,8.8-4.9c3.1-1.8,0.4-13-3.4-15.6c0,3,0,5.7,0,9.3c-3.9-2.3-3.6-5.7-5.1-8.2
	c-0.8-1.2-1.6-2.4-3.3-1.9c-1.3,0.4-1.6,1.8-1.5,3c0.6,5.3,1.2,10.5,2,15.8C328.1,98.9,328.8,101.3,330.3,100.2z"/>
<path class="st0" d="M357.5,130.1c-1.7,4.1-4.1,8.1-4.7,12.6c-0.3,2.2,0.2,4.9,2.7,5.3c2.6,0.4,1.8-2.4,2.6-3.9c0.5-1,0.2-2.4,1.7-3
	c1.2,3,0.4,5.7-0.5,8.5c-0.7,2.5,0.8,4.1,2.8,5.3c1.2,0.7,1.8-0.4,2.3-1.2c2.5-4.2,0.2-20.1-3.3-23.9
	C359.7,128.3,358.4,127.9,357.5,130.1z"/>
<path class="st0" d="M298.9,200.7c-2.2-2-4.1,0.2-5.8,1.3c-2.3,1.5-5.4,2-6.5,4.9c-3.6,5.6-4,11,1.2,17.6c-0.2-7,7.1-7,8.7-11.7
	c-0.2-2.3,1.5-4,2.1-6.1C299.1,204.8,301,202.6,298.9,200.7z"/>
<path class="st0" d="M213.9,30.8c2.8,0.5,2.2-2.5,2.4-4.3c0.1-0.9,0.2-1.9,0.3-3.8c1.8,2.3,2.5,3.7,2.4,5.3
	c-0.1,3.1,0.1,6.8,3.8,7.1c4.2,0.3,3.3-4.1,4.1-6.7c1.3-4.1,1.2-8.2-4-9.5c-7.1-1.7-12.4,0.9-13.4,6
	C208.6,28.5,211.4,30.3,213.9,30.8z"/>
<path class="st0" d="M490.3,17.8c-2.8,0-1.5,2.6-2.1,4.1c-1.1,2.6-1.4,5.3-1.1,8.4c-0.5,3.5,0.6,7.2,1.6,10.7
	c0.6,2.2,2.3,4.5,5.2,3.9c2.6-0.6,2.9-2.9,2.9-5.2c0.2-6.4-1.6-12.4-3.8-18.4C492.5,19.9,492.2,17.8,490.3,17.8z"/>
<path class="st0" d="M372.5,174.7c1.5-4.2,2.2-8.9,2.9-13.4c0.4-2.4-2.1-5.3-3.4-8c-0.5-1-2.1-2.4-2.7-1c-1.6,4-4.4,7.2-6.2,9.7
	c0.3,4.6,0.1,8.2,2.6,10.8C367.6,174.9,371.7,177.1,372.5,174.7z"/>
<path class="st0" d="M260.8,209.8c-0.1-4.1-2.1-7.6-3.3-11.3c-0.7-2.3-2.2-3.9-4.6-4.1c-1.3-0.1-2.7,0.9-2.8,2.6
	c-0.2,2.5-1.4,5.8,1.7,6.7c3.8,1.1,3.6,3.5,3.9,6.2c0.3,3.4-2.5,2.6-4.5,3.3c-3.9,1.4-3.2,4.5-2.4,7.5c0.6,2,2.4,2.5,3.8,1.4
	C256.6,218.9,260.8,215.6,260.8,209.8z"/>
<path class="st0" d="M363.4,86.9c-1.4,0.2-2,1.6-1.7,2.8c1.1,4.4-1.1,8-2.4,11.9c-1.4,4.2,0.1,8.6,1.8,12.7c0.5,1.3,1.4,2.7,3,2.7
	c2,0,2.5-2,2.9-3.3c1.1-3.9,0.8-7.8,0.4-11.8c-0.3-4.3,0.6-8.8-1.3-12.9C365.6,87.8,364.8,86.6,363.4,86.9z"/>
<path class="st0" d="M232,197.1c-1.2-1.8-3.2-3.8-4.2-0.4c-1.2,4.3-3.1,8.7-2,13.3c0.4,1.8,1,4.8,3.1,4.4c2.9-0.6,0.2-2.8,0.2-4.4
	c0-1.4-0.4-3,1.5-3.4c2-0.4,2.2,1.1,2.4,2.6c0.3,1.9,0.6,3.9,1.2,5.8c0.6,2.2,1.8,4.5,4.5,3.4c2.4-0.9,2.6-3.2,1.7-5.6
	c-1-2.3-1.9-4.7-2.8-7C234.8,203.5,234,200,232,197.1z"/>
<path class="st0" d="M237.7,205.8c0.1,0,0.1,0.1,0.2,0.1L237.7,205.8C237.7,205.7,237.7,205.8,237.7,205.8z"/>
<path class="st0" d="M319,51.3c-1.2-1.2-2.6-2.5-4.1-1.3c-2.7,2-0.7,7-5.7,8.3c-0.9,0.3,0.9,6.5,4,8.8c1.8,1.3,3.7,2.1,6.2,0.9
	c3.6-1.7,2.8-4.8,3-8.5C322.7,56.8,321.6,53.8,319,51.3z"/>
<path class="st0" d="M385.3,61c-1.2-1.5-2.6-3.2-4.1-1.7c-2.7,2.6-0.7,9.1-5.7,10.8c-0.9,0.3,0.9,8.5,4,11.5
	c1.8,1.7,3.7,2.7,6.2,1.2c3.6-2.2,2.8-6.3,3-11C389,68.2,387.9,64.3,385.3,61z"/>
<path class="st0" d="M237.9,205.9c0-0.1,0-0.1,0-0.2c-0.1,0-0.1,0-0.2,0C237.7,205.7,237.9,205.9,237.9,205.9z"/>
<path class="st0" d="M244.6,186.8c-3.2-2.7-6.2-1.6-6.6,2.7c-0.5,5.4-0.1,10.8-0.1,16.2c4.4,0.8,8.3-0.1,9.4-4.7
	C248.5,196.1,249.2,190.8,244.6,186.8z"/>
<path class="st0" d="M290.4,89.5c0.1,2,0,3.9,0.8,5.8c1.3,3.1,2.9,6.1,6.7,6c3.8-0.1,4.4-3.5,5.4-6.3c1.3-3.5-0.5-6.6-0.9-9.9
	c-0.1-0.9-0.9-1.9-2.1-1.7c-1.4,0.2-1.1,1.4-1.2,2.3c-0.2,2-0.2,4-0.5,5.9c-0.1,0.9-0.6,2-1.8,2.1c-1.4,0.1-1.5-1.1-1.9-2
	c-0.6-1.3-0.5-2.6-0.3-4.1c0.3-2.7,2.6-7.3-0.8-7.7c-3.4-0.4-2.7,4.8-3.4,7.7C290.3,88.3,290.4,88.9,290.4,89.5z"/>
<path class="st0" d="M297,259.3c5-2.8,3.4-7.5,2.5-11.6c-0.4-1.9-0.5-5.1-3.3-4.9c-2.5,0.2-1.7,3.1-2,4.9c-0.2,1.3,0.2,3.2-1.8,3.2
	c-1.8,0-1.8-1.8-1.9-3.2c0-1.2,0-2.4,0-3.1c0.4-2.3,1.9-4.9-1.1-5.3c-2.5-0.3-2.3,2.6-3,4.4c-0.9,2.4-0.4,4.7,0.2,7
	C287.5,253.8,295.1,260.4,297,259.3z"/>
<path class="st0" d="M293.8,23.4c1.4,1.3,2-0.2,2.6-1.1c0.6-0.8,1.4-1.6,2.4-0.8c0.8,0.6,1,1.7,0.8,2.8c-0.5,1.9-0.7,3.9-1.4,5.7
	c-0.4,1.1-1.4,2.1-2.4,0.1c-0.6-1.1-1.3-2.5-2.6-1.8c-0.8,0.4-1.2,2-1.1,3.1c0.2,3.1-0.6,7.3,3.2,8.3c3.1,0.9,3.9-3,5-5.4
	c0.6-1.2,1.1-2.5,1.5-3.4c0.3-3.3,0.9-6.2,0.9-9.1c0.1-3.6-1.5-7.7-5-8.1c-3.5-0.4-4.4,3.7-4.8,6.9C293,21.5,293.2,22.9,293.8,23.4z
	"/>
<path class="st0" d="M347.7,40.3c6.7-0.8,6,4.9,8.3,7.8c0.9,1.1,1.5,2.3,2.4,3.4c0.7,0.9,1.6,1.9,3,0.9c1.2-0.9,1-1.9,0.6-3.1
	c-0.8-2-3.1-3.2-3-6.1c2.4,0,6.3,0.9,4.5-3.7c-1.2-3-1.7-7.1-6.9-4.7c-4.2,1.9-8.2,1.1-12.5-1.7C344,36.9,346.1,40.5,347.7,40.3z"/>
<path class="st0" d="M532.9,85.5c0.2,3.1,0.9,6.7,5,7.2c4.3,0.6,5.9-2.7,7.1-6c0.5-1.5,0.6-3.1,0.8-4c-0.4-2.9,0.5-6.5-2.3-6.7
	c-2.9-0.2-1.1,3.5-2.1,5.3c-0.3,0.5-0.4,1.1-0.5,1.7c-0.3,1.2-0.5,2.6-2.1,2.5c-2-0.1-2-1.9-1.9-3.1c0.2-2.3,0.9-4.6,1.2-7
	c0.1-1.1,0.4-2.6-1.2-2.9c-1.5-0.3-2,0.9-2.5,2.1C533.2,78,532.7,81.8,532.9,85.5z"/>
<path class="st0" d="M425.5,60.1c0.2,4.8,0.9,10.2,5,11c4.3,0.9,5.9-4.2,7.1-9.2c0.5-2.2,0.6-4.7,0.8-6.2c-0.4-4.4,0.5-9.9-2.3-10.3
	c-2.9-0.4-1.1,5.4-2.1,8c-0.3,0.8-0.4,1.7-0.5,2.6c-0.3,1.8-0.5,3.9-2.1,3.8c-2-0.1-2-2.8-1.9-4.8c0.2-3.6,0.9-7.1,1.2-10.7
	c0.1-1.6,0.4-4-1.2-4.4c-1.5-0.4-2,1.4-2.5,3.2C425.8,48.7,425.2,54.5,425.5,60.1z"/>
<path class="st0" d="M537.4,65.6c3.2,1.2,4.8-1.7,6.1-3.7c2.4-3.7,3.3-8.1,3.9-12.4c0.3-2.1-0.2-5.2-2.6-5.4
	c-3.2-0.3-2.4,2.9-2.7,4.9c-0.2,1.5,1.1,4.6-1.6,3.9c-6.6-1.7-5.2,3-6.1,5.9C534.3,61.7,534.5,64.5,537.4,65.6z"/>
<path class="st0" d="M479.9,70.3c3.1,1.1,4.6-1.6,5.9-3.6c2.4-3.6,3.2-7.8,3.8-12c0.3-2-0.2-5-2.5-5.2c-3.1-0.2-2.3,2.8-2.6,4.8
	c-0.2,1.4,1.1,4.5-1.6,3.8c-6.4-1.7-5,2.9-5.9,5.7C476.9,66.5,477.1,69.2,479.9,70.3z"/>
<path class="st0" d="M495.1,99c3.2,1.2,4.8-1.7,6.1-3.7c2.4-3.7,3.3-8.1,3.9-12.4c0.3-2.1-0.2-5.2-2.6-5.4c-3.2-0.2-2.4,2.9-2.7,4.9
	c-0.2,1.5,1.1,4.6-1.6,3.9c-6.6-1.7-5.2,3-6.1,5.9C492,95.1,492.2,97.9,495.1,99z"/>
<path class="st0" d="M238.2,250.9c-1.1-2.2-2.4-4.7-5.1-4.3c-2.7,0.4-2.3,3.2-2.6,5.3c-0.1,0.9-0.8,1.7-1.2,2.6
	c-1-0.2-0.9-1.1-1.2-1.8c-0.9-2.1-2.2-4.3-4.9-2.5c-2.2,1.5-1.4,4,0,5.8c1.6,2.2,3.7,2.9,6.2,1c-0.5,5.8,1.5,8.6,6.2,8.3
	c5.5-0.3,3.8-4.7,4.1-7.6C240,255.4,239.3,253,238.2,250.9z"/>
<path class="st0" d="M224.2,227c0.6-0.2,1.2-1.1,1.4-1.7c1.1-3.8-4.3-13.8-8.1-14.8c-2.5-0.6-6-1.4-5.9,2.5
	c0.1,3.6,1.6,7.3,2.7,10.8c0.3,1,1.1,2.3,2.6,1.9c1-0.3,1.6-1.2,1.8-2.2c0.2-1.3,0.2-2.5,0.5-5.6c1.6,3.6,2.5,5.8,3.4,7.9
	C222.8,226.5,223.3,227.3,224.2,227z"/>
<path class="st0" d="M368.7,122.4c-1.7,0-3.7,0.8-3.6,3.6c0,2.3,0.7,4.2,4.1,3.5c3.7-0.8,3.7,1.1,2.1,3.5c-0.9,1.4-1.5,2.7-1.5,4.4
	c0.1,2.2,0.8,4.2,3,4.6c2,0.4,3.3-1.5,3.8-3.2c0.7-2.8,1.6-5.8,1.3-8.6C377.3,125.6,374.8,122.3,368.7,122.4z"/>
<path class="st0" d="M519.5,69.7c-0.9,0.7-2,1.5-3,2.4c-4.5,4.3-5.6,9.8-5.4,15.7c0.1,2.2-0.8,5.3,2.5,5.7c3,0.4,4.3-2.5,4.7-4.6
	c0.9-5.8,1.1-11.7,3-17.3C521.6,70.7,521.3,69.6,519.5,69.7z"/>
<path class="st0" d="M500.3,27.6c-0.1,3,0.8,5.4,3.9,6.7c3,1.2,4.6-0.3,6.8-2.2c3.5-3.2,3.2-6.4,1.8-10.2c-0.5-1.3-0.8-2.8-2.4-3
	c-1.8-0.2-2.4,1.1-2.6,2.6c-0.2,2.1-1.3,2.9-3.3,2.2C500.1,22,500.6,25.2,500.3,27.6z"/>
<path class="st0" d="M260.7,241.5c0.9,0.8,2.1,1,2.6,0c1.5-3.2,6-6,1.8-10.3c-1.1-1.1-1.8-2.6-2.4-4c-0.7-1.5,0.7-4.2-1.7-4.5
	c-2.6-0.3-3.4,2.4-4.3,4.4c-0.7,1.6-1.2,3.3-1.5,4.3C255,236.4,257.8,239,260.7,241.5z"/>
<path class="st0" d="M258.9,33.8c-1.5-0.1-1.6,2.4-1.6,3.7c-0.2,4.4,2,6.6,5.8,6.1c3.7-0.5,5.6-3.8,7.2-6.7c1.5-2.8-0.1-5.8-1.3-8.4
	c-0.5-1.2-2.3-1.7-2.9-0.3C264.9,31.5,263.4,34,258.9,33.8z"/>
<path class="st0" d="M307.2,71.9c-1.2-0.1-1.7,0.9-1.8,1.9c-0.2,1.2-0.2,2.3-0.3,4c0.9,2.9-0.7,8.3,5.4,7.9c2.1-0.1,4.6-1.1,6.8-1.8
	c4.3-1.3,6-4.4,5.2-8.7c-0.2-1.1-0.4-2.5-2-2.6c-1.6-0.1-2,1.1-2.1,2.3c-0.5,5.9-5.2,2.8-8,3.3c-3.2,0.6-2.5-2-2.2-4
	C308.6,73.2,308.5,72,307.2,71.9z"/>
<path class="st0" d="M303.9,47.2c1.1,1.9,2,3.4,4.2,0.5c6.1-7.9,5.9-10-3.4-16.4C305.2,37.3,301,42,303.9,47.2z"/>
<path class="st0" d="M344.5,130.3c-2.7-2.6-4.7,0.4-6.2,2.2c-2.3,2.6-2.2,5.3,0.3,7.8c2,2,4.3,2.1,6.4,0.2c2-1.9,3.8-4,5.7-6
	c3.4-2.3,4.7-5.9,5.8-9.4c1.3-4.2-0.9-7-4.7-8.3c-2.3-0.8-4.4,0.3-5.3,2.7c-0.7,1.6-0.4,3.7,1.2,4c8.4,1.2,2.7,4.6,1.4,7.3
	C347.5,131.3,346.4,132.1,344.5,130.3z"/>
<path class="st0" d="M284,35.7c-0.6,1.3-1.4,2.6-3.2,2.2c-2-0.4-1.1-2.2-1.3-3.5c-0.4-1.6,0.6-3.6-1.8-5.4c-1.9,3.2-1.3,6.2-1,9.4
	c0.4,4.9,3.1,5.7,7.3,5.4c4.6-0.3,4-3.7,4.3-6.5c0.2-1.7,0.7-4.2-1.1-4.9C284.6,31.5,284.7,34.2,284,35.7z"/>
<path class="st0" d="M291.6,224.9c-3.4-0.1-4,3.8-4,6.4c-0.1,4.7,4.5,6.5,7.6,7.3c2.8,0.7,2.2-3.4,2.7-5.6
	C297.3,229.1,296.3,225,291.6,224.9z"/>
<path class="st0" d="M493.8,70.5c0.3,1,0.7,2.5,2.3,2.3c0.6-0.1,1.3-0.9,1.6-1.6c2.5-4.8,0-15.9-5-20.5
	C491.2,58,491.6,64.3,493.8,70.5z"/>
<path class="st0" d="M524,90.9c2.3,0.8,2.9-1.6,3.6-3.1c2.2-4.8,1.5-10.1,2.6-14.6c0.8-2,0.3-3.6-1.2-3.8c-1.4-0.2-2.3,1.4-2.7,2.8
	c-1.2,4.6-2.3,9.1-4.6,13.4C520.7,87.7,521.7,90.1,524,90.9z"/>
<path class="st0" d="M278,56.1c-0.6,4.2-0.5,8.2,1.9,12c0.8,1.2,1.8,2,3.3,1.9c1.8-0.2,2.2-1.5,2.3-2.8c0.4-4,0.9-7.9,1.2-11.9
	c0.2-2.1,1.2-4.4-1-6.1c-0.3-0.2-1.4,0-1.8,0.4c-1.9,1.8-1.7,3.9-0.9,6.2c0.3,0.8,0.4,1.6,0.8,2.8C280.4,60,280.7,56.1,278,56.1z"/>
<path class="st0" d="M260.8,288.9c5-1.1,3.8-6.7,4.5-10.6c0.6-3.2,0-6.4-0.7-9.4c-1.5-6.4-5.8-8.7-12.1-7.1
	c-1.1,2.9,0.3,4.9,2.4,6.7c1.5,1.3,3.1,2.6,4.4,4c1.4,1.4,2.7,3.1,1.9,5.3c-0.5,1.5-1.8,2.1-3.4,1.9c-2.4-0.2-4.1-1.6-5-3.7
	c-2.2-4.9-3.7-9.9-2.7-15.4c-4.1-1.6-5.1,1.6-5.8,4.1c-1.9,7.1,1.3,13.2,5.1,18.7C251.9,287,256.6,289.8,260.8,288.9z"/>
<path class="st0" d="M383,124.4c2.2,0.5,3.6-1.4,5.1-2.7c3.6-3.3,3.1-7.3,1.6-11.7c-1.6,2.8-4.1,3.5-6.7,4.6
	c-2.3,0.9-2.7,3.2-2.5,5.5C380.5,121.9,381,124,383,124.4z"/>
<path class="st0" d="M354.6,26c1.7-1,0.8-2.8,0.2-4.3c-1.2-2.5-2.3-5.1-3.6-7.5c-0.6-1.2-1.4-2.5-3.1-2.5c-1-0.1-1.7,0.5-1.8,1.3
	c-0.4,4.4-0.5,8.9,2.7,12.4C350.2,26.8,352.8,27.1,354.6,26z"/>
<path class="st0" d="M462.6,38.4c0.7,1.8,0.7,4.6,3.1,4.4c3.3-0.3,1.5-3.4,1.9-4.8c0.2-4.1-0.8-7.5-2.5-10.7
	c-0.7-1.2-1.2-2.8-2.9-2.5c-2.1,0.4-1.8,2.3-1.8,3.8C460.4,32.1,461.5,35.3,462.6,38.4z"/>
<path class="st0" d="M443.1,114.7c1.7-3.2,2.2-6.7,2.5-8.8c0.2-3.9,0.2-6.3-1.3-8.3c-1.2-1.6-3.1-1.3-3,0.3
	c0.1,5.4-1.9,10.5-2.1,15.8c0,0.9,0,2.1,1.1,2.5C441.7,116.7,442.5,115.7,443.1,114.7z"/>
<path class="st0" d="M350.4,150.3c-0.3-1.6-0.7-3.3-2.5-3.6c-2.2-0.4-3.2,1.2-3.8,3.1c-1.3,4.4-1,8.5,2.4,12
	c-0.1,4.4,3.5,5.4,6.7,6.2c4.4,1,5.7-3.4,7.3-5.8c1.5-2.3-0.5-5.4-3-6.9c-3-1.9-4.7,0.3-6,2.8C349.2,155.7,350.9,152.9,350.4,150.3z
	"/>
<path class="st0" d="M287.3,264.5c-0.5-3.2-2.3-5.7-6-6.8c-4.6,2.9-0.2,6.8-1.3,10.1c-0.5,1.7,0.3,3.7,2.2,3.1
	C285.2,270,287.8,267.9,287.3,264.5z"/>
<path class="st0" d="M484.1,32.6c0-3.1-0.1-7.1-4.2-7.3c-3.2-0.2-2.4,3.4-2.9,5.8c0.7,2.4-0.8,6.4,3.4,6.9
	C484.2,38.5,484.1,35,484.1,32.6z"/>
<path class="st0" d="M223.3,276.6c1.7,0.5,2.2-2.6,1.9-4.2c-0.7-3.7-0.6-8.5-5-9.8c-2.6-0.8-1.7,2.7-1.9,4.2
	C218.2,271.1,219,275.2,223.3,276.6z"/>
<path class="st0" d="M230.9,218.7c-2.1,0.2-2.5,2-2.3,3.5c0.3,3.7,0.9,7.3,1.3,10.9c3.3-3.6,6.9-6.9,4.7-12
	C233.9,219.6,232.8,218.5,230.9,218.7z"/>
<path class="st0" d="M261.1,255.7c0.7,1.8,0.7,4.8,2.9,4.5c2.6-0.4,3-3.3,3.1-5.9c-0.1-0.8-0.1-1.8-0.5-2.7
	c-0.9-1.8,1.1-5.7-2.8-5.2c-3.6,0.5-4,3.9-3.4,7C260.6,254.2,260.9,255,261.1,255.7z"/>
<path class="st0" d="M348.6,98.9c1.2,3.3,2.6,6.5,5.8,9c3-4.2,1.8-7.9-0.2-11.3c-0.9-1.6-2.5-3.5-4.8-2.3
	C347.4,95.2,347.9,97.2,348.6,98.9z"/>
<path class="st0" d="M475.2,43c-0.5,0.4-1.1,0.6-1.5,1.1c-1.3,1.7-1.8,3.6-0.7,5.6c1.3,2.4,1.6,5.4,4.3,6.9c0.4,0.2,1.2-0.1,1.7-0.4
	c1.8-1.1,2.4-2.8,1.4-4.6C478.7,48.7,478.5,45,475.2,43z"/>
<path class="st0" d="M373.2,28.2c0.8,0.2,1.8,0.3,2.1-0.6c1-2.7-0.9-4.9-1.9-7.2c-0.8-2-1.6-4.1-3.8-4.8c-1.2-0.1-1.7,0.4-2.1,1.2
	C366,19.7,369.9,27.5,373.2,28.2z"/>
<path class="st0" d="M276.4,77c-2.7-1-4.9,3.3-6.7,5.8c-0.6,0.8-0.7,1.8-1.1,2.7c-2.1,3.2-1.3,6.8-1.1,10.3c0.1,1.8,0.4,3.8,2.4,4.3
	c2.5,0.6,4.2-0.7,4.8-3.2c2.1-3.9,0.1-8.2,1.2-12.2C276.7,82.1,279.2,78,276.4,77z"/>
<path class="st0" d="M238.5,43c-3,0.4-3.6,3.3-3.1,7c0.4,1.2-1,4.9,2.6,4.8c4.2-0.2,3.2-4.3,3.5-7C241.6,45.6,241.4,42.6,238.5,43z"
	/>
<path class="st0" d="M472.8,33c1.8,0.7,2.1-1.9,1.8-3.4c-0.6-3.5,0.3-8.2-4.1-9.6c-2.5-0.8-1.6,2.4-2.1,4.1
	C469.2,27.4,469,31.5,472.8,33z"/>
<path class="st0" d="M416.7,124c-2.9,1.9,0.2,4.6,0.4,6.9c0.1,1,0.6,1.9,0.8,2.8c0.3,1.4,0.8,3,2.4,3c1.9,0,1.5-1.9,1.8-3.2
	c0.5-2.2-0.4-4.7,1.1-6.8C421,125.6,419.4,122.2,416.7,124z"/>
<path class="st0" d="M231.1,57.3c-1.5,0.6-1.9,2.5-1.8,4.8c0.1,0.3,0,1.6,0.6,2.2c1.6,1.6,1,6.1,4.9,4.4c3.2-1.4,2.2-4.2,0.6-6.5
	c-0.4-0.6-0.7-1.4-1-2.1C233.7,58.6,233.3,56.5,231.1,57.3z"/>
<path class="st0" d="M337.6,147.3c-4.1,0.2-3.8,3.8-4.3,5.7c-0.3,3.3,0.5,6.1,2.9,5.7c3.6-0.6,3.3-4.5,3.6-7.3
	C340,149.6,340.1,147.2,337.6,147.3z"/>
<path class="st0" d="M278.1,147.8c-2.3-0.6-2.5,2.1-2.3,3.8c0.4,2.8,0.2,6.4,3.9,7c2.2,0.4,1.6-2.1,1.9-3.7
	C281.1,152.4,281.7,148.7,278.1,147.8z"/>
<path class="st0" d="M217.9,248.3c0.6,0.1,1.6-0.2,2.1-0.7c1.3-1.3,1.3-3,0.3-4.3c-1.6-2.1-1.6-5.3-4.4-6.7
	c-0.6,0.3-1.2,0.4-1.6,0.8C213,238.7,216.1,248,217.9,248.3z"/>
<path class="st0" d="M228.8,37.9c-2.3,0-2.1,2-2.2,3.5c-0.2,3.7,0.8,6.9,5.4,10.6c-0.2-4.6-0.2-7.7-0.5-10.7
	C231.3,39.7,230.8,37.9,228.8,37.9z"/>
<path class="st0" d="M391,125.5c0,2.9,1.6,4.5,4.4,4.6c3.4-0.7,5.2-2.4,5-5.7c-0.2-2.7-1.4-4.9-4.6-4.6
	C392.5,120.1,391,122.4,391,125.5z"/>
<path class="st0" d="M241.4,220.2c-2.1-0.4-3.6,0.8-3.3,3c0.4,2.8,2.4,4.6,5.1,5c2.2,0.3,2.2-1.8,2.6-3.3
	C245.7,222.2,243.9,220.6,241.4,220.2z"/>
<path class="st0" d="M251.2,251.7c3.2-1.4,2-5.8,3.6-8.7c0.6-1.1-0.7-2.6-1.9-2.1c-2.8,1.2-4.4,3.3-4.2,5.5
	C248.7,249.3,249.1,252.6,251.2,251.7z"/>
<path class="st0" d="M254.1,72.5c0.3-0.9,0.8-1.9,0.7-2.7c-0.3-3.3-1.4-8.4-4.1-8.2c-3.8,0.3-1.3,5-1.7,7.8c0,0.2,0.1,0.4,0.1,0.6
	c-0.1,1.6-0.4,3.2-0.2,4.7c0.3,2.3,0.6,5.9,2.8,5.9c3.3,0,1.7-3.7,2.2-5.8C254.1,74.1,254,73.3,254.1,72.5z"/>
<path class="st0" d="M242.3,59.2c-3.1,0.2-3.8,4-3.2,7.2c-0.8,2.5,1.5,7.9-5.1,5c-1.9-0.8-2.1,1.2-2.1,2.6c0,2.9,1.4,5,4.4,5.7
	c2.9,0.7,5.2-0.4,6.6-3c1.2-2.3,1.4-4.9,1.5-7.5c0.2-1.1,0.8-2.4,0.5-3.4C244.2,63.4,245.2,59.1,242.3,59.2z"/>
<path class="st0" d="M309.1,159c-0.3-2.1-0.2-4.8-3.1-5c-2.2-0.1-2.8,2.3-3,3.8c-0.4,2.7,2.3,3.5,4.2,4
	C309.3,162.4,308.8,160.2,309.1,159z"/>
<path class="st0" d="M248.9,235.5c2.9,0,3.1-2.6,3.8-4.3c0.2-2.1-0.5-3.7-2.5-3.5c-2.5,0.2-3.8,2.1-4,4.5
	C246.1,234,247,235.5,248.9,235.5z"/>
<path class="st0" d="M224.1,235.8c-2.2-0.4-1.9,1.9-2.1,3.6c0.4,1.9-0.2,4.7,2.5,5.1c1.6,0.3,2.5-1.8,2.4-3.4
	C226.8,238.9,226.6,236.2,224.1,235.8z"/>
<path class="st0" d="M281,97.4c3.9,1.6,3.9-2.3,4.5-4.8c0.5-4,0.9-8.1,1.5-12.1c0.3-1.6,0.6-3.6-1.2-4c-2.4-0.6-2.6,1.9-3.1,3.4
	c-1,3.4-1.7,6.8-2.5,10.2C278.1,92.8,277.8,96.1,281,97.4z"/>
<path class="st0" d="M339.4,184.3c-1.7-1.3-3.4-1.5-5.2,0c-0.6,3.2-0.6,7.7,2.9,7.8c3.8,0.1,2.2-4.5,2.4-7.2
	C339.5,184.7,339.5,184.5,339.4,184.3z"/>
<path class="st0" d="M259.5,52.6c-2.4,0.5-2.6,3.3-3,5.4c-0.3,1.5,0.9,2.8,2.5,2.6c2.4-0.3,3.3-2,3.2-4.4
	C261.7,54.8,262,52.1,259.5,52.6z"/>
<path class="st0" d="M271.2,271.3c-0.2,1.5,1,2.7,2.6,2.4c2.5-0.5,3.2-2.7,3.4-4.9c0.1-1.4-0.4-2.7-2.3-2.9
	C272.4,266.8,271.5,269,271.2,271.3z"/>
<path class="st0" d="M294,55.2c2.1-0.2,2.4-2.3,2.4-4.7c-0.8-1.1,0.3-4.2-2.4-4c-2,0.2-2.2,2.9-2.3,4.9
	C291.7,53,291.4,55.4,294,55.2z"/>
<path class="st0" d="M537.5,47.6c2.3-0.2,2.1-2.9,2.4-4.8c-0.2-1.7-0.2-4.4-2.2-4.2c-2.3,0.2-2.1,3-2.2,4.9
	C535.5,45.1,535.2,47.8,537.5,47.6z"/>
<path class="st0" d="M326.3,184.6c-1.8,1.7-2.3,3.5-0.9,5.6c0.8,1.1,1.8,0.5,2.5-0.1c2.4-1.9,1.1-3.7-0.2-5.5
	C327.3,184.6,326.8,184.6,326.3,184.6z"/>
<path class="st0" d="M290.2,200.4c3.9-2.4,8.3-4.6,8-10.2c-0.1-3.3-1.3-5.1-5.1-6c-3.6-0.8-5.1,2.5-7.3,2.5c-7.9,0-6.6,4.9-5.8,9.4
	C281.7,205.1,282.2,205.3,290.2,200.4z"/>
<path class="st0" d="M281.9,165.2c-3.3-1.5-5.9-1.5-6.9,2.6c-6.5,7.1,6.4,5.9,5.1,11.2c-0.2,1,2.8,2,4.7,1.8
	c0.7-0.1,1.4-0.7,1.9-1.2C290.4,175.4,287.4,166.6,281.9,165.2z"/>
<path class="st0" d="M318.9,212.8c3.2-1.3,3.9-4.5,4.1-7.4c0.1-2.6-0.4-5.4-3.8-6.3c-1.7,2.8,0.9,6.2-2.1,8.6
	c-1.4-0.9-1.6-2.3-1.8-3.6c-0.4-1.6-0.9-3-2.9-3.3c-1.9-0.3-3,0.6-3.9,2.1c-1,1.6-1.6,3.4-0.1,4.9c1,1.1,2.8,1.7,3.7,2.9
	C313.9,213.3,316.2,213.9,318.9,212.8z"/>
<path class="st0" d="M326.2,197.8c0.6,3,1.7,6.6,5.8,6.6c3.1,0,4.2-2.7,5-5.8c-1.1-2.7-3.3-4.8-6.6-4.9
	C328,193.6,325.6,195.2,326.2,197.8z"/>
<path class="st0" d="M345.4,202.8c0.5-1.1-0.7-2.7-1.8-2.3c-3,1.1-4.9,3.8-6.2,6.5c-0.5,1.1,1,1.9,2.6,2
	C342.6,207.9,344.2,205.4,345.4,202.8z"/>
<path class="st0" d="M395.4,39.4c-2.3-0.8-5-2-7.7,4c-2.4,5.4-2.2,10.2-0.3,13c0.9,1.3,2.1,2.3,3.5,2.5c3.8,0.5,8.3,0.9,11.8-8.4
	c3.3-9-2.1-7.6-3.7-9.3C397.2,40.3,396.3,39.7,395.4,39.4z M397.6,48.7c-1.5,3.9-3,3.4-4.3,3c-1.4-0.4-2.4-2.2-1.1-5.3
	c1.6-3.8,3.5-3,5-3C398.9,43.5,398.3,46.2,397.6,48.7z"/>
<path class="st0" d="M412.4,162.1c5-1.1,3.8-6.7,4.5-10.6c0.6-3.2,0-6.4-0.7-9.4c-1.5-6.4-5.8-8.7-12.1-7.1
	c-1.1,2.9,0.3,4.9,2.4,6.7c1.5,1.3,3.1,2.6,4.4,4c1.4,1.4,2.7,3.1,1.9,5.3c-0.5,1.5-1.8,2.1-3.4,1.9c-2.4-0.3-4.1-1.6-5-3.7
	c-2.2-4.9-3.7-9.9-2.7-15.4c-4.1-1.6-5.1,1.6-5.8,4.1c-1.9,7.1,1.3,13.2,5.1,18.8C403.4,160.2,408.2,163.1,412.4,162.1z"/>
<path class="st0" d="M485.4,100c5-1.1,3.8-6.7,4.5-10.6c0.6-3.2,0-6.4-0.7-9.4c-1.5-6.4-5.8-8.7-12.1-7.1c-1.1,2.9,0.3,4.9,2.4,6.7
	c1.5,1.3,3.1,2.6,4.4,4c1.4,1.4,2.7,3.1,1.9,5.3c-0.5,1.5-1.8,2.1-3.4,1.9c-2.4-0.3-4.1-1.6-5-3.7c-2.2-4.9-3.7-9.9-2.7-15.4
	c-4.1-1.6-5.1,1.6-5.8,4.1c-1.9,7.1,1.3,13.2,5.1,18.7C476.5,98.1,481.2,100.9,485.4,100z"/>
<path class="st0" d="M271.7,202.6c-1.2-0.2-1.2,1.3-1.5,2.2c-0.2,0.9-0.7,1.4-1.5,1.8c-1.8,0.9-3.5,0.1-4.6-1.8
	c-1-1.8-0.4-4.7-0.8-6.8c-0.5-2.4-1.6-4.7-1.9-7.2c-0.4-3.2,2.3-3.6,4.3-4.7c1.1-0.6,2-1.3,2.7-2.4c0.6-1,0.8-2,1.7-2.7
	c1.4-1.1,3.6-1.1,4.7,0.7c1.3,2.3,1.2,6.1,1.1,8.7c-0.1,1.7-0.2,3.7,0.4,5.3c0.2,0.5,0.4,1,0.7,1.4c0.4,0.5,1.1,0.6,1.5,1.1
	c1.4,1.5-0.3,5.3-1.9,5.9c-0.9,0.4-1.7,0.1-2.5-0.4c-1.1-0.7-2.2-1-3.4-1.5"/>
<path class="st0" d="M272.3,220.6c0-2.3,0.1-4.6,0-6.9c-0.1-1.3,0.1-3-2-3.1c-1.7-0.1-2.8,1-3,2.4c-0.5,5.3-0.8,10.6-1,15.9
	c0,0.5,0.1,1.1,0.3,1.5c0.2,0.6,0.5,1.1,0.9,1.5c1,1,3.6,0.7,4.2-0.6c0.7-1.5,0.5-3.9,0.7-5.5C272.6,224,272.4,222.3,272.3,220.6z"
	/>
<path class="st0" d="M309.1,212.7c-2.7-1.8-5.5-3.8-8.1-1.2c-0.8,0.3-1.4,0.7-1.6,1.3c-0.5,1.6,2.8,3.3,4.3,3.2
	c-0.6,2.9-2.7,6.2,0.7,8.4c3.1,2,4.4-1.3,5.8-3.2C310,218.4,317.8,214.6,309.1,212.7z"/>
<path class="st0" d="M260.9,18.8c-1.6-4.3-5.7-4.9-7.8-0.8c-1.6,3-2.4,7.7-2.4,11.2c0,1.8,0.5,3.9,2.5,4c2.8,0,2.6-4.1,4.1-5.7
	c1.2-1.3,3.1-2.4,3.9-4.2C262,21.8,261.5,20.4,260.9,18.8z"/>
<path class="st0" d="M224.7,50.6c-0.4-1.6-0.6-3.3-1-4.9c-0.2-0.7-0.5-1.3-0.8-1.9c-0.2-0.5-0.4-1-0.7-1.5c-0.3-0.4-0.6-0.9-1-1.2
	c0,0-0.1,0-0.1-0.1c-0.3-0.2-0.6-0.3-0.9-0.3c0,0-0.1,0-0.1,0v0c-0.3,0-0.6,0-0.9,0.1c-2.3,0.5-1.9,3.2-2,5.9
	c0.4,3.3,1.3,7.1,4.7,9.8c0.6,0.5,1.7,0.7,2.1,0.2c0.3-0.2,0.5-0.6,0.6-1C225.3,54.2,225.1,52.3,224.7,50.6z"/>
<path class="st0" d="M370.7,76.6c-0.4-1.4-1.2-2.8-2.5-3.9c-0.7-0.6-1.7-0.2-1.9,0.6c-0.5,2.3-0.3,4.3,0.7,6.1l0,0
	c0.2,0.6,0.6,1.1,0.9,1.6c0.3,0.5,0.6,0.9,1,1.3c0.5,0.4,1,0.7,1.6,0.7c0.8-0.1,1-0.9,1.1-1.7C371.8,79.8,371.6,78,370.7,76.6z"/>
<path class="st0" d="M398.9,98.7c-0.1-0.6-0.2-1.3-0.3-1.9c-0.1-0.6-0.2-1.1-0.4-1.7c-0.1-0.4-0.2-0.8-0.5-1.2
	c-0.1-0.1-0.2-0.2-0.3-0.3c-0.5-0.6-1.1-1-2.1-1.3c-2.3-0.6-2.5,2.1-2.3,3.8c0.4,2.8,0.2,6.4,3.9,7c1.1,0.2,1.5-0.3,1.7-1.1
	c0-0.1,0.1-0.2,0.1-0.3c0.2-0.5,0.1-1,0.1-1.5C398.9,99.8,399,99.2,398.9,98.7z"/>
<path class="st0" d="M390.1,102.9c-0.1-1-0.4-2-0.7-2.9c-0.4-1.1-0.8-2.1-1.4-3c-0.2-0.7-0.5-1.3-0.8-1.9c-1-2.6-1.9-5.9-4.7-6.6
	c-2.5-0.6-2.7,3.3-4.6,4.6c-0.5,0.3-0.6,1-1.1,1.4c-6.9,5.2-8.9,14.7-4.7,22c0.6,1.1,1.1,2.3,2.6,2.1c1.6-0.2,1.4-1.7,1.4-2.8
	c0-1,0.2-2-0.1-3c-1.9-5.7,3.4-6.7,6.3-9.3c1.1-1,2-1,2.7-0.6c0.2,0.2,0.4,0.4,0.6,0.6c0.3,0.3,0.6,0.6,0.9,0.9
	c0.4,0.5,0.8,0.9,1.4,1.1c0.5,0.2,1.3,0.4,1.7,0C390.1,105,390.2,103.6,390.1,102.9z"/>
<path class="st0" d="M277.1,212.8c-1.7-1.2-4,0.8-3.3,1.7c2.9,3.3,0.5,6.1-0.3,9.1c-0.2,0.4-0.3,1.1-0.4,1.5c-0.1,0.5,0,1.1,0,1.6
	c0,0.3,0.1,0.6,0.2,0.9c0.1,0.2,0.2,0.3,0.3,0.3c0.2,0.3,0.6,0.4,1.5,0c3.1-1.3,5.1-4.4,5.8-7.8
	C281.6,216.9,279.5,214.6,277.1,212.8z"/>
<path class="st0" d="M426.9,124.5c0.2,0,0.3-0.1,0.5-0.2c2.4-1.7,1.6-4.9,0.5-6.9c-4.2-8.2-8.4-16.1-5.3-25.6c0.1-0.2,0-0.4-0.1-0.6
	c-0.1-1.3-0.8-2.6-2-2.6c-1.3,0-1.7,1.3-2,2.5c-2.2,7.3-2.7,14.4,0,21.9c1.3,3.7,4,6.6,5.6,10C424.8,124,425.6,124.8,426.9,124.5z"
	/>
<path class="st0" d="M213.9,30.8c2.8,0.5,2.2-2.5,2.4-4.4c0.1-0.9,0.2-1.9,0.3-3.8c1.8,2.3,2.5,3.7,2.4,5.3
	c-0.1,3.1,0.1,6.8,3.8,7.1c4.2,0.3,3.3-4.1,4.1-6.7c1.3-4.1,1.2-8.2-4-9.5c-7.1-1.7-12.4,0.9-13.4,6
	C208.6,28.5,211.4,30.3,213.9,30.8z"/>
<path class="st0" d="M490.3,17.8c-2.8,0-1.5,2.6-2.1,4.1c-1.1,2.6-1.4,5.3-1.1,8.4c-0.5,3.5,0.6,7.2,1.6,10.7
	c0.6,2.2,2.3,4.5,5.2,3.9c2.6-0.6,2.9-2.9,2.9-5.2c0.2-6.4-1.6-12.4-3.8-18.4C492.5,19.9,492.2,17.8,490.3,17.8z"/>
<path class="st0" d="M293.8,23.4c1.4,1.3,2-0.2,2.6-1.1c0.6-0.8,1.4-1.6,2.4-0.8c0.8,0.6,1,1.7,0.8,2.8c-0.5,1.9-0.7,3.9-1.4,5.7
	c-0.4,1.1-1.4,2.1-2.4,0.1c-0.6-1.1-1.3-2.5-2.6-1.8c-0.8,0.4-1.2,2-1.1,3.1c0.2,3.1-0.6,7.3,3.2,8.3c3.1,0.9,3.9-3,5-5.4
	c0.6-1.2,1.1-2.5,1.5-3.4c0.3-3.3,0.9-6.2,0.9-9.1c0.1-3.6-1.5-7.7-5-8.1c-3.5-0.4-4.4,3.7-4.8,6.9C293,21.5,293.2,22.9,293.8,23.4z
	"/>
<path class="st0" d="M500.3,27.6c-0.1,3,0.8,5.4,3.9,6.7c3,1.2,4.6-0.3,6.8-2.2c3.5-3.2,3.2-6.4,1.8-10.2c-0.5-1.3-0.8-2.8-2.4-3
	c-1.8-0.2-2.4,1.1-2.6,2.6c-0.2,2.1-1.3,2.9-3.3,2.2C500.1,22,500.6,25.2,500.3,27.6z"/>
<path class="st0" d="M354.6,26c1.7-1,0.8-2.8,0.2-4.3c-1.2-2.5-2.3-5.1-3.6-7.5c-0.6-1.2-1.4-2.5-3.1-2.5c-1-0.1-1.7,0.5-1.8,1.3
	c-0.4,4.4-0.5,8.9,2.7,12.4C350.2,26.8,352.8,27.1,354.6,26z"/>
<path class="st0" d="M373.2,28.2c0.8,0.2,1.8,0.3,2.1-0.6c1-2.7-0.9-4.9-1.9-7.2c-0.8-2-1.6-4.1-3.8-4.8c-1.2-0.1-1.7,0.4-2.1,1.2
	C366,19.7,369.9,27.5,373.2,28.2z"/>
<path class="st0" d="M327.4,27.3c-1.5-1.1-3.3-3-4.1-4.8c-0.9-2.1-3.5-8.2,0.5-8.5c3.5-0.3,4.2,4.2,6.4,6.1c1.4,1.2,2.4,0.7,3-1.2
	c0.5-1.8-0.1-2.8,1.6-4c4.4-3.3,6.4,4.4,6.5,8c0.1,3.3-1.8,7.6-5.2,8.1C333.2,31.3,329.6,28.9,327.4,27.3z"/>
<path class="st0" d="M356.5,17.1c0.5-1.1,2.3-2,3.4-1.5c1.3,0.6,1.3,2.6,1.2,3.9c-0.1,1.1-1.4,3.9,0.3,3.8c1.6,0,1.5-3.2,3-1.1
	c2.2,3-0.5,9-4.2,6.3C357.9,27,355.2,19.8,356.5,17.1z"/>
<path class="st0" d="M394.7,13.3c0.3-1.5,0.9-5,2.7-5.1c2.7-0.2,2.4,4.6,2.4,6.5c0,2.5-1.1,10.3,2.9,6.6c1.2-1.1,2.1-2.1,4.2-1.6
	c2.5,0.6,3.9,4.7,3.1,7.1c-1.4,4.2-8.4,3.4-11.2,1.4C394,24.9,393.7,18.8,394.7,13.3z"/>
<path class="st0" d="M384.7,33.2c-2.4-4.7-4.2-9.2-1.9-14.5c1-2.4,2.2-5.6,5-5.9c2.3-0.2,3.2,2.7,3.1,4.9c0,2.7-2.5,7.2,0.2,9.2
	c1.9,1.3,4.5,0.9,5.8,3.4c0.7,1.3,0,3.2-1,4.1c-1.3,1.2-2.1,0.6-3.6,0.6c-1.6,0.1-2.8,1.5-4.4,1.4C386.3,36.3,385.4,34.6,384.7,33.2
	z"/>
<path class="st0" d="M501.7,45c0.6-1.5,1.1-2.6,3-2.3c3.4,0.5,2.3,4.4,2.3,6.6c0,2.7-0.8,7,1.9,8.5c4.7,2.7,3-6.6,3.9-9.4
	c1.1-3.6,3.9-7.3,5.5-2.2c0.7,2.2-1.6,12.1,3.4,6.5c2-2.2,0.9-10.1,5.4-10c0.5,0,1.1,0,1.6,0.1c0.2,5,1.8,24.2-7.7,20.5
	c-1.6-0.6-2.7-3.9-4.8-2.7c-2.1,1.1-0.5,6-3.6,7.9c-3.5,2.1-5.6,0.6-7.3-2.4C501.9,60.7,499.2,50.9,501.7,45z"/>
<path class="st0" d="M422.2,150.2c-0.7-5.2,5.4-21.8,10.1-11.2c1.4,3.1,0.7,5.9,0.1,8.8c-0.8,4,0,6.3,0.4,10.1
	c0.4,3.5-0.1,6.4,0.4,9.8c0.4,3-0.2,12.4-4.2,6c-1.4-2.2-1.8-7.7-2.8-10.4C424.6,159,422.8,154.8,422.2,150.2z"/>
<path class="st0" d="M290.1,63.8c1.4-8.8,6.1,0,8.8,3.2c2.1-2.1-0.9-18.1,5.6-14.5c2.4,1.3,3.6,14,3.1,16.4
	c-2.9,0.5-3.3-2.5-3.5-4.9c0.1,4.8-1.4,10.4-6.5,5.6c3,2.8,1.8,9-2.8,7C291.2,75,289.6,67,290.1,63.8z"/>
<path class="st0" d="M344.9,81c0.2-1.6,1.7-5.4,3.9-3.6c1.9,1.6-1,3.7,0.1,5.4c1.1,1.6,4.7,1.1,5.9-0.1c1.5-1.5,0-3.1,0-4.9
	c0-2.6,3-3.7,4.4-1.3c0.6,1,0.6,2.8,0.9,4c0.2,0.8,0.7,2.1,0.5,3c-0.2,0.9-1.3,1.5-1.7,2.4c-0.3,0.9-0.1,2-0.9,2.8
	c-0.7,0.7-1.8,0.5-2.7,0.6c-1.7,0.2-3.2,0.8-5,0.2C347.1,88.4,344.5,84.4,344.9,81z"/>
<path class="st0" d="M308.7,186.6c0.8,2.4,0.6,11.5-2.7,12.2c-5,1.1-3-9-2.7-11.7c0.2-2.6-0.4-7.4,2.6-8.8c4.6-2.2,4.3,5.5,7.9,5.1
	c0.5-2.2,0.3-4.4,0.5-6.6c0.1-2,1.5-9.9,4.7-10.2c3.9-0.3,3.4,10.6,3.5,13.6c0.1,1.8,0.7,11.9-2.7,12.4c-3.2,0.4-1.7-9.2-2.4-11.3
	c-0.6,6.7-2.8,15.2-7.9,5.8"/>
</svg>
