<?xml version="1.0" encoding="utf-8"?>
<!-- Generator: Adobe Illustrator 18.0.0, SVG Export Plug-In . SVG Version: 6.00 Build 0)  -->
<!DOCTYPE svg PUBLIC "-//W3C//DTD SVG 1.1//EN" "http://www.w3.org/Graphics/SVG/1.1/DTD/svg11.dtd">
<svg version="1.1" id="Layer_1" xmlns="http://www.w3.org/2000/svg" xmlns:xlink="http://www.w3.org/1999/xlink" x="0px" y="0px"
	 viewBox="0 0 287.8 221.4" style="enable-background:new 0 0 287.8 221.4;" xml:space="preserve">
<style type="text/css">
	.st0{fill:#FFE400;}
</style>
<path class="st0" d="M287.8,45.4c-1.1-0.1-2.1-0.1-3.2-0.1c-15.7,0-27.9,6.8-38.3,21.2c-0.2,0.2-0.4,0.5-0.6,0.8
	c-5.9,7.4-38.3-10.5-38.3-10.5l0,0C187.7,21.7,150.9,0,110.7,0C49.7,0,0,49.7,0,110.7c0,61,49.7,110.7,110.7,110.7
	c25.5,0,50.5-8.9,70.2-25.1l1.6-1.3l1.8,1c15.2,8.5,27.2,8.5,35.4-0.6c0.2-0.2,9.2-10,17.2-50.1l0.2-1l0.8-0.7
	c4.7-4.1,10.3-12.8,16.6-15.5l1.5-0.7l1.3,1c9.2,6.8,16,10.2,27.3,10.2c1.1,0,2.2,0,3.2-0.1V45.4z M110.7,203.7
	c-51.3,0-93-41.7-93-93c0-51.3,41.7-93,93-93c51.3,0,93,41.7,93,93C203.7,162,162,203.7,110.7,203.7z"/>
</svg>
