<?xml version="1.0" encoding="utf-8"?>
<!-- Generator: Adobe Illustrator 18.0.0, SVG Export Plug-In . SVG Version: 6.00 Build 0)  -->
<!DOCTYPE svg PUBLIC "-//W3C//DTD SVG 1.1//EN" "http://www.w3.org/Graphics/SVG/1.1/DTD/svg11.dtd">
<svg version="1.1" id="Layer_1" xmlns="http://www.w3.org/2000/svg" xmlns:xlink="http://www.w3.org/1999/xlink" x="0px" y="0px"
	 viewBox="0 0 287.8 221.4" style="enable-background:new 0 0 287.8 221.4;" xml:space="preserve">
<style type="text/css">
	.st0{fill:#FFE400;}
</style>
<path class="st0" d="M0,138.7c1,0.1,2.1,0.1,3.2,0.1c11.3,0,18-3.4,27.3-10.2l1.3-1l1.5,0.7c6.4,2.7,11.9,11.4,16.6,15.5l0.8,0.7
	l0.2,1c8,40.1,17,49.9,17.2,50.1c8.2,9.1,20.2,9.1,35.4,0.6l1.8-1l1.6,1.3c19.7,16.2,44.6,25.1,70.2,25.1
	c61,0,110.7-49.7,110.7-110.7C287.8,49.7,238.1,0,177.1,0c-40.2,0-77,21.7-96.6,56.8l0,0c0,0-32.4,17.8-38.3,10.5
	c-0.2-0.3-0.4-0.5-0.6-0.8C31.2,52.1,18.9,45.3,3.2,45.3c-1.1,0-2.2,0-3.2,0.1L0,138.7z M84.1,110.7c0-51.3,41.7-93,93-93
	c51.3,0,93,41.7,93,93c0,51.3-41.7,93-93,93C125.8,203.7,84.1,162,84.1,110.7z"/>
</svg>
