<?xml version="1.0" encoding="utf-8"?>
<!-- Generator: Adobe Illustrator 16.0.0, SVG Export Plug-In . SVG Version: 6.00 Build 0)  -->
<!DOCTYPE svg PUBLIC "-//W3C//DTD SVG 1.1//EN" "http://www.w3.org/Graphics/SVG/1.1/DTD/svg11.dtd">
<svg version="1.1" id="Layer_1" xmlns="http://www.w3.org/2000/svg" xmlns:xlink="http://www.w3.org/1999/xlink" x="0px" y="0px"
	 width="612px" height="151.347px" viewBox="0 320.327 612 151.347" enable-background="new 0 320.327 612 151.347"
	 xml:space="preserve">
<g>
	<g>
		<path fill="#FFFFFF" d="M236.53,462.576L236.53,462.576l3.722,7.856h11.992l-28.946-62.027l-28.945,62.027h11.991l3.722-7.856
			H236.53z M223.297,434.044l8.271,17.367h-16.541L223.297,434.044z"/>
		<path fill="#FFFFFF" d="M294.008,447.276l11.165,23.156h12.405l-12.405-25.224l0.413-0.414c2.895-1.654,5.376-3.722,7.443-7.029
			c1.654-2.895,2.895-6.203,2.895-9.925c0-4.962-1.654-9.511-5.376-13.232s-8.27-5.376-13.231-5.376h-26.466v60.787h11.165v-23.57
			L294.008,447.276L294.008,447.276z M280.776,420.397h15.714c2.067,0,4.135,0.827,5.375,2.481c1.654,1.654,2.481,3.308,2.481,5.376
			c0,2.067-0.827,4.135-2.481,5.375c-1.654,1.654-3.308,2.068-5.375,2.068h-15.714V420.397z"/>
		<polygon fill="#FFFFFF" points="386.221,409.232 330.397,409.232 330.397,420.397 352.727,420.397 352.727,470.019 
			363.892,470.019 363.892,420.397 386.221,420.397 		"/>
		<rect x="404.416" y="409.232" fill="#FFFFFF" width="11.578" height="60.787"/>
		<polygon fill="#FFFFFF" points="496.629,409.232 485.465,409.232 485.465,447.276 439.978,407.992 439.978,470.019 
			451.143,470.019 451.143,431.976 496.629,471.26 		"/>
		<polygon fill="#FFFFFF" points="145.97,471.674 165.819,443.554 165.819,470.019 176.571,470.019 176.571,408.819 145.97,452.238 
			115.783,408.819 115.783,470.019 126.535,470.019 126.535,443.554 126.948,444.382 		"/>
	</g>
	<g>
		<polygon fill="#FFFFFF" points="51.689,353.822 51.689,353.408 38.456,320.741 24.811,353.822 24.811,353.408 11.991,321.567 
			0,321.567 24.811,383.181 38.456,350.1 51.689,383.181 76.913,321.567 64.921,321.567 		"/>
		<polygon fill="#FFFFFF" points="129.843,357.13 129.843,345.965 105.446,345.965 105.446,332.319 131.91,332.319 131.91,321.567 
			94.281,321.567 94.281,382.354 133.979,382.354 133.979,371.602 105.446,371.602 105.446,357.13 		"/>
		<path fill="#FFFFFF" d="M196.832,330.252c-5.789-5.789-13.232-9.098-21.503-9.098h-17.367v61.2h17.367
			c8.271,0,15.714-2.895,21.503-9.098c5.789-5.789,9.098-13.232,9.098-21.503C205.516,343.484,202.621,336.454,196.832,330.252z
			 M188.976,365.813c-3.722,3.722-8.271,5.789-13.646,5.789h-6.616v-39.283h6.616c5.376,0,9.925,2.067,13.646,5.789
			s5.789,8.271,5.789,13.646C194.765,357.544,192.698,362.092,188.976,365.813z"/>
		<polygon fill="#FFFFFF" points="270.438,321.567 270.438,359.611 224.951,320.327 224.951,382.354 236.116,382.354 
			236.116,344.311 281.603,383.594 281.603,321.567 		"/>
		<polygon fill="#FFFFFF" points="341.976,357.13 341.976,345.965 317.578,345.965 317.578,332.319 344.043,332.319 
			344.043,321.567 306.413,321.567 306.413,382.354 346.111,382.354 346.111,371.602 317.578,371.602 317.578,357.13 		"/>
		<path fill="#FFFFFF" d="M474.3,330.252c-5.789-5.789-13.232-9.098-21.503-9.098H435.43v61.2h17.367
			c8.271,0,15.714-2.895,21.503-9.098c5.789-5.789,9.097-13.232,9.097-21.503C483.397,343.484,480.502,336.454,474.3,330.252z
			 M466.857,365.813c-3.722,3.722-8.271,5.789-13.646,5.789h-6.616v-39.283h6.616c5.376,0,9.925,2.067,13.646,5.789
			s5.789,8.271,5.789,13.646C472.233,357.544,470.578,362.092,466.857,365.813z"/>
		<path fill="#FFFFFF" d="M536.326,374.497L536.326,374.497l3.722,7.857h11.992l-28.946-62.027l-28.945,62.027h11.991l3.722-7.857
			H536.326z M523.094,346.379l0.414,0.413l7.856,16.954h-16.127L523.094,346.379z"/>
		<polygon fill="#FFFFFF" points="598.768,321.567 583.881,343.897 583.467,343.07 568.581,321.567 555.762,321.567 
			578.505,355.475 578.505,382.354 589.256,382.354 589.256,355.475 589.67,355.475 612,321.567 		"/>
		<path fill="#FFFFFF" d="M395.319,347.619l-1.24-0.413c-6.616-2.068-12.819-4.136-12.819-8.685l0,0
			c0-4.135,3.309-6.616,9.098-6.616c4.962,0,11.165,2.068,16.954,5.79l5.375-9.512c-6.616-4.135-14.886-6.616-21.916-6.616
			c-12.405,0-21.503,7.443-21.503,18.195v0.413c0,11.165,9.925,14.887,19.022,17.781l1.653,0.413
			c6.616,2.068,12.405,3.722,12.405,8.271v0.414c0,4.548-3.721,7.029-9.924,7.029c-6.616,0-13.646-2.481-19.849-7.443l-5.789,9.098
			c7.443,5.789,16.54,8.684,25.638,8.684c13.646,0,22.33-7.029,22.33-19.021v-0.414
			C413.927,355.062,405.243,350.927,395.319,347.619z"/>
	</g>
</g>
</svg>
